<svg id="Layer_1" data-name="Layer 1" xmlns="http://www.w3.org/2000/svg" viewBox="0 0 1000 1000"><defs><style>.cls-1{fill-rule:evenodd;}</style></defs><path class="cls-1" d="M940.59,290.7c.06.75.13,1.5.2,2.25H941V272.28l-7.58-17.4c-6.13-15.47-12.46-19.95-24.57-29.07q-8.49-6.66-17-13.31l-27.23-12.69-30.7-13.92-31.73-7.78-18,6.55c-5.74,2-13.59,3-16,8.39l-.61.41c-2.22-12-8.47-23.29-12.9-33.78q-2.66-6.56-5.32-13.1l-17-5.94c-7.6-2.95-15.13-5.4-23.34-8l-7.37-2.46-23.13,2.87q-2.56-4.31-5.12-8.6l-8.19-14.33-13.92-17c-2.63-3.34-6.85-5.8-9.22-9.21l-5.73-12.29-.61-.41q1.95,4.82,3.89,9.62L631.46,69.6c-4-5-10-7.09-15.76-10.44-2.32-1.34-5-3.66-8.19-3.89L573.93,59,568,63.26c-5.36,3.81-12,7.18-15.36,12.9L550.8,82.5c-1.25,2.22-3.21,4.19-4.09,7l-.41.21L543,85.37l-1.23-1,4.3,6.15-8,15.76q-1,6.75-2.05,13.51,2,9.72,3.89,19.45c4.28,17.3,6.95,34.43,12.69,50.16v.2l-20.06,4.71-33.78,6.35-40.53,9.62-48.52-13.1-43.4,3.68-43.61,12.28-30.91,8.4-20.47,10-11.26,5.12-23.34,23.13L208.3,287.43,188.24,313l-24.36,26.2Q153.14,354,142.38,368.7q-10.53,12.39-21.08,24.77L103.69,416Q99,424.8,94.28,433.6l-5.74,9.82q-.81,8.7-1.63,17.4c-2,11.54-2.66,21.15-6.76,30.3-4.42,9.87-13.07,17.39-18.42,26.21L47.4,556.22V591l16,31.73c2.19,3.19,6.35,5.61,9.42,8L83,639.54c6.18,4.92,11.51,11.16,19,14.74l41.35,11.47L160,662.68l33.57-7.37c6.11-1.57,12.55-4.08,19.66-4.1l18.42-34.39q-.91-13.1-1.84-26.2c6.36.93,14,11.5,18,15.76l10,10.44c3.24,2.24,8.95,3,11.26,6.14,1.48,2,1,7.1,2,9.42l14.13,31.53q7.26,16.07,14.53,32.14l28.26,43.4,24.15,43.81,21.29,31.93q6,9.42,12.08,18.84L410,849.59,447.62,874l47.91,6.14,42,5.53,93.36-32.55q14.52-19.86,29.07-39.72L683.25,782l20.27-48.11,13.72-31.53,7-45.65,40.12,1,21.29-12.07,13.92-7.58,7.17-13.51,15.56-28.05q4.29-8.7,8.6-17.4l21.29-16.79v-.2l-12.9,8.8c6.69-9.11,13.56-14.91,26.2-18.22l-7,4.71c-.13.21-.27.41-.41.62l22.73-9.63,17.6-3.89,7.17-6.75,14.94-13.1q3.69-8.51,7.37-17c6.1-13.92,12.77-28.81,16.59-45.24.06-3.21.13-6.41.2-9.62,1.94-11.7-.55-25.07,1.43-37.26v-7.37q.51-26.2,1-52.41C944.63,334.83,940.38,313.15,940.59,290.7Zm-6.35-27.64c5.25,6.75,4.68,17.09,4.5,29.07h-.2q-3.69-12.37-7.37-24.77C932.19,265.93,933.22,264.5,934.24,263.06ZM906.81,448.34q-2.16-32.25-4.3-64.49l19.24-7.58c1.5,1,.81,10.56,1.23,13.31L925.44,434Zm20.88,45.44-19.45,15.77-.82.82q-.21-29.69-.41-59.37l18.43-14.33Zm-100.52-2.86q2,7.26,3.89,14.53,3.27,11.88,6.55,23.75c.93,4.18-1.5,12.24-2.25,16-.55,3.27-1.09,6.55-1.64,9.82v.41q-1.32-10.33-2.66-20.67C828.52,520.36,826.73,505.8,827.17,490.92Zm-.41-15.15q-2.46,22.2-4.91,44.42l-14.13,28V475.56L829.63,449C830.61,451.71,827.47,471.76,826.76,475.77Zm2.66-3.07q.42-4.31.82-8.6l9.21-16.58,3.69,22.72q3.38,22.41,6.76,44.83l-10.65,13.31-.41.21C834.58,510.52,825.94,493.09,829.42,472.7Zm-92.33,94.78q-1.83-39.51-3.68-79l39.51,2.05q-.4,39.81-.82,79.63Zm35,4.92q-1.43,30.6-2.86,61.21l-30.92-4.71q-.71-29.58-1.43-59.17ZM304.52,651l13.92,4.3c2.67,1.6,6.53,11.19,8.4,14.33q11.46,19.75,22.93,39.51c.06.2.13.41.2.61l-8-.61Zm20.88,35.82-18.42-16-2.25-15.77Zm-23.13-39.92h-.2l-13.31-18c-1.15-1.16,1-8.9,1.64-11.26l6.75-31.73,14.54,8Zm1.64,19.45h-.21L291,644.25l-2.25-11L301.66,650Zm-17.4-40.12L270.33,609q3.69-16.47,7.37-33l17,8.6c.27.22-1.22,8.47-1.64,10Q289.77,610.48,286.51,626.24ZM288.35,641l-10-8-7-19.45,14.53,15.56ZM228,588.77l.2.82H228Zm-1.84-24.15C227,565.86,228,584.84,228,588,225.92,583.24,225.64,569.93,226.12,564.62Zm1.84-3.48v.41c-.14-1.51-.28-3-.41-4.51q-1.34-1.93-2.66-3.89l2-6.55,4.1,8.6Q229.49,558.17,228,561.14Zm-63.67,81.68-14.94-5.12v-.2l26.4-12.9c4.15,1.29,6.06,6.56,9.83,8.39l.41.62C183.27,634.86,166.15,643.14,164.29,642.82Zm1.64,4.5v.21c-1.19,1.58-2.7.91-5.33.82l2.26-2.46ZM650.7,105.64q6.25,7.77,12.49,15.55l-21.9-6.55q-3.79-5.92-7.58-11.87Zm-1.23-3.28.62-.2h1.23l-.41.81-1-.41Zm95.2,312.4-.61.41q-4-16.07-8-32.14h11.67l6.35,19Zm9.21-8.39c-.27,3.21-.54,6.41-.82,9.62-.27,3-.54,6-.82,9l-9.62,17.81v.41h-.2q1.23-12.39,2.45-24.77ZM354.47,712.63l-.61-.82,1.23-1c3.64.68,7.17,4.64,10,6.55l28.66,19.24,2.05,2.25-5.33,2.66Zm16.38,28.25h-.2q-3.18-8-6.35-16l5.53,3.07ZM93.87,572.4l-2.66-2q.71-9.21,1.43-18.43C95.68,556.84,94.42,565.62,93.87,572.4Zm0,13.51-2.46-12.7C94.55,575.42,94,580.5,93.87,585.91ZM595.63,104.2H596c-1,1.21-14,5.13-16.78,5.53v-.2C582,106.69,591.77,106.37,595.63,104.2Zm-15.15,2.87c1-2,10.4-3.34,12.9-4.71h.82C593.4,103.86,582.83,106.27,580.48,107.07Zm15.36-7.58c-1-2.86-2.05-5.73-3.07-8.59l29.48-3.08h1.43c.68,2.53,1.37,5.05,2.05,7.58Zm-2.87.82-13.1,4.1-7-3.48h-.41v-.21l17.2-9Zm-15.15,5.94c-.58,2.44-9.37,2.23-12.28,2.25l4.3-5.73Zm-3.48,2.87,2.46.2c-.48.55-1,1.09-1.43,1.64l-7.58-1Zm2.87,3.68,20.27-6.35h.81q1.14,5.53,2.26,11.06c-.73,2.09-5.89,2.66-8,3.48l-21.49,8Q574.13,120.89,577.21,112.8Zm19.86-10.64-.21-.62,29.28-4.09.41.82Zm30.3-1.85-25.19,2.87L624.7,99.9Zm-26.21,5.33,29.69-3.08q3.67,6,7.37,12.08l-34.81,2.87-2.25-11.67Zm28.05-8.19,5.53,1h-5.12C629.48,98.13,629.34,97.79,629.21,97.45Zm-25,22.31,35-3.07c1.78,1.06,11.29,17.77,12.69,20.68L612,140.64,604.23,120ZM379,720.41q-7.79-18.52-15.56-37.06,4.5,5.13,9,10.24l13.1,14.53L402,741.49Zm22.72,24-8.39-1.64v-.2l4.1-2,2.25,1.64ZM316,421.11q.81,11.46,1.63,22.93L281.8,469q-3.18-19.33-6.35-38.69l7.58-3.68L315,411.9C316.51,413.44,315.59,418.53,316,421.11Zm3.89,24.16,44.22-20.48q.61,11.47,1.22,22.93l-47.9,22.73Zm-3.28,2c.57.47.12,5.1-.2,6.55q-.93,9.21-1.85,18.43l-10,8c-8.71,6.79-17.59,13.82-26.82,20.06q2.06-14.11,4.1-28.25ZM317,472.9l48.11-23.34c1.05,1.15,1.26,13.55,1.23,16.18l-50,16C316.6,478.77,316.81,475.84,317,472.9Zm49.34-5.32,1,11.87L317.83,494.4h-.21l-1-10.85ZM575.78,573.21l-.21,22.93-26.82,15q.93-13.73,1.85-27.43l25-16.79C576.61,568.06,575.74,571.64,575.78,573.21ZM485.9,473.93l2.46,2c-1.2,6.29-5.77,14.51-5.53,20.27l-.41.2h-1.63ZM483.65,468l-4.5-4.1,4.5-2.86C484.4,461.92,483.81,466.34,483.65,468Zm78.41-47.5c2.13-2.9,11.4-4.58,14.74-7,.63.52-2.25,7.61-2.46,9.42C570.19,425,566.12,421.26,562.06,420.49Zm10.65,7.37q-2.26,7.17-4.51,14.33l-12.28-6.14-.41-.2,15.15-9.42A3.52,3.52,0,0,1,572.71,427.86Zm-3.89-2.45-15.15,9.21c-1.61.28-3.19-1.63-4.71-2.05l-9,.41v-.2l18.83-11.06Zm-.62,21.7.41.41-14.74-4.3-3.48-7.58C556,438.35,565.78,441.23,568.2,447.11ZM476.49,569.73l13.3-19L512.72,563q-2.46,10-4.91,20.06v.41ZM507,585.91q-2.14,13.92-4.3,27.84l-.41.2-35.82-12.28q4.4-14.83,8.8-29.68ZM520.3,470.65l-16.79.2v-1Zm-13.11-3.28,11.26-1V468Zm8.4,8.81h5.12l-1.23,5.73-17.61-1.43c.34-1.3.68-2.6,1-3.89Zm54.66-4.51h1.64c-.14,1.3-.28,2.6-.41,3.89L560,478.84c.21-1.91.41-3.82.62-5.73Zm-3.69-2.25,5.12-1.23h.41C571.37,469.26,568.21,469.4,566.56,469.42Zm-20.88,83.12L515.18,555c.14-1.22.27-2.45.41-3.68,1.34-1.33,5.07-.47,7.37-.82l23.34-1.64C546.75,549.5,546,551.33,545.68,552.54Zm.62,5.93-30.51,2.46c-.07-1-.13-2-.2-3.07L532.17,556c3.89-.66,8.38-1.44,12.49-1C545.2,556.15,545.75,557.31,546.3,558.47Zm-33.78-1.22v2.25l-19-9.62-.21-.41.41-.21C499.74,549.42,507.73,554.93,512.52,557.25ZM485.7,528.38l6.76,1,4.29,13.52-.81.41-1,1ZM497,547c.61-.68,1.23-1.36,1.84-2l13.31,5.12c.07.82.13,1.64.2,2.46-.07.48-.13,1-.2,1.43Zm2.46-4.3q-1.95-6.24-3.89-12.49L515,536c.59,3-1.3,8.85-2.25,11.87Zm-4.51-15.35q.31-11.77.62-23.55l21.08,3.69c.91,1.1.07,5.2,0,7.16l-1.23,19ZM516,548.44l2-12.07,31.74-4.51q-1.34,7.27-2.66,14.54Zm2.45-14.74q.82-13,1.64-26l34-2.66-3.69,24Zm30.92,14.74,13.1-8.8,1,2.05L549,550.49C549.09,549.81,549.23,549.13,549.37,548.44Zm.82-3.27q1.21-7.17,2.45-14.33l13.1-6.76h.41C563.82,537.58,559.82,539.21,550.19,545.17Zm19-22.11a3.53,3.53,0,0,1,1-.62h.61l-5.73,15.36h-.2Zm-2-2-13.72,7q1.63-11.67,3.28-23.34l13.71-5.93C571.05,499.33,567.57,518.06,567.18,521Zm-10-19.24q1.23-10.14,2.45-20.27L571.27,478q-.1,9-.2,18Zm.61-36.65c-.07-.54-.14-1.09-.2-1.63l7-.62h.82v.21Zm.21,8.19c-.21,1.84-.41,3.69-.62,5.53l-33,3.07h-1.64c.34-2,.69-4,1-5.94l32.55-2.66Zm-26.41-3.07,16-1.64h2.26Zm-10-2.05c.06-.68.13-1.36.2-2l33.16-2.46.21,1.64Zm.61,16.59,33.37-2.87h1.43q-1.23,10.23-2.45,20.47l-34.19,2.46Q521.21,494.8,522.14,484.78Zm-3.48,0c1.05,1.26-1.21,16.81-1.43,19.85l-21.09-3.48q2.46-9,4.91-18Zm-18-13.52-2.66.62v-.21l2-1.22h.61Zm-1.84,6.35c.83.51.27,1.44,0,2.66l-7,.62.82-1.44Zm-5.12-4.5-3.48.82H490L488,471.67l7.37-3.27c.55.33.29.06.62.61l.4.41C494.82,469.89,494,471.44,493.68,473.11Zm3.07,10.23h1q-2.25,8.4-4.51,16.79c-2.45.44-5.23-1.58-7.78-2.05-.86-4.49,3-10.1,4.1-14.12ZM492.66,503q-.3,11.76-.61,23.54l-7.78-1.23q.41-12.28.82-24.57Zm.61,43.6-3.07.41c-2.73-2.7-8.87-14.6-10.44-18.63l2.05-.61C483.19,528.29,493,544.35,493.27,546.6Zm22.52,17,31.53-2.25q.3,10.14.61,20.27l-37.25,2.25Q513.23,573.74,515.79,563.59ZM547.52,554l15.77-10.64,4.09,1.43h.41c-2.62,3.1-14.49,11.21-18.42,13.1Zm22.73-8q2.76,9.1,5.53,18.22l-24.57,16.17-.41.41q-.3-10.23-.61-20.47Zm-4.3-4.71,7.57-18.84,4.1.41c.07.14.13.28.2.41l-7.16,18.84Zm8.39-21.7,1.44-16h-.21l-3.48,15.76-2.25.41q1.85-11.25,3.68-22.52l6.76-4.7q-.72,13.81-1.43,27.63Zm.21-51.18,1.23.2h.41c-.38,1.15-.57.76-1.85.62Zm-.21-2.87.82.62C574.71,465.89,574.65,465.93,574.34,465.53ZM577,472.9v.82l-2.86.82v-2.46Zm-.81-8.6,1,.21-.21.82Zm.81,12.08c1.33.72,1.3,13.15,1.23,15.36l-4.71,2.86q.21-8.6.41-17.19Zm.62-11.67,1.84.62-.61,1L578,467A4.39,4.39,0,0,1,577.62,464.71Zm2.45,9.83q-.6-2.46-1.22-4.91l1-1.44q.4,10.76.82,21.5Q580.38,482.12,580.07,474.54Zm.41-11.67c-2.31.42-5.09-1.61-7.37-2.25-.2-2.87-.4-5.73-.61-8.6l9.62,7c.14.21.28.41.41.62C581.85,460.69,581.17,461.78,580.48,462.87Zm-9.21-15.76a24.67,24.67,0,0,1,6.35,5.73C575.54,451.42,572.29,449.55,571.27,447.11Zm.21,18.22v.2l-10.85,2.05h-.21v-.41c2.75-1.07,7-1.46,9.83-2.87Zm-12.29-4.71h-2l-2.46-14.74L570,450.59c.21,3.2.41,6.41.62,9.62Zm-4.91.2-32.75,2.26-3.69-14.54,34-2.66Zm-36,2.46L497,465.12q-2.06-4.39-4.1-8.8l21.7-7.37Zm-24.16,2.66-8.8,3.69h-.2c-1-1.49-.67-5.79-.62-8.81l5.12-3.27C491.52,458.45,493.21,464,494.09,465.94Zm-11.87,33.37q-.32,12.8-.62,25.59l-2,.62h-.21q.51-13.11,1-26.21Zm5.32,49.34-12.9,18.83-.81.62q-10.35-13.82-20.68-27.64l24.16-11.26C479.27,530.36,486.1,545.52,487.54,548.65Zm-10.85-22.32L453.15,537q4.82-19.86,9.62-39.72l14.74,1.85Q477.11,512.72,476.69,526.33Zm-17.81-25.59q-3.78,16.17-7.57,32.35c-.28-3.28-.55-6.55-.82-9.83-2.7-15.69,6.74-24.89,9-37.87C461.73,489.53,459.71,497.46,458.88,500.74Zm-7.57,41.77c2.31,1.22,4,4.87,5.52,7l15.77,20.47q-4.31,15.15-8.6,30.3l-22.32-22.32Zm14.53,61.62,36.24,12.28q-1.54,13.1-3.07,26.2l-37.67-13.3Zm39.31,12.69,40.74-2.25q-.82,13.5-1.64,27L505.76,643h-3.68Q503.61,629.92,505.15,616.82Zm.41-2.46,4.5-27.63,37.87-2.46q-.91,13.82-1.84,27.64Zm43-.61,26.61-15q-1.23,13.41-2.45,26.82c-.85,2.15-5,3.16-7,4.3l-18.83,10.65Q547.74,627.16,548.55,613.75Zm27-59q-1.53-5.43-3.07-10.85l8-19.86,9.63,9.42-12.29,28.25C576.44,560.15,576.26,557,575.57,554.79ZM577.21,608q.4-5.32.82-10.65,4.29-8.29,8.6-16.58c-.75,3.14-1.51,6.28-2.26,9.42q-1.32,5.84-2.66,11.67-2.65,8.08-5.32,16.17C576.66,614.7,576.94,611.36,577.21,608Zm1.23-16.18V579.77q.1-7.57.2-15.15l11.67-26q-.4,7.57-.82,15.15-.4,9.21-.82,18.42Zm2.86-70.62q.93-14.75,1.85-29.48l5.73-1.85q.81,20.07,1.64,40.13Zm2.05-32.55h-.2q-.21-7.28-.41-14.54c.54-3.41,1.09-6.82,1.63-10.24q2.26,11.57,4.51,23.14Zm-.61-22.52h-.21c.14-.75.27-1.5.41-2.26C582.87,464.65,582.8,465.4,582.74,466.15Zm-1.85-12.7c-3.81-2.94-6.33-7.53-11-9.62l11.46-36.64q.21,5.83.41,11.67l1,28.66C582.12,449.5,581.51,451.48,580.89,453.45ZM578,410.67c-1.36,2.23-14.83,6.95-18,8.39q-3.68-4.81-7.37-9.62l28.25-8.8C581.22,400.91,578.76,409.51,578,410.67Zm-20.68,9.21v.61l-21.9,12.9-25,1.23v-.21l39.31-23.54C553,412.1,554.79,417.65,557.35,419.88Zm-10.64,14.94c2,1.21,3.52,6.4,4.5,8.6l-34.6,2.66-8.19-9.21ZM513.34,446.9l-21.29,7h-.21c.14-1.7.27-3.41.41-5.11l13.31-11.06ZM494.71,444a43.26,43.26,0,0,1-12.49,7.16C486.45,446.7,493,444.71,498,441,498.23,441.08,495.21,443.62,494.71,444ZM489,450.59c.64.66.49,2.78.41,4.09l-11.87,7.17c-.61-1.78-1.23-3.55-1.84-5.33ZM476.9,465.94l6.75,5.94-5.73,24.36-14.33-1.84Q470.24,480.17,476.9,465.94Zm-14.54,24.77v.41c-4.38-11,7.66-25.92,11.06-32.75.61,1.77,1.22,3.55,1.84,5.32ZM464.41,470q-2.46,4.5-4.91,9c-.28,1-.55,1.91-.82,2.87L438,495.42l-4.71-12.69,36.85-23.34C470.08,462.3,466,467.33,464.41,470Zm-22.93,42.78V513l-61.21,6.75q-2.67-5.73-5.32-11.46v-.21l60.39-9.62C437.17,499.63,440.37,510.19,441.48,512.82Zm-2.87-15.15L457.24,485q-4.29,12.5-8.59,25l-4.3,2.25Q441.49,504.94,438.61,497.67Zm8.6,15.56c.69.44-.53,3.59-.61,4.92h-.21l-1.23-3.89Zm.62,7.78c1.39,1.57.74,10.41,1.22,13.31,2,11.76-6.05,24.44-7.77,35.62V557.25C441.28,543,446.66,533.5,447.83,521Zm15.35,81.48q-2.15,12.48-4.3,25h-.2l-20.27-24.78q1.33-10.85,2.66-21.7Zm-4.91,27.64q-1.44,9.11-2.87,18.22l-20.68-25q1.54-8.91,3.07-17.81Zm-22.93-42.38-20.06-1-13.11-15.56,36,5.32C437.6,580.4,436.82,584.74,435.34,587.75Zm-1,1.64v.2l-5.73,10.85-.41.21-11.05-12.08Zm1,2.86c1,2.89-1.26,13.61-1.84,17L432.06,623Q425,638.8,418,654.63l0,.47v-.41l0-.06,1-16.31,1-17.82Zm-1.64,33.37,21.09,25.18q-4.52,16.59-9,33.17l-27.64-23.54Q425.92,643,433.7,625.62Zm13.92,62.24,36.85,13.3q-4.82,15-9.62,30.1l-37.26-12.49c0-1.93,1.38-4.65,2.05-6.55Zm.62-2.25,9-33.17L492.05,668q-3.69,15.45-7.37,30.91Zm9.62-35.22q1.42-9.4,2.86-18.83l37.47,13.31c.53.61-.6,4.16-1,5.52q-2.36,7.79-4.7,15.56Zm43.6-4.91,39.1-1.64h3.07q-3.68,11.37-7.36,22.73H495.73Zm44.84-1.84,25-13.92c.48.65-3.74,9-4.5,10.64l-4.71,10.85-22.72,14.33h-.21Zm17.81,8.6q3.06-6.87,6.14-13.72c-.27,1.77-.55,3.55-.82,5.32-2,9.59-6.28,16.95-7.78,25.59h-.2Q562.77,660.84,564.11,652.24Zm7.16-7.17,5.73,2.46-7.16,12.08V660h-.21Q570.45,652.54,571.27,645.07Zm.82-2.25c-.91-1.25.75-8,1.23-10.24q4.5-13.3,9-26.61l1.43,1.43L578,645.48Zm14.33-52.61c4-14,6.27-32.52,6.14-50.57l4.51,5.73L584.17,605C582.59,603.73,585.48,593.55,586.42,590.21Zm6.35-53.64-1.44-49.13c-2.06-11-5.84-22.45-5.32-33.78q12,20.16,24,40.33-6,24.25-12.07,48.52l-.41.2Zm.41-75.54c-2-3.39-6.36-8-6.35-12.28h12.08l23.34,16.78L611,491.12l-.41.21Zm7.57-13.92c-1.93-2-1.72-16.09-2.66-19.86l25,7.78-.21,27.84Zm-2.46-22.73q.21-11.36.41-22.72l21.91-3.28,2.46,33.78Zm24.57-29.48-8-40.33,38.69-11.87L663,388.35Zm-2.66.21v.2l-21.7,3.48L587,377.09,612,356c1.94,1.76,1.79,8,2.46,10.85Zm-24,5.12q-.32,11.14-.62,22.31l-9.41-9V381.39Q591.23,390.81,596.25,400.23Zm-9.83,16.58,9.21,9q1,10.13,2,20.26l-10.24-.2,2.46-16.58-3.27,16.37-1.64.21L586,417Zm-2,40.53-1.43-1.22q.72-2.78,1.43-5.53C585.81,452.36,584.73,454.62,584.37,457.34Zm-.81-55.07c1,1.08.46,11.67.4,14.13C582.82,413.65,582.75,405.15,583.56,402.27Zm.4-4.3-32.55,10q-5-6.66-10-13.31l39.72-16.38,1.84,1C584.79,382.14,584,393.25,584,398Zm-35,11.26L515.18,429.3c-5.25,3.22-13.58,9.4-20.06,10.64q-2.78-5.73-5.53-11.46l48.93-32.76Zm-56.3,32.35c-6.6,3-14.66,9.8-20.27,14.33l-26,16.17-12.89,8.19-.41.41q-.93-6.14-1.85-12.28l55.48-38.28C488,431,492.26,439.74,492.66,441.58ZM431,466.35q-.41-7.87-.82-15.76l50.57-35.83,5.52,13.51Zm4.09,30.3-60.8,9.62c-.48-3.41-.95-6.82-1.43-10.23v-.21L430,484C431.49,484.72,434.35,494.45,435.13,496.65Zm-4.91-14.54L372.9,493.78h-.21l-2.25-13.3,57.32-10.85h.82q.82,5.92,1.64,11.87Zm-60-3.48q-.42-5.92-.82-11.87l58.14-14.94q.4,8,.82,16Zm-1-13.92-1-16L423.26,432q2,9,3.89,18Zm-1-18.22-1-22.93L421,403.71l2.25,26.41Zm-1,34.81h.2l2.46,13.3-47.09,12.7q-2.44-5.54-4.91-11.06Zm2.66,15.14q.81,5.22,1.64,10.45L329.7,520.6q-3.06-5.83-6.14-11.67Zm1.43,12.49h.82l5.53,11.47v.2l-37.26,15.15q-4.92-6.64-9.83-13.31ZM378,522.65c2.07,1,9.39,17.91,10.85,21.09l-42,15.76c-1.2-1.45-5.06-18.75-5.32-21.7Zm3.48-.62v-.2l59.78-6.76h1l2.86,8.19-3.27,15.56-49.95,4.1Zm59.78,19c-.62,2.73-1.23,5.46-1.85,8.19q-.1,7.89-.2,15.77l-43.61-2.46-3.07-17.4Zm-2.26,26q-.19,3.9-.41,7.78l-38.28-5.73-3.68-4.71ZM411.8,586.73,413,588l-44.83,34.19-.61.62L347.92,599l51-27.43ZM387.64,651q-.93,26.82-1.84,53.63l-22.52-25.59c-2.53-2-.93-9.82-.21-14.12q2.25-19,4.51-38.08Zm-18-26-.82-.82,45.45-34.8,12.69,13.71q-4.4,8.29-8.8,16.59l-18.42,18.63L389.28,649Zm34.19,38.69,2.05-4.5q-1.44,18.21-2.87,36.44l-4.09,1.84h-.21Zm-.61-3.27-11.88-9.22-.41-.61,25.18-25.8q-1.53,4.51-3.07,9-3,9-5.93,18Q405.14,656.12,403.2,660.43Zm2.45,27.84,0-.12q.6-7.62,1.19-15.24.83-9.72,1.64-19.45l8.8-25.59-1,16.59-1,16.78-9.59,26.91c0,.18,0,.35,0,.53Zm-16-34.81q5.93,4.62,11.87,9.22c1.16,1.86-.51,7.42-1,10q-1.95,13.1-3.89,26.2l-8.81,6.76Q388.77,679.57,389.69,653.46ZM396.85,702,404,730.23c-.21.55-.41,1.1-.62,1.64h-.2l-15.15-23.13Zm2-1.43,4.3-2q4.19,12.29,8.39,24.57l-6.14,4.5Q402.18,714.07,398.9,700.55ZM413,725.94c2,.62,2.69,2.34,4.1,3.48l15.56,14.12-3.69,10-.41.21-21.7-23.55Zm1.23-2.46-8-24.16,27.84,20.27c1.15,1.42-.77,18-.82,21.49Zm-8-26.82c-.82-2.15,1.84-6.73,2.66-9q4.31-12.37,8.6-24.77L445,686.42q-5,15.36-10,30.71ZM437,720.82l36.64,12.49c1,.86.17,4.23-.2,5.93l-3.69,19.45v.41l-33.78-16Q436.46,732,437,720.82Zm40.33,13.1,43-.82-2.46,26.2-45,.41Q475.05,746.83,477.31,733.92Zm.61-2,9.42-30.09,40.74-2q-3.69,15.56-7.37,31.12Zm10-32.34,7.17-30.71h40.33q-3.29,14.32-6.55,28.66Zm49.95-30.71,22.93-14.54c.76,1-.25,5.39-.61,7.17l-3.07,18.42-25.59,16.79Q534.72,682.74,537.9,668.82Zm21.7,11.67,8-23.14q-.51,6.35-1,12.7-.62,7.37-1.22,14.74l-9.22,21.49v.41h-.2Q557.77,693.6,559.6,680.49Zm8.6-4.92,5.32,4.51-5.93,2.45C567.79,680.21,568,677.89,568.2,675.57Zm.21-2.66c.2-2.18.41-4.36.61-6.55,8.55.69,14.25,5.29,21.7,7.17l-14.94,5.52Zm2.25-9L579.87,649l38.69,16.79-9.41,12.69Zm10.23-16.79q2.67-19.25,5.33-38.49l39.92,13.51q-3.18,21-6.35,42ZM587,606.79c-.8-3.59,2.53-13.37,3.48-17.2l9.21-42.78L642.1,559.5l-15.55,60.19v.41Zm13.1-62q6-24.57,12.08-49.13l43,16.37c.52,3.31-2.29,9-3.28,12.29L642.72,557v.41Zm13.1-51.18,11.87-27,40.33,9q-4.71,17.2-9.41,34.4Zm12.49-29.28q.1-14.43.2-28.86l41.15,2.86q-.72,17.2-1.43,34.4v.41Zm0-31.52-2.46-35,40.13-6.55h.2l3.48,44.42Zm30.91-90.9,39.1-4.71q4.82,22.43,9.62,44.84v.2l-39.3,5.53Zm38.28-7.78L656,339q-4.6-28.56-9.22-57.12v-.21l36.24-4.29h1.64l10.23,55.47Zm-42,5.53-38.7,12.08-7-55.89L644,282.31Q648.45,311,653,339.63ZM606.89,293l-8.19-55.48L633.3,225c1.67,1.75,2.18,11.58,2.87,14.74q3.68,20,7.37,39.92Zm4.92,59.78-25.59,21.5q-1.65-30.92-3.28-61.83l21.7-15.15c1.53,1.65,1.5,11.46,2.05,14.54Zm-28,22.73c-2.54.12-3.8-3.33-5.12-5.12l-12.28-16.58-.41-.41,16-9.83Q582.84,359.48,583.76,375.46Zm-3.69,1.22L540,392.86l-10.65-12.7-.81-.81,34.8-24.57Zm-42.58,17.61Q513,410.46,488.57,426.64q-2.56-6.87-5.12-13.72L525.82,381C528.81,382.44,535.35,391.33,537.49,394.29Zm-54.86,16.79q-3.79-8.91-7.58-17.81l34.19-37.67L525,379.55Zm-2.25,1.84-50.57,35.62q-1.85-8.6-3.68-17.2c.72-2.54,10-8.21,12.48-10l34-26.2Q476.49,404,480.38,412.92Zm-54.46,15.35q-1-12.88-2.05-25.79l42.38-33.37,5.94,24.16Zm-2.46-28.86q-4.8-18.42-9.62-36.85c.67-2.24,9-6.63,11.26-8.19l32.35-22.52q4.2,17.19,8.39,34.39Zm-2.25,1.84L367,420.9l-3.48-33.37,47.7-24.15ZM364.3,421.72l-44.42,20.47Q319,426.34,318,410.46L361,389ZM317,408l-19.45-36.65,41.56-23.95c1.83.72,5,8.52,6.14,10.64l15.15,28.05Zm-16.58-25.8q7.15,13.52,14.33,27l-40.13,18.63-22.52-30.7,42.79-24.57C297.35,373.72,299.15,379.79,300.43,382.21ZM255.8,406.57l16.58,22.32-36.64,15.35L213.83,418l35.62-19.66C252.11,399.51,254.15,404.27,255.8,406.57Zm-44,9.83-25-11.06q15.15-14.52,30.3-29.07l30.5,20.07Zm-2,1.23.2.41-19.65,19.45h-.41l-15.56-14.33L185.17,407Zm-19.45,23.13,21.49,17.4.82,1-15.35,11.26c-1.91,1.11-8.17-2.82-10.24-3.69L156.1,454.27v-.2Zm18.42,12.49-16-13.1c-.14-.21-.28-.41-.41-.62l19.44-19.65c2.61,1.31,4.78,5.31,6.56,7.57q7.16,8.51,14.33,17l1,1-19,12.08C213.31,458.18,210,454.34,208.71,453.25Zm26-5.32,11.67,49.95-17,9.21q-6.85-23.44-13.72-46.88ZM230,510l16.18-9.22c1.1,1.28-.59,22.35-.62,26.82l-16.37,12.29-.82.81Q229.18,525.31,230,510Zm7-63.06,36-15.35q3.17,19.65,6.34,39.3l-30.91,25.39Zm11.87,52.21,30.09-24.57-2.25,14.53q-1,7-2.05,13.93l-26.81,22.52Zm28,5.32,34.39-26.21-.41.82.41.21,3.27-4.51c2.61,7.49-6.67,14.43-9.82,17.61l-19.66,21.29c-4.89,6.07-11.4,11.2-15.35,18.22l-2.87.62h-.2Q271.77,518.45,276.89,504.43Zm38.07-9-34.8,25.8L313.94,485Zm.21,2.25,4.91,10.65-34.6,24.36c-.86.41-6.78-5.56-7.78-7Zm5.73,12.7Q324,516.2,327,522l-26.82,22.73-1,1-12.49-10.85-.2-.41Zm7.17,13.51,9.82,13.1-17.6,14.53c-2,1.56-3.85,4.44-6.55,5.12l-12.49-9.21L301,547Zm10.64,15.56c1.47,1.31,4.51,17.59,5.53,20.88v.2L325,567.28l-3.68-3.48L316,558.27Zm7.58,22.72c3.46-2.16,7.84-3.12,11.87-4.71l22.72-8.6,8.4-3.07c1.33,1.27,3.35,14.26,3.68,17L338.71,594.3Q342.51,578.24,346.29,562.16Zm-6.76,33.78L393.17,565c1.48.58,3.85,3.52,4.3,5.11L346.08,598l-6.55-1.64Zm6.76,5.32,19.65,23.54Q363,650.39,360,676l-25.38-20.67Zm13.3,77.39q8.4,20,16.79,39.92L355.5,707.92q-10-24.36-20.06-48.72Zm25.18,50-17.19-11.88C374.08,719.91,380.58,723.1,384.77,728.6Zm10-5.94,7.58,11.67,13.71,18L405.65,745ZM405,734.53c.2-.75.41-1.5.61-2.25l20.48,22.11.61.62-5.94.61Zm23.34,22.52,27.43,15-31.12-14.13-.41-.2Zm2.86-1,4.1-10.65,33.57,15.77q-2.15,6.54-4.3,13.1ZM472,762.17l41.36-.61H517l-4.91,11.67-44.63,1.63Zm47.91-.61,26.41-18.43c.91,1.15-4.56,7.57-5.53,8.4l-25.18,20.06Q517.73,766.57,519.89,761.56Zm20.26-17-19.44,13.72L523,733.1l28.66-16.58c.4,1.25-2.7,20.54-3.48,22.31C546.71,741.31,542.5,742.91,540.15,744.56Zm5.12-26.81L523.78,730h-.21q3.69-15.25,7.37-30.5l25.59-16.79q-2,15.25-4.09,30.5C551.59,715.47,547.28,716.57,545.27,717.75Zm9.42-3.07q4.2-10,8.39-20.07c.74,2.36-1.1,7.2-1.63,9.63-2.26,10.31-4,19.4-9.22,26.81v.41H552Q553.37,723.08,554.69,714.68Zm7,.81,5.73-31.11,7.17-3.07c2.66,1.28,4.94,5.11,6.75,7.37l14.13,15.76L556.53,727Q559.1,721.23,561.65,715.49Zm15.56-35,15.56-5.94,16.58,6.35,34.8-4.71v.2l-46.47,26.82Zm63.87-5.94L612,678.85l9.21-11.67c1.71-1.58,7-1,9.63-1.43l29.47-3.89-8.18,10.85C650.26,674.54,644,674,641.08,674.55Zm-18.63-10q3.28-20.88,6.55-41.76l37.06-3.89h.61q-2.46,20.37-4.91,40.74Zm63.26-27-4.3,8.19-20.06,19.24C668.37,654.84,678.43,647.3,685.71,637.5ZM664.42,658l4.71-39.51,27.43-24.36q-1.53,8.39-3.07,16.78l-3.48,19Zm2.66-41.15-37.67,3.68q7.79-30.09,15.56-60.18c1.65-1.57,6.68-1.13,9.21-1.64l25.18-4.09h1Q673.73,585.7,667.08,616.82Zm-21.49-59,12.69-45,39.1-7.16h.82L681,552.33ZM701.06,505l29.28-24.56-6.55,19.24-9,26.61-30.3,24Q692.78,527.67,701.06,505Zm-1.84-1.84-39.51,7.17h-.61l9.21-34.4,42.17-6.34h.41Zm-30.5-29.68q.72-17.61,1.43-35.22l44.22-5.73H715q-1.74,17.3-3.49,34.6Zm1.43-38.08-3.48-44.22c-1-.73,8.4-1.42,9.42-1.64l28.66-4.3H706q4.39,22.32,8.8,44.63Zm28.25-98.27,27.23,4.51,7.17,38.48L708,382Q703.22,359.59,698.4,337.17Zm-.61-3.07-10.65-56.7,24.16,7.77L725.22,339Zm4.5-98.67c4.25,5.35,5.54,13.87,7.78,21.08q5.53,18.23,11.06,36.44l-7.78-9.21Q707.82,259.59,702.29,235.43Zm13.31,32.75L736.48,258c2,1,3,6,3.89,8.19l10.44,24.36-25.59,9.62Zm-.82-2.66q-3.37-11.16-6.76-22.31-.81-7.28-1.63-14.54-.82-6.45-1.64-12.9l9-4.09c2,.77,4.77,8.78,5.93,11.06q8.09,16.37,16.18,32.75Zm-10.24-52.2q-.81-6-1.63-12.08-2.05-9.53-4.1-19,7.17,13.62,14.33,27.23Zm-4.7-16.58c3.1,12.68,3.4,27.56,5.73,40.94-6.84-9-7.57-32.79-7.37-48.72Q699,192.85,699.84,196.74Zm-1.85-8v-.82l.21.82Zm12.49,93.15v.2l-23.75-7.57q-5-27.12-10-54.25L698,227.44Q704.24,254.67,710.48,281.9Zm-26.41-8.19c-1.06,1.77-6.82,1.22-9.21,1.64l-28.46,3.48q-4.9-27.33-9.82-54.66l37.67-4.3Q679.16,246.78,684.07,273.71ZM635.76,221.3q-6.24-24.87-12.49-49.74v-.62l43.4-4.09h.82L673.63,217Zm-13.31-52.82q-4.82-12.78-9.62-25.59l38.08-3.27h2.45Q660,151.8,666.67,164l.21.61Zm-10-18,7.17,18.63L581.3,184.86q-3.16-13.61-6.34-27.23l34.39-13.92C611.25,144.49,611.66,148.53,612.42,150.47Zm7.17,21.29h.81q6.36,25.19,12.7,50.36L598.29,234.4q-2.44-7-4.91-13.92l-11.26-33.16Zm-15,122.42-22.11,15.36q-2.46-26.21-4.91-52.41l18.63-18.43Q600.45,266.44,604.64,294.18Zm-25,10.85-11.06-16.17,8.6-5.53C578.3,284.27,579.63,302.05,579.67,305Zm-7.58-6.34,8.19,11.87q.83,15.45,1.64,30.91l-17.4,10.24L536.88,313l29.27-22.73C568.68,291.75,570.46,296.26,572.09,298.69Zm-9.83,54.25-35.21,25-15.76-24.36q11.77-19.24,23.54-38.49Zm-29.48-38.7q-11.65,19-23.33,38.08l-17.81-9.62q.3-13.81.61-27.64l40.53-1Zm-25,39.92v.21l-33.37,36.44q-2.76-11.88-5.53-23.75L490.2,345Zm-18.63-30.7q-.21,9.72-.41,19.45L468.09,364.2q-3.88-16.89-7.78-33.78L489,316.29C490,317.48,489.18,321.41,489.18,323.46Zm-7.37-6.35L459.09,328q-13.83-23.13-27.64-46.27L473.62,259q7.88,26.92,15.76,53.84C488.68,315.06,483.84,316.08,481.81,317.11Zm-45.24-21.9L456.83,329,413,359.08l-.41.41L386,315.27l43.2-31.94C431.36,284.31,435.08,292.78,436.57,295.21Zm-26.21,65.51-47.49,24.36L356.32,373l-14.54-27.23,42-29.07Zm-70-17.2c-1.2.56-6.69-5.36-8.19-6.55l-27.43-23.54-1-1.23,38.9-37.47,39.51,39.72Zm-2.46,1.64-42.38,23.95L264.4,345.57l-.21-.41,37.67-31.32Zm-44.83,24.56c.2.28.41.55.61.82l-43.6,24.57-30.51-19.86-.2-.41,42.79-28.25Zm-33.37-24-42.58,27.84-29.89-3.07,31.93-36.64,40.54,11.46Zm-45,29.69-30.3,28.86-22.11-.82,23.14-30.91Zm-31.94,30.7v.21l-10.85,16-18,2.86q3.59-9.82,7.16-19.65ZM172.07,424c6.07,2.39,9,10.51,14.74,13.31,2.26,3-3.47,3.38-6.76,4.71l-26,10.44q-.3-12.48-.61-25ZM153.85,455.5l41.35,16.79-13.1,21.49-39.72-14.94Q148.13,467.17,153.85,455.5Zm29.27,42.17,1.64,3.07-1.84-.81-.61-.41Zm-2.25-2-1.23,3.07-39.1-16c.28-.68.55-1.37.82-2.05Zm-5.53,58.75c-1,.47-4.63-2.81-5.93-3.68L151.6,539l1.23-15.56,31.73,15.15Q180,546.5,175.34,554.38Zm.41,4.5,24.78,38.7q-5.53,5.63-11.06,11.26-11.86-19.56-23.75-39.11C165.15,568.57,174.28,560.77,175.75,558.88Zm-1.84-2.45-10.44,10.64-11.87-7-.21-18.63ZM161,568.51v.2l-14.94,10-6.14-12.9,9.82-3.68Zm-12.07-9-10.24,3.68-7.57-17.4,17-4.71C149.6,542.29,148.29,556.28,148.94,559.5Zm-.41-20.88-18.22,4.71-9.63-21.91L150,522.65Q149.24,530.63,148.53,538.62ZM116.79,555l-1,1L107,544.14q5.63-10.85,11.26-21.7c2.24,1.86,8.13,18.45,9.62,22.32Zm.21,18.43-1.23.41c-.07-.55-.14-1.09-.2-1.64h1Zm-15.15-.82q1.34,12.28,2.66,24.57h-.2c-2.91-6.73-5.23-16.41-6.35-25Zm-4.3-3.48q-.4-5.32-.82-10.65l8.81-1.43q-1.55,6.35-3.08,12.69ZM104.1,574c6.59,4.94,5.9,17,5.73,28.25h-.2L107,600.44Q105.53,587.24,104.1,574Zm5.73,2.46-5.52-5.94q1.53-7.47,3.07-14.94c1.06,1.31.71,2.42,1.23,3.48l3.89,5.53Zm1.85,18.22,1,9.62C111.17,603.07,111.58,597.4,111.68,594.71Zm-4.92-46.88,7.78,9.62c-.13,1.57-.27,3.14-.41,4.71l-.41.2C111.41,557.4,107.61,554.65,106.76,547.83Zm12.9-28.46-9.21-18,37.05-1.23,2.25,20.27Zm26.82-21.29-37.67,1.44L101,492.35l38.49-6.55h1l5.94,12.08ZM117.2,520c-.36,2.33-1.85,4-2.86,5.73l-9.42,18-11.67,1.43L108.4,503Q112.81,511.49,117.2,520ZM103.28,546.6h1.44c.54,2.32,1.09,4.64,1.63,7-1.49,1.73-7.88,1.82-10.44,2.25q-1.32-3.88-2.66-7.78Zm-4.91,48.11-3.07-.61c-1.06-3.52-.65-13-.82-17.41Q96.43,585.71,98.37,594.71Zm.82,2.66,10.44,16.79-2,1.64q-5.62-9.52-11.26-19Zm10,7.58c2,1.52,3.59,4.58,4.91,6.75Zm9,16.37c-2.88-2-5.32-6.87-7-10ZM115.16,583l2.66-1.23v22.11l-1,.41Q116,593.69,115.16,583Zm.61-3.27v-3.48l1.23-.62c.57.81.19,2,1,2.87Zm1.64-21.5,11.26-11,7.37,17.4-16,9.62C119.52,569.34,117.71,563.76,117.41,558.27Zm19.65,8.8q3.28,6.66,6.55,13.31l-21.49,14.53c-1.51-5.34-.21-12.28-1.64-17.6Zm8,15.77,29.27,39.51-27.84,13.71L123.14,598Zm2.45-1.23v-.21l15.77-10.64,24.15,39.92-7.37,7-3.27,3.27Zm41.15,31.73,3.07,10.24-3.48,7.77-8.6-7.36-1-1.23Zm5.12,11.26h13.72v.2q-4.41,7.79-8.81,15.56l-.41.21-7.16-6.14C189.11,631.63,192.62,628,193.77,624.6Zm.2-2.87L190.7,611.5l10.85-10.85c1.62,1.42,5.87,18,6.35,21.08Zm8.4-26-25-39.1,9-15.56c2.63,1.52,6.55,10,8.39,12.9L213.42,583l-10.85,12.69ZM185,536.57l-32.35-15.76-2.46-20.07,39.92,17C190.23,519.87,186.33,534.92,185,536.57Zm-35.62-38.28q-2.88-5.94-5.74-11.88l46.07,18.22c.2,3.69.4,7.37.61,11.06ZM187.63,502c-.82-.59-3.54-5.5-3.28-6.75L197,474.54l24,51.18-6.76,10.85V537l-21.9-33ZM221,530.22q-.83,7.06-1.64,14.13l-.21.41-3.48-5.53Zm2.45-3.89q2.16-5.62,4.3-11.26-.19,3.9-.41,7.78l-1,18.84c-.89,3.07-1.77,6.14-2.66,9.21h-.21L221,547.42Q222.23,536.88,223.45,526.33Zm-1.22-3.68v.41H222L198.68,472.9,214,461.44q2.44,8.28,4.91,16.58,4.5,15.25,9,30.5ZM244.74,531q-2,8.4-4.09,16.79c-1.27,2.16-6.32,4.18-8.6,5.32L228,543.94Zm2.87-2.25,25.59-21.9c.46,2.07-3.38,9.74-4.3,12.07q-2.65,7.38-5.32,14.74l-20.47,13.11Zm19.24,6.35-4.09,5.73c-4.49,6-8.83,11.92-15.35,16C251.08,551.2,261.16,538.2,266.85,535.14Zm-16,20.47h.2q-1.84,2.55-3.68,5.12l-.62.41c.14-.89.27-1.78.41-2.67Zm24.56-27.84a16.13,16.13,0,0,1,5.73,5.73l1.64,1.64-22.31,26.61-12.69,3.69Zm8.81,8.8,12.89,11.26q-9.61,12.07-19.24,24.16l-.62.41-13.71-9.83-.62-.82Zm14.53,12.69,12.9,9.21c.47,1.64-2.43,4.36-3.48,5.94l-11.47,17.4-.61.41-16.79-8.39-.2-.41Zm14.95,11.06c3.23,1.55,7.3,6.18,9.41,9q-5.22,11.05-10.44,22.11l-14.12-7.77-.21-.41Zm11.46,9.62,18.42-6.76q-3.89,16.08-7.78,32.14l-20.67-3.27h-.41Zm11.87,28.46,7.37,1.84-11.67,54v.41l-11.67-1.23Q329.1,625.93,337.07,598.4Zm-4.3,59q10.55,25.59,21.09,51.18l-1.84,1L321.1,655.92Zm53.85,83.12,4.09,3.48c5.55,2.25,14.67,1,17.81,5.53l7,36.23L373.1,745.79q-.62-8.28-1.22-16.58C377.3,732.11,381.8,736.77,386.62,740.47Zm24.15,10.85,9.42,6.76,15.15,6.55c9.55,4.18,19,10,29.89,12.49l16.37-.62L487.75,796v.61l-70-9.41Zm73.29,25.39v-.21l29.28-1c3.41-.82,6.95-5.53,9.62-7.58,6.34-4.86,22.56-15.33,25-22.72l15.15,30.71L490.2,796.56Q487.14,786.63,484.06,776.71Zm65.31-33.78q3-6.76,5.93-13.51l41.15-23.75c2.11,1,19,18.67,20.07,20.88l1,1-52,47.09-.41.41Zm49.54-38.49L645.79,677l16.79,10.23c-1.76,3.6-7.55,7.14-10.65,9.63L620.81,724.5l-1.43,1.44ZM648,676c-.07-.13-.13-.27-.2-.41l6.34-1,28.05-27.23,3.07.21L664.62,685.2l-.61.41Zm35.83-30.09L697.38,632l-4.5,14.53Zm2.66-5.32c5-9.71,12-20,15.35-30.92l-1,7.37q-.83,5.54-1.64,11.06Zm18.22-35.21c2,1.33-1.71,20.91-2.25,24.36C699.05,627.07,704.49,610.52,704.75,605.36Zm0-23.14q-.72,10-1.43,20.06-4.61,9.63-9.22,19.25v.41h-.2q3.27-17.1,6.55-34.19,2.65-9.82,5.32-19.65Zm2.87-9.41q1.32,7.16,2.66,14.33c1.8,8.17,4.66,17.06,4.5,26.2-4.36-3.41-7.17-8.55-7.37-16.17h-.2c-.21,2-.41,4.09-.62,6.14v.41h-.2C703.78,595.65,707.56,582.57,707.62,572.81ZM706.8,555l-9.42,35.83-27.64,24.36q6.66-30.6,13.31-61.21l30.5-24.36Zm8.39-20.88c3.09-10.38,5.66-19.73,9.42-29.48l5.73-16.37q1.85,39,3.68,78L711.1,551.1C710.11,548.53,714.23,537.35,715.19,534.11Zm-12.69-33q5.63-16,11.26-31.93l24.56-17.81c.53.61-3.29,13.28-3.89,15.35q-1.23,4.92-2.45,9.83Zm11.87-35.21h-.2l3.27-34L742,420.08l-2.46,27.85Zm3.07-36.85q-4.4-22.11-8.8-44.22l22.93-1.63h1.84q4.3,17,8.6,34Zm29.28-48.93H735.25q-3.27-17.91-6.55-35.82L742,360.1,746.72,380ZM727.88,340q-6.64-25.8-13.3-51.59c6.86,5.41,9.08,13.69,12.07,23.13q7,21.71,13.92,43.4ZM726,303l25.59-9.63,10.44,34-26.82,4.71Q730.65,317.52,726,303Zm13.72-46.27,32.34-5.94c2.35,1.58,3.8,6.83,5.12,9.42l11.46,22.11-35,7.57Zm35.41-5.94L802,256.1c2.16,1.31,3.44,6.4,4.5,8.81l9.42,19v.2l-24.36-1.84Zm61,65.92,24.16,9.42,7,55.07-31.74-19.25q1.14-10.23,2.26-20.47C839.16,333.61,837.56,324.06,836.18,316.7ZM862,299.3v-3.68l25.18-5.94q2.67,16.79,5.33,33.57l-29.48.62Zm-.41-6.35q-4.18-9.72-8.39-19.44l22.93-10.45q5,11.88,10,23.75Zm-22.51-35.82,10,14.94-15.77,8.6-4.09-11.46Q834.13,263.17,839.05,257.13Zm-11.47,10.64-14.53,2.05-.21-.82c-.92-1.48,1.07-4.94,1.64-6.55q2.76-8.49,5.53-17l17.19,9.83.21.4Q832.49,261.74,827.58,267.77Zm22.52,7c1.83,1,6.92,15.56,8.19,18.43h-17.2l-6.34-10.24Zm1.84-3.89-10.23-15.15-.41-.4,19.85-13.93,13.93,19.25Zm-12.08-17.4-18.22-10.23,17.41-18.84,20.06,14.54c.2.27.41.54.61.82ZM820,241.57c-1.68.55-5-2-6.76-2.87l-18.63-9-.2-.41L814.48,210l22.31,12.49.41.61Zm-2,2.66-7,21.7h-.21q-7-12.28-14.12-24.57l-4.1-6.34c.14-1,.28-2.05.41-3.07Zm-3.07,32.14c.82,1.37,1.64,2.73,2.45,4.1l6.15,7.37C818.91,285,817.26,281.45,814.89,276.37Zm-.21-3.89,11.67-1.84c1.36.43,4.42,9.35,4.92,11.26l-6.76,4.3A57.21,57.21,0,0,1,814.68,272.48Zm11.67,15.77,5.53-4.3c2.63,1.37,5.25,7.51,6.55,10.23l-6.14,6.35c-1.16-4.38-2.79-9.4-5.94-11.88Zm14.54,7.57,18.22.2,1,27.23L836,314c-.79-4-1.88-7.35-2.45-10.65Zm-8.4,75.34Q831,357,829.42,342.91l5.94-12.7C839,338.83,832.61,360.6,832.49,371.16Zm0,57.52,6.15,15.15-7.17,12.9-.41.2A200.09,200.09,0,0,0,832.49,428.68Zm.21-5.12q.3-21.48.61-43,2.87,29.28,5.74,58.55h-.21Q835.76,431.35,832.7,423.56Zm3.89-34.8c-1.05-6.34-3.09-18.7-1.43-24.56l31.73,19c2.51,5.18,1.05,13.85,2,20.06q2.16,24.36,4.3,48.72l-31.73-9Q839,415.89,836.59,388.76Zm33.37-4.3,6.75-.2h23.14L904.56,449v.2l-28.26,3.08Q873.14,418.35,870,384.46Zm-.41-2.45q-3.18-27.74-6.35-55.48l29.89-.82q3.27,27.94,6.55,55.89Zm20.27-93.15,22.31-8.6q3.38,17.72,6.76,35.42l-23.55,7Zm13.92-36.65,15.76-4.5c1.15.48,8.21,16.9,8.6,19.24l-14.54,9.42Q908.66,264.29,903.74,252.21Zm7.78,25.19v.2l-22.32,8.6-.41-.21L879,262l22.31-9Q906.4,265.21,911.52,277.4Zm-33.78-18L864,240.14l23.13-9,13.11,19.45ZM862,238.09l-20.06-15.15h-.41l23.75-8.6,20.27,14.74ZM839.05,221.3l-21.91-12.69v-.21l23.13-8.59c2.41.32,4,2,5.74,3.07l17,9.82Zm-.82-22.93-23.75,8.81-20.06-10H794l24.36-9.22,19.86,10.24Zm-25.8,10.24.21.41L793,227.44l-.82.82-5.73-3.48-7-11.87,11.88-14.33ZM790.94,232h-.21l-1-1.85C790.76,230.47,790.9,230.55,790.94,232Zm10.23,21.7-27.43-5.33Q762.79,227.14,751.83,206l26.62,9.62Zm-45.86-35.42q8,15.15,16,30.3l-32.75,5.94q-10.75-21.81-21.5-43.61l31.53-5.12C750.92,207.17,753.68,215.44,755.31,218.23Zm-7.57-14.53-31.94,4.91-19.24-37.26,31.73-4.71,19.45,36.85Zm-50.16,20.88-21.49-7.37-5.94-50,25,10Q696.36,200.93,697.58,224.58Zm-28-60.19-13.1-24.16,23.33,9.83,14.13,24.16Zm8.6-17.2L655,137.37,642.72,117.1l22.72,6.76L678.14,147Zm-34.6-46.47,2.66,1.64c-1.49.45-11.84-1.46-13.51-2.25Zm-.41-1.43V97.86l3.27,3.07Zm-2.46-1.23-12.28-2.87-2-7.16,14.33,7.78Zm-15.35-12.9q-2.67-5-5.32-10c8.39,4.44,16.53,8.1,19.65,18Zm-2.66.21-30.92,3.48-7.37-11.26,31.12-3.48h1.23Zm-33.78,4.5-18.22,9.42-6.76-9.21-.41-.41L581.3,78.61ZM568.2,101.34l-4.5,6.75-.62.41c-1.76-1.45-6.93-8-7.57-10.23L561,91.71Zm6.14,11.87v.2L568,130l-21.91,12.49q7.78-15.66,15.56-31.33ZM601,120.38l8.19,21.08-34.6,13.72q-2.06-11.88-4.1-23.75Zm-21.7,65.71Q571.48,197,563.7,208l-.21.4q-5.32-14.11-10.64-28.25l19.65-20.88Q575.88,172.68,579.26,186.09Zm.61,3.07,16,46.47L577,254.26l-12.69-42.58Zm-10.24,49.13c3.84,12.26,7.84,26.55,7.78,42.79L567.59,287q-12.5-17.72-25-35.42c-2.62-3.69-9.12-10.48-10.23-14.74l31.32-13.1h.61C567.66,226.29,568.26,233.89,569.63,238.29Zm-30.7,13.11,26.2,37.25L535.65,311l-30.3-64.08,23.95-8.8C532,239.22,537,248.62,538.93,251.4Zm-5.53,60.18v.21L492.05,313Q484,285.48,475.87,258l.21-.41,26.61-9.62ZM474.64,255.9l-48.1-34.6-.41-.61,37.05-6.35c3.62.81,6.91,5.63,9.62,7.78l28.66,23.75Zm-37.25-24.16,35.21,25.39L430,279.85l-46.48-37.67c-.2-.27-.41-.54-.61-.82l39.92-19.85C426.89,222.31,433.93,229.29,437.39,231.74Zm-9.83,48.93.41.61L384.16,313,344.44,273.3l36.44-30.71Zm-84.75-9L295.11,253l-.21-.41,31.32-25.79,52.62,14.53Zm-2.05,1.64v.21q-17.2,16.26-34.39,32.55L301.66,311l-42.59-18,34-38.48Zm-40.95,39.1v.21l-37.46,30.91c-1.94,1.15-8.56-2-10.85-2.66l-30.71-8.6,36.85-37.67Zm-62.23-.61-19.45,19.86-40.33,8.59q14.43-16.07,28.87-32.14l47.08-13.3ZM215.67,334.1l-13.3,15.36-18,20.88-35.62,9,27-36.65Zm-34,38.9c.49.37.26.1,0,.61l-9.42,12.49-12.89,17.4-29.89,10.24,17.4-31.94Zm-23.75,33-6.75,19.86-26.62,8.59H124l4.3-18.22Zm-35.21,22.93c-.48,2.18-1,4.37-1.43,6.55L96.53,458.16l4.5-17.6,24.16-22.32Zm.62,8,27-8.8,1,24.16v1L118.84,460Q121.09,448.44,123.35,436.87ZM150,455.3h1L139.52,478l-33.78,4.71,12.08-20.27Zm-12.28,24.77h.82c-.14.47-.28.95-.41,1.43-3.06-1.17-7.77.51-11.06,1.23l-24.57,4.5c.62-.82,1.23-1.64,1.85-2.45ZM135,482.73l3.08,1.43-12.08,2c-8.61,1.76-21.93,5.29-30.3,4.09ZM107.38,501q-7.78,21.39-15.56,42.79l-.41.2-16-18.22c.73-3.54,4.78-6.92,6.76-9.62l16.17-22.32ZM90.8,546.6q-.83,11.26-1.64,22.52l-18-5.94,3.69-35ZM71.35,565.84,89,571.78q2,11,3.89,21.91l-16-1.23-5.52-26.41Zm22.31,30.51c.14.54.27,1.09.41,1.64.47.4,0,0,.62,0l10.85,18.83-11.06,4.91L78.1,595.12ZM107,619.48c1.91.63,2.68,2.55,4.09,3.69l14.74,13.92q-.81,3.88-1.64,7.78c-1.74-.25-3.39-2.34-4.91-3.48l-22.72-17.2-.21-.41Zm3.68.21-1.22-1.44,2-1.63c1.83,1.38,2.52,3.06,3.89,4.91l8,7.37,3.89,4.71v.82l-.62.41Zm7-11.88.82-1,22.52,34-1.43.41Zm3.07-6.14c.14-.41.28-.82.41-1.23,2.53,1.46,4.17,6.31,5.74,8.81q8.28,13.2,16.58,26.4l.41.41h-1.23Q131.64,618.87,120.68,601.67ZM150.16,642l-5.93-.82-.62-1.23Zm-7.57.61.82-.4,8.6,1,8.39,2-2.46,2.66c-5-.79-11.21-2.58-14.94-5.12h-.41Zm44.83-7.37,8.4,6.56.61.81-17,6.76L168,644.46l-.2-.41Zm11.26,8.6,9,3.48-23.13,2.46Zm1.85-2.25q5-8.7,10-17.4l9.62-2.66c.48.39-1.52,4.74-2.05,5.94l-8,18.22Zm9.82-20.06Q207.08,610,203.8,598.4l10.65-12.49q3.17,16.37,6.34,32.75Zm4.3-40.54-27-42.37,4.71-18.43c3,2,6.88,10.74,9,14.13q10.75,17.08,21.5,34.19l-7.58,12.07C215.06,580.72,214.86,580.86,214.65,581Zm-13.1-50.56c-4.37-7-9.37-11.22-9.21-22.93q16.36,24.57,32.75,49.13c-.48,2.94-1,5.87-1.43,8.81h-.41Zm31.12,25,6.34-3.68c.52.42-1.32,3.49-1.84,4.5-2.07,4-4.37,11.24-8.6,13.1C227.15,566,231,557.09,232.67,555.4Zm9.21,7-12.69,16.38v.41c-.14-1.64-.28-3.27-.41-4.91Zm-7.58,3.28,8.19-16,17.61-11.46-5.53,7.16C248.35,552.89,242.47,560.05,234.3,565.64Zm24.57-.82c1,.76-.2,5.22-.61,7Q256.1,582,254,592.25c-1.62,1.46-10.89.56-13.72,1.23l5.94-25Zm2.87-.41,14.12,10.24q-3.58,16.17-7.16,32.34l-12.9-13.51Zm52,30.5L335,598q-7.89,27.42-15.77,54.86l-15.15-4.3Zm35.62,121q.09,8.61.2,17.2h-.2l-17.61-36.23C338.58,703.42,338.61,712.34,349.36,715.9Zm-3.69-4.09,5.94.41,13.1,10.85Zm16.58,11.67q2.16,5.63,4.3,11.26l4.71,11q2.67,20.26,5.32,40.54h-.2l-25-49.14q-.09-10-.2-20.06Zm11.26,25,42.58,39.92,11.67,41.77-48.92-39.92Q376.17,769.34,373.51,748.45Zm44.84,40.33,70,9.63c2.55,2.11,3.93,8.1,5.32,11.26l15.15,32.75-78.4-10.85Q424.39,810.18,418.35,788.78ZM491,798.2V798l72.88-20.48,31.53,38.9.61.62-84.75,25.18Q501.15,820.21,491,798.2Zm75.34-21.49v-.41l52.41-47.91,28.45,24.77L598.5,815.6l-.61.41ZM622,728.39c-.48-.54-.95-1.09-1.43-1.64l43.81-38.89,20.68,5.52v.21l-36.24,57.53-.41.2Zm43.81-42.17,21.09-38.49c6.66.08,10.2,2.37,15.35,3.28l-16.17,40.53Zm34.6-56.09c2.57,1.92,8.68,8.77,10,11.67l1,1-16,2.46Q698,637.71,700.45,630.13Zm4.5,1.43q1.54-11.46,3.07-22.93c11.47,8.88,5.13,16.47,4.71,31.94Q708.85,636.07,705,631.56Zm5.12-78.82,23.54,15.56c1.81,4-.12,10.46.62,15.36l1,43.6h-.2l-17-10.64q-1.44-8.1-2.87-16.18C712.55,588.47,705.8,564.84,710.07,552.74Zm23.14-66.53c0-10.11,3.45-18.44,6.14-27.43l3.27-11.47c5.12-8.82,12.56-18.3,12.69-31.52l15.15,1.43,2.46,71Zm37.46-71.86-.21.62-14.94-1.44c2.29-12.11-2.22-19.84-5.12-29.27q-1.85-7.27-3.68-14.54v-.2l23.13-1.64h2ZM746.1,366.86c-4.07-10.58-6-21.54-9.82-31.94l26.4-4.91q4.41,17.6,8.81,35.21Zm8.6-74.32L789.5,285q5.64,17.29,11.26,34.6l-35.82,7.16Q759.81,309.65,754.7,292.54Zm37.67-7.77,24.57,1.84Q820,300,823.08,313.43L803.22,319Q797.79,301.87,792.37,284.77Zm27.23,3.07,8.19,5.93q2.44,7.07,4.91,14.13l-7.58,4.5ZM833.11,311c.88,1.41.47,3.76.82,5.73l1,9.21L829,338.2v.41l-3.27-23.34Zm-2.46,68.38-23.54,23.13q.92-22.41,1.84-44.83l18-12.9Q828.8,362,830.65,379.35Zm19,118.53q-3.88-26.1-7.78-52.21l31.73,8.81q.51,6.45,1,12.89l3.07,50.16v2.25l-25.39-5.32Q851,506.17,849.69,497.88Zm26.82-43,27.23-3.07h.82q.09,30.09.2,60.18l-24.16,7.78Q878.56,487.34,876.51,454.89Zm25.79-73.7q-3.27-27.94-6.55-55.89l22.93-7h.62q1.43,27.63,2.86,55.27Zm12.29-101.95,14.33-9.62c1.66,1.55,1.91,5.8,2.66,8.18q3.07,10,6.14,20.07l-16.79,16.37Q917.77,296.75,914.59,279.24Zm18.83-18.84-3.27,4.1-.21.41q-3.59-8.6-7.16-17.2l6.14,1.64C931.12,251.19,932.4,257.57,933.42,260.4Zm-6.35-14.53.62.61-5.94-1.23L913,231.13C918.3,234.54,924.43,239.9,927.07,245.87Zm-18.22-17q4.92,8,9.83,16l-16.17,4.92-12.29-18.63-.4-.41,17.6-1.84Zm-3.27-3.07.82,1-18.63,1.43-18.63-14.12,21.9.61Zm-37.46-22.52,18.83,9-11.46-.2-9.63-.21L845.8,199.81Zm-6.76-3.07c-2.38.75-7.51-.92-10-1.44l-10-1.43L825.74,189l20.67,4.5ZM838,189.78c-8.84-1.51-20.24-3.35-26.61-7.78C819.18,183.89,832.19,185.74,838,189.78Zm-36-9.42,13.72,6.14v.2l-25,9-16-5.32-.2-.41Zm-30.3,11.46,17.61,5.73L778,210.86l-9-15.35Zm4.92,20.88-26.41-9.41-18.43-35.83,24.77,11.67Zm-20.07-44c2.26,5.32,5.11,10.81,6.55,16.79-5.05-4.73-7.54-15.53-9.21-23.34C754.77,164.32,755.66,166.51,756.54,168.69Zm-8.8-20.47q3.78,14,7.57,28l-25.38-11.87-12.28-26.82ZM715,137.37l12.48,27.22-32.34,4.51c-3.09-9.22-10.88-16.76-12.9-27.43l31.73-4.3Zm-15-5.12,11.06,3.07-29.89,4.09q-.83-2.25-1.64-4.5ZM685.51,155l-15.15-26.82C679.08,133.16,681.38,145.41,685.51,155ZM659.3,112.6l-5.73-7c-1.13-1-.22-1.3.41-2.67l17.6,23.55C666.7,122.86,663.07,117.39,659.3,112.6Zm9,6.55-5.73-7.78c-3.19-4.35-7.16-8.29-9.62-13.31C659.06,103.54,664.39,111.58,668.31,119.15ZM644,88.23l2,2v.21l-1.63.2-.62-1Zm.41,4.3,2.25-.41q2.55,4.2,5.12,8.4v.2l-1.64.41-5.12-7c.55,1.64,1.09,3.28,1.64,4.91-3.33-2.53-4.94-7-6.76-11ZM642.1,88a32.55,32.55,0,0,1-9-12.08C637,78.8,639.62,83.83,642.1,88Zm-8.59-7.17-15.36-9-4.5-8.4C623.45,69.31,627.89,70.4,633.51,80.86Zm-8.19-13.1c-3.16-1.57-12-5.57-13.72-8.19C614.87,60.86,623.83,65,625.32,67.76Zm-9.83,4.3-32.34,3.48-5.33-9.21,31.53-3.69h1.23Zm-7.78-13.51c.85.38.86.85,1.44,1.43.06.21.13.41.2.62L576.8,64.08c-.21-.68-.41-1.37-.61-2ZM580.48,76.77,562.67,87.62l-2-9.83L575,67.15Zm-7.16-13.51.82,1.84L560,75.34c-.13-.69-.27-1.37-.41-2ZM557.15,76.57c.41.4.22.07.41.81l-3.28,4.92-.61.41Zm1,3.68,2.05,9.21-6.14,7.37q-.52-4.71-1-9.41ZM552.44,99.9c2.23.71,4.58,4.45,5.73,6.35l-4.5-3.89-1.85-2ZM550,87.42c1.11,1.15,1.12,5.89,1.23,7.77C548.25,92.84,548.8,90.66,550,87.42Zm1.64,10.85-.62.2h-.2c-.2-.68-.41-1.36-.61-2C550.66,97,551.14,97.65,551.62,98.27Zm-4.71-5.33c.55,2.46,1.09,4.92,1.64,7.37l-9.42,15.15v.41C536.92,109.36,545.38,97.7,546.91,92.94ZM544,141.26q-2.65-10.33-5.32-20.68l10.85-18.22,10,8-15.15,30.71Zm8,36.23-7-32.34,22.72-12.49q2.15,11.86,4.3,23.75Q562.05,166.94,552,177.49Zm.82,13.92c1.87,1.47,2.29,6.53,3.07,9q1.43,4.61,2.86,9.21l5.74,11.06-30.1-24.57c-.07-.13-.13-.27-.2-.41Zm-21.29,4.92,31.32,25.38-32.14,13.51L500,202.47ZM528.28,236l-24.57,9.21-37.25-31.11c-.14-.21-.28-.41-.41-.62l31.32-10.23ZM478.74,207h.61c-4.07,2.53-13.69,5.17-18.42,4.3Zm-107.27-4.5L409.13,199,459.7,212.7l-14.54,2.46-22.31,3.69-51.38-16.18Zm-4.92.61,54.25,17-39.51,19.66L328.88,225.4ZM267.67,235l26.41-12.49,65.72-18.22h.41l-34.6,20.27-57.94,10.64Zm-6.14,3.27L321.92,227h.62v.21L292.24,252l-56.5,13.92Zm27.64,16.38h.61L257,291.93l-48.52,13.72,24.36-36.85Zm-66.62,22c1.8-2.07,3.6-4.15,5.41-6.22a68.29,68.29,0,0,1-5.41,6.22l-.12.13-19,19.86C208.78,288.92,216.15,283.22,222.55,276.65Zm-19.77,20.6h.2l-.41.41Zm23.13-22.11-10,15.15-10.44,16.18-33,26Zm-59.78,64.49,31.12-24.57-10.44,12.08c-12,12.38-23.69,25.28-37.67,35.62ZM145.05,368.5,168.79,348l-9,12.29q-7.38,10-14.74,20.06l-19.86,11.87ZM121.5,396.75l21.29-12.9c.25,2-6.57,12.52-8,14.94L126.21,415l-23.13,21.08ZM105.74,416.4l10-12.9c.18,2.67-3.47,7.65-4.71,10.24-4,8.46-8.65,24.1-16,28.86ZM89.08,457.72c.1-1.22.19-2.44.28-3.65q.42-5,.82-10L98,430.12l-2.46,6.75c-2.58,5.58-5.68,13.49-6.42,20.85,0,.55-.08,1.11-.13,1.67C89,458.84,89,458.28,89.08,457.72Zm4.38-11.43,3.89-2.66-9.63,26.61h-.2Zm-5.33,28h-.2q3.27-9,6.55-18C95.45,460.55,89.3,470,88.13,474.34Zm7.58-12.9,24.77-22.73L118,451c-.61,3.2-1.23,6.41-1.84,9.62l-28.86,21.9Q91.51,472,95.71,461.44Zm-9.42,23.95,27-20.47c0,1.44-9.67,17.58-11.25,18.83l-7,4.92-3.27.61-5.12,5.53-11.46,8Zm-8,17.4c-.53,1.84-7.63,8.06-9.83,9.42C71.33,508.24,75.07,506.23,78.31,502.79ZM63.77,520.4,92,491.74l4.71,1L74,523.67c-.94.65-8.12-2.67-10.24-3.07Zm-1.23,2.86v-.41l10,3.69-3.48,36-17-.61ZM50.06,554q3.27-8.91,6.55-17.81l-5.94,22.72C49.68,558.85,49.43,555.57,50.06,554Zm.61,37.67h-.2C47.59,584.76,49,571.25,49,562,50.58,564.58,50.72,586.73,50.67,591.64Zm1-26.82,17.41.62,5.73,27L52.92,594.1Zm10.44,51.59,3.28,5.53C63.89,620.77,63,618.23,62.13,616.41ZM53.74,597l20.88-1.84h1L92,621.73l.41.41L69.5,625.42Zm18,30.51,21.49-3.08c3,.53,5.07,3.54,7.17,5.12l21.08,16,.62.82-19.86,5.53Zm87.82,33-6.75,1.22-10,2.05-36.85-10.24v-.2l18.43-5.32,35.21,12.28Zm2.87-1-35.62-12.49c-.48-2.21.89-6.22,1.63-8.39,2.83.87,3.61,2.1,5.53,3.48,3.12,2.24,20.1,8.9,25,8.8l3.48,8.4Zm3.07.41-3.69-8.6c2.51-.83,5.47.34,7.37-1.43l5.74.2,4.5,1.85,3.68-1.64,20.68.82Zm36.23-10.64,5.53-.41h2.66l.62.82Zm23.34-23.75L213,648.35l-1.23-1L223,620.71l5.33-2.46C229,618.76,225.76,624.23,225.09,625.42Zm-2.25-7.37q-3.27-17.4-6.55-34.8,3.68-5.94,7.37-11.88L229.39,615Zm6.76-29.69v-2.45c.47.75,1,1.5,1.43,2.25l.41.41Zm3.89-.2-3.69-6.35,14.54-20.06c1.11,4.07-9,21.58-10.45,26.2Zm4.7,4.5v.41l-2.86-2.86,7.16-17.4C243,574.79,239.32,590.28,238.19,592.66Zm2.05,3.28,11.87-.62h2l12.69,24C256.91,614.36,246.65,604.39,240.24,595.94Zm18,3.68c8.15,6,13.38,16.77,16.17,28C268.16,620.92,262.35,608.4,258.26,599.62Zm41.55,93-27.84-62c.21-.75.41-1.51.62-2.26q2.15,3.18,4.3,6.35l15.35,15,7.37,13.3,4.3,7.17Q302,681.3,300,692.57Zm28.26,44.22h-.21l-26.61-41.36q2.14-11.56,4.3-23.13c4.08,3,22.2,17.89,23.33,21.9Zm23.74,42.58L329.7,739.65q.42-20.88.82-41.76,9.63,19.44,19.25,38.9L352,779.37Zm2.25,3.89q-1.21-21.19-2.45-42.38l11.87,23.34,13.72,26.61q3.89,19.54,7.78,39.1Q369.52,806.61,354.06,783.26Zm33.58,50.56-8.19-40.94L428.79,833q8.81,19.14,17.6,38.29Zm61.21,38.69L431,833.21l79,10.85q12.39,19.65,24.77,39.3l.41.41Zm158.25-13.1-69.61,24.16q-12.59-19.86-25.18-39.72v-.2l84.55-25.18c2.86.94,6,5.73,7.78,8l23.34,25C628.75,852.71,610.46,858.22,607.1,859.41Zm23.75-9-.41.21Q614.87,834,599.32,817.44c1.17-4.18,10.74-13.87,13.71-17.81q17.72-22.71,35.42-45.44l32.35,27.63Zm76.36-128.76q-12.5,29.26-25,58.55l-32.14-27.64-.21-.41q18.43-29.07,36.85-58.14l28,8.6C715.08,703,708.32,719.22,707.21,721.64Zm8.59-21.29L688,692q7.78-20.16,15.56-40.33c6.57,1.28,11.25,5.24,19,5.12Q719.19,678.54,715.8,700.35ZM697,647.73v-.2l15.76-2.66c5.16,1.39,8.37,7.44,13.11,9.62l.4.61C713.83,654.66,707.19,649.44,697,647.73Zm31.12,5.73q-6.26-4.8-12.49-9.62c-1.09-2.76,2-19.52,2.46-24.15l16.78,10c1,2.18-6.13,19.24-6.55,23.74Zm34.59,1.85-31.93-.41q3.59-11.88,7.16-23.75l30.51,4.71h.41Zm37.47-25.18c-1,2.38-1.91,4.77-2.87,7.16l-31.73,17.4h-.2l6.14-18.42,33.37-17.61C805.36,619.34,800.88,628.42,800.15,630.13ZM772.31,633q1.23-30.39,2.45-60.8l29.89-17.4c1.17,1.34.59,13.76.62,16.79q.4,22,.82,44Zm32.55-202.87q.2,21.9.41,43.81l-29.48,13.71h-.21L773.33,417l31.12-10.44C806.22,411,804.66,423.39,804.86,430.12Zm.2,46.47v75.54l-29.89,17.19V545.78q.32-27.94.62-55.89Zm-.41-72.27-31.32,10.24q.72-23.64,1.43-47.29l31.53-8.81Q805.47,381.4,804.65,404.32Zm-30.09-39.51q-4.41-17.61-8.8-35.21L801,322.23h.61Q804,339,806.49,355.8ZM804,323.05v-1.44l18.63-5.11h.82l3.27,25.38-17.4,12.28-.41.41Q806.49,338.82,804,323.05Zm26.41,59.57-.21,28.25q-.19,17.29-.41,34.6l-22.11,26.41q-.4-33-.82-65.92ZM807.52,620.1l-.41.2L818,599.83C818.28,603.3,809,615.5,807.52,620.1Zm1.43-8-.41.21-1-59.37,14.12-28.25,1.44,61.82Zm17.81-28.25h-.2q2.15-5.62,4.3-11.26C831.88,576.56,827.8,580.7,826.76,583.86Zm-1.43-3.28V581q-.21-9.4-.41-18.83l-1-42.17q.61-5.43,1.22-10.85c2,2.7,1.69,13.63,2.46,17.81l4.71,36Zm8.19-10.23h-.21L838,540.46l2.25,19.65-6.75,9.83Zm1.64,2,8-11.67,4.09-1.64C847,560.48,837.05,570.91,835.16,572.4Zm14.74-16.79-6.76,2.86h-.21L839.66,531q5.33-6.54,10.64-13.1Q850.11,536.78,849.9,555.61Zm2-.82q.42-18.93.82-37.87l24.57,5.32h.41l-8,26.2Zm18.84-3.69c.06-.13.13-.27.2-.4h.41Zm25.59-8.8c-.78.78-21.63,5.59-24.16,5.73l8.19-25.79,23.75-7.78Q900.25,528.38,896.37,542.3Zm22.11-18.63-19,16.79q3.78-13.51,7.57-27l19.25-15.56c.71,1-3.08,10.52-3.69,12.49Zm18.42-42.58c-3,9.78-7.87,17.27-10.64,26.41h-.21c3.06-11.44,8.94-20.6,12.08-31.12Zm6.35-47.7q-.42,14.24-.82,28.46l-12.28,27.63v.41c-1.61-2.26-.33-18.53-1-22.92l-1.23-32.15q8-10.63,16-21.29Q943.56,423.46,943.25,433.39Zm1-54.66q-.21,15.76-.41,31.53l-16.17,21.08-3.07-55.27c.42-3.15,16.68-14.37,19.65-17.81Zm-19.86-6.55q-1.42-27.53-2.86-55.07l16.37-16.38h.41q3.18,27.12,6.35,54.25Q934.56,363.59,924.41,372.18Z"/></svg>