<svg id="Layer_1" data-name="Layer 1" xmlns="http://www.w3.org/2000/svg" viewBox="0 0 1000 1000"><defs><style>.cls-1{fill-rule:evenodd;}</style></defs><path class="cls-1" d="M988.46,624.29v-.43l-8.73-6-14.7-9.8-18.33-20-19.6-11.93-6-8.73c-6.77-9.62-12.94-20-20-29.62L887,521.37,874.9,510.29c-1.07-2.48-2.13-5-3.2-7.45L857.43,474.5l-12.79-6q-4.47-6.7-8.95-13.42l-9.8-8.31-4.9-7.25-3.2-4.05q-1.38-11.82-2.77-23.65l-7.67-7.67c-5-6.32-7.78-14.62-14.7-19l-17-4.9-4.48-6-7.24-7.45c-2.48-3.9-7.24-17.41-8.1-22.38l-10.23,1.92c-6-4.53-11-14.6-15.34-21.09l-5.11-4.05L721.27,313l-6.6-10.65L697,301.27l-9.8-1.06c-11.79,2.32-20.75,6.38-34.3,6.39l-6,.21L627.1,300l-5.76-2.55c-13.83.41-25.2,5.91-39.63,3.19-9.61-1.81-17.64-7.19-29.83-7l-6.18.43c-9.37,1.47-21,0-30.89,0l-15.34,1.27-12.57,4.91-21.52-1.28-6.4-.64L446.41,303l-14.06.21a67,67,0,0,0-6.73,2.32c2.39-.47,4.9-.8,6.3-1.47h.64c-.28,1.56-.56,3.13-.85,4.69l-12.78,1.92c.35-.93.71-1.85,1.06-2.77a4.25,4.25,0,0,1,1.93-1.37,11.84,11.84,0,0,1-3.85.09l-11.71-1.28-14.49-6.18c-7.19.78-17.3,7.34-25.36,7.67l-13.42-2.56-12.79.43-4.9-3.2c-3.37-1-14.5,4.11-17.89,4a65.88,65.88,0,0,1-17.44-2.91l6.57,2.49-10.44.21,2.47-3.09L298,302l-2.87,3.28c-3.95.73-8,.08-12.14,0l1.92-5.75,11.62,2.06a91,91,0,0,0-12-2.7l-1.92,6.39-7-.43c-3.7,1.1-17.2,15.52-18.75,19q-1.6,5.33-3.2,10.65c-2.72,4.76-9.33,6.74-12.14,11.51q-4.69,9.9-9.38,19.81-1.8,5.22-3.62,10.44l-6.6,7.46c-5,6.55-10.1,12.67-15.13,19q-2.24,2.78-4.48,5.54l-9.8,3.2c-7.6,3.66-13.58,8.36-17.73,15l16.24-5.21c.51.92-2.39,5.45-3.19,6.82q-1.4,3.09-2.77,6.18l-14.92,9.16-.64-.21q2.33-7.86,4.63-15.72a45,45,0,0,0-5.27,15.72L153,442.11q-5,6-10,11.93-3.94,9.38-7.88,18.75-11.84,12.78-23.65,25.57l-8.1,21.95c-1.54,2.59-14.19,13.48-17.26,14.7l-17.9,7q-7.14,9.9-14.27,19.82-4.26,15.33-8.53,30.68-2.86,4.37-5.75,8.73a249.08,249.08,0,0,1-16,23.23L13,637.07l-1.49,1.49c.8.6.42,0,.64.85l26.42-2.77,31.74,2.56c4.77.75,10-1.12,14.07-1.92,7.87-1.55,15.5-1.65,23.86-3l49.65-3.84,26.84-7.88,18.33-1.06A143.52,143.52,0,0,1,226.83,620c-4.89-.14-9.45-.36-11.81-.37l10.86-21.31,29,.85q-4.89,10-9.8,20c-1.71.77-6.5,1-11.86.92,16.43.53,33.08,2.35,48.94,1.85,13.17-.42,26.48-.64,40.05-.64l16.84.22,32.38,10,30.68-2.34,30.9,5.32,44.1.86c9,1.42,18.7.4,27.28,1.91,8.87,1.57,22.55,4.05,33.24,2.35l47.72-.64L619,636.43l16.62-.64,21.31-1.06,17.26-1.07,21.3-.64c6.2-1,13.7-.44,19.18.43l12.14.64,11.08.85,31.54-3.41,34.94-10.87,24.5-.21c6.7-1.06,15.54-.35,22,.64l25.57,1.28,8.52.21c8.07,1.29,17.35.6,24.93-.64l19.18-1.7,11.29.21h20.24l27.27,4.47C987.7,624.1,987.57,624.44,988.46,624.29Zm-26.2-17.69-19.61-9.37q-8.08-7.58-16.19-15.13l20,7.24ZM316.44,307.45l-1.7,3.83-3.84-.85h-.43v-.21Zm-5.33,1.92,2.13-2.13,2.13-.22Zm188.14,2.34v3.2l-13.63,6.6.21-5.11C490.33,314.83,493,311.9,499.25,311.71Zm-13.42,4.05c.14-.71.28-1.42.43-2.13l3.41-.64h1.06v.21Zm28.34-10.87,13.21-1.49h.21c.07,1.35.14,2.7.22,4.05l-3.2.21H514.38l-.21-1.06Zm-.21-4.26,13.21-1.49.42,3.62L514.17,304Zm69.67,8.95-.21.43c-.07-.5-.14-1-.22-1.5h1.5C584.34,308.87,584,309.23,583.63,309.58Zm1.49-.85v.85l-.85.21Zm.43,1.28c.28,1.27.57,2.55.85,3.83l-13.64-1.28-1.27-2.34,5.11-.85C580.85,309.42,582.29,311.53,585.55,310Zm136.36,41.33,8.1-1.49,2.77,3.62.64.64-16.19.64-3.84-6.6C717.15,348.25,718.93,350.88,721.91,351.34Zm-4.9-3.19a2,2,0,0,1,1.49.85C718,348.71,717.51,348.43,717,348.15Zm10.23.21-5.11,2.13-3.2-2.34h8.31Zm1.28,0,.85.21.21.64-4,.64v-.21Zm1.28-.21,3.83.21-3.19.64ZM151.52,544q5.86-6.83,11.72-13.64l21.74-4.9-9.81,13.85C172.56,541.05,155.88,543.74,151.52,544Zm20.88,3.83q-2.55,9.71-5.11,19.39l-24.93,2.35,8.1-24.29L173.68,541C174.34,541.9,172.88,546.09,172.4,547.79ZM543.36,320c.28,3.69.57,7.39.85,11.08l-14.27-3.41q-.23-4.05-.43-8.1Zm-14.28-6.18,13.85,2.35c.22,1,.43,2,.64,3v.21L529.51,319C529.37,317.25,529.23,315.55,529.08,313.84Zm160,17.9-13.42-1.92-2.13-8.95C680,322.87,686.7,325.45,689.1,331.74ZM673.55,320l9.58.64c.86,1.56,1.71,3.13,2.56,4.69ZM257.42,502.84l23.44.63v.22l-6.18,16.4-26-7.45Zm-9.59,9.37-26.21-5.54,9.59-10.23,25.36,6.18Zm435.3-156.39c1.63.74,2.9,4.75,3.63,6.39-6.46-.25-16.31,0-19.39-3.84h-.43c1.38-.52,3.73,0,5.11.22C677.22,359.43,680.33,358.2,683.13,355.82Zm-5.54.42,3.2-.64.85.22-3.19,1.7c-.15.14-.29.29-.43.43C677.88,357.38,677.74,356.81,677.59,356.24ZM313.88,495.8q2.67-6.06,5.33-12.14l17.47-.64h3.62v.21L336,496Zm21.31,1.07-5.75,6-22.59.21,6.39-6.39Zm-15.55-14.06,4.47-12.36,20.88.21v.21l-4.26,11.3ZM449,353.26c-.14,1.85-.28,3.69-.43,5.54L433,357.1h-.43c.22-.57.43-1.14.64-1.71C438.07,354.57,443.84,353.72,449,353.26Zm-14.28.85.43-.42.64.21-.43.43Zm13.43-4.05h1.28v.22c-.08.71-.15,1.42-.22,2.13l-13,2.13C437.7,351.42,445,351.7,448.12,350.06Zm-11.3,2.56c.22-.85.43-1.7.64-2.56l7.89.22Zm14.07-.43-1.07.22c.07-.57.14-1.14.22-1.71C450.32,351.2,450.6,351.7,450.89,352.19Zm-.43-2.13h1.71v.22c-.22.35-.43.71-.64,1.06v.43Zm15.34,3.2q-.32,3.3-.64,6.6l-16-.85q.33-2.76.64-5.54C451.22,352.11,462.64,353.2,465.8,353.26Zm50.93,53.27.42,3.83-18.75,1.28h-.21l.21-2.13C504,408.23,511.15,405.82,516.73,406.53Zm-18.33,2.13.21-7.25,14.49,4.27-14.49,3Zm53.06-28.77-17.05,5.33q-.21-5.22-.43-10.44C538.39,375,550.63,376.64,551.46,379.89Zm-17.48-6v-.64l4.48,1.06Zm145.11,91.19-4.9-7.88,20.88.64,5.11,8.52.43.43ZM707,478.76l-22.16-.64L679.72,466l20.89,1.92C702.24,468.53,706.09,476.75,707,478.76ZM350.1,456l4.27-7.88,19.39-.43q-1.61,4.8-3.2,9.59Zm20.25,1.92v.21q-1.61,6.29-3.2,12.57L346.27,470q1.82-6.7,3.62-13.42Zm275.28-4.69c-1.27-1.85-2.55-3.69-3.83-5.54l19.6.85,4.48,3Zm21.52-.64,4.9,3.62c.08.14.15.29.22.43l-21.52,2.77L646.49,454l19.17-1.49Zm-245-83.31,5.76.43-1.5,8.73c-1.26,1-14.29-1.33-17.25-1.49.63-2.41,1.27-4.83,1.91-7.24ZM411.47,369l1.92-3.63,10.22,3Zm34.09,2.77V372c-.43,1.78-.85,3.55-1.28,5.33-1.69,1.52-12.32.76-15.34,1.49h-1.7c.42-3,.85-6,1.27-8.95C432.82,371.54,440.32,371.71,445.56,371.8Zm-14.49-1.92.21-.43,3.2.43Zm125.07,40.27L573.83,414q.85,5.44,1.7,10.87a45.89,45.89,0,0,1-5.69-3.1c3.41,2.42,6.38,5.05,7.61,7.58l-18.54-5.54c-.42-3.13-.85-6.25-1.27-9.38,2.09,1.14,5,2.71,7.91,4.52C561.18,415.88,557,412.4,556.14,410.15Zm-19-7.67c5.64,1.76,17.33,5.49,19.39,10.65l-18.75-2.55C537.61,407.88,537.39,405.18,537.18,402.48Zm.64,19.18-19.39-1.5q-.21-4.37-.43-8.73v-.21l19.18.21C537.39,414.84,537.61,418.25,537.82,421.66ZM593,415.05q.94,5.22,1.91,10.44l-18.75-.21q-.74-5.55-1.49-11.08Zm-18.54-1.7q-.75-3.09-1.49-6.18l17.68,2.13,1.92,4.68v.22Zm19.39,1.91a83.1,83.1,0,0,1,20.88,4.05l-19.18,6C595,421.94,594.43,418.6,593.86,415.26Zm-.43-.85-2.13-5.11,17.05-1.92h.85l2.13,9.37ZM609,406.74l-17.9,1.7-1.71-9.16,17.26,1.49q1.17,2.88,2.35,5.76Zm-19.82-8.1c-.57-2.41-1.14-4.83-1.7-7.24l16.61,1.06,2.14,7.46Zm-1.92-8.09c-.57-2.28-1.13-4.55-1.7-6.82l16.4.85,1.92,7.25Zm1.07,7.88-17.05-.85c-.42-3-.85-6-1.28-8.95l16.62,2.56Zm.21.85,1.71,8.53v.63l-17.48-2.13q-.74-4-1.49-8.09Zm-16.62,6.61-16.62-7.46c-1.15-.75-1.54-3.92-1.7-5.54l16.62,5.33C571.39,399.36,571.79,403.93,571.91,405.89Zm0,1.06,1.92,6.4-17.9-4.05c-.35-3.34-.71-6.68-1.06-10Zm-16.83,1.92-16.62-6.6v-.22l14.7-3H554C554.37,402.34,554.72,405.6,555.08,408.87Zm21.52,17.26,18.32.21c.86,1.49,1.71,3,2.56,4.48l-19.18-1.28C577.74,428.4,577.17,427.27,576.6,426.13Zm19.39.21,18.75-6.18c1.93,1,2.54,7.37,3.19,9.59l-19.38,1.07C597.69,429.33,596.84,427.83,596,426.34Zm20.67,4.26h1.49l3,7.89v.21l-19-2.56c-1.53-.55-2.46-2.93-3.2-4.26Zm2.34,0,18.75,2.77q1.38,6.61,2.77,13.21L622,438.91Zm-.21-.85q-1.29-4.89-2.56-9.8l18.54-2.77c1,.63,2.73,13.15,2.77,15.56Zm14.91-13.21c-3.11,1.41-18.33,3-20,1.28h-.42l17.68-2.34,2.77.85Zm-21.31.43-2.34-9.59,17.26,1.92c1.14,1.84,2.27,3.69,3.41,5.54Zm-2.77-10.44-2.34-5.76h17.47c.85,2.63,1.71,5.26,2.56,7.89Zm14.71-6.61H607.07l-2.13-7.24v-.22L615.8,392H622c.78,2.56,1.57,5.11,2.35,7.67Zm-2.77-8.73-16.84.64-2.13-7.25h16.62l2.35,6.39Zm-19.18-7.25-1.92-7,16-4.05c1.21.47,2.37,9.1,2.56,11.08Zm14.7-11.72-16.62,4q-.63-6.5-1.28-13l16.41-5.54q.75,6.82,1.49,13.64Zm-17.47,4.26H583.42q-.64-5.1-1.28-10.22l15.13-2.56h1.06Q599,370.09,599.61,376.48Zm.21.64,1.92,6.61v.21l-16.41-.85q-.84-3-1.7-6Zm-13.42,13v.21l-16.83-2.55-1.28-3.63,15.55-.42h.86Q585.54,386.93,586.4,390.12Zm-17.47-2.77c-3-1-16.23-6.73-17.26-9l16,5.75C568.08,385.22,568.5,386.29,568.93,387.35Zm0,.85c.5,3.06,1,6.11,1.49,9.17l-17-5.33q-.42-5.76-.85-11.51Zm-14.92,10c-6.06,1-11.74,3.25-18.32,3.19-.21-.49-.43-1-.64-1.49l17.26-7h.21C553,394.67,553.52,396.44,554,398.22Zm-17.89,4.26h.21q.31,4,.64,8.1l-19-.22-.21-3.83ZM518,430.6l-20,.22V421h19.6Zm0,.86q.12,5.22.22,10.44l-20.46-.43v-9.8Zm-20.45-22.8-18.32-2.77.42-11.93,18.11,7Zm-72.44-22.37c1.85-1.76,14-.88,17.47-1.71-.43,2.7-.85,5.4-1.28,8.1L424.89,394H423.4ZM422.55,394l-17.9.64,1.92-9,17.68.21v.21Q423.41,390,422.55,394Zm20.88-9.38,17.68.64c-.35,2.49-.71,5-1.06,7.46H441.94C442.44,390,442.93,387.28,443.43,384.58Zm.21-.64c.43-1.77.86-3.55,1.28-5.32l17.05,3,.21.21-.85,2.56Zm-.85,0L425.32,385v-.22c.57-1.7,1.14-3.41,1.7-5.11l16.62-1.28h.43C443.64,380.25,443.22,382.1,442.79,383.94Zm-18.11.85-17.9.22,2.13-7.46,17,1.92.21.42C425.67,381.53,425.18,383.16,424.68,384.79Zm-18.54,0-17.26-.64h-.42L391,378l15.35-.43h1.7Zm-.21.86-2.13,9-17.9,1.06L388.24,385Zm-2.77,9.58c.54.76-.32,2.11-.64,3.2-.43,1.63-.85,3.27-1.28,4.9L383.13,405l2.56-8.53Zm1.06.22,14.07-.64h4l-1.71,8.73-18.54-.21Zm19-.22c2.06-2,12.39-.46,15.77-1.7h2.13v.21l-1.5,7.46-18.32,2.34Zm18.75-1.7h18.11c-.36,3.2-.71,6.39-1.07,9.59l-18.53-1.92C440.94,398.64,441.44,396.09,441.94,393.53Zm18.75,0,18.11.21q-.21,6-.43,11.94l-18.32-2.35-.21-.21C460.12,399.92,460.4,396.73,460.69,393.53Zm.21-.85c.29-2.49.57-5,.85-7.46l17.69-.43c-.14,2.7-.29,5.4-.43,8.1Zm1.07-8.1c.28-.85.57-1.7.85-2.56l17.26-1.49c-.14,1.14-.29,2.28-.43,3.41Zm1.28-3.62.63-8.1,16.62,1.49-.21,5.33Zm.21-8.95-9.16-.64,8.09-1.06h1.71v.21C463.88,371,463.67,371.51,463.46,372Zm-.21.64c-.29,2.77-.57,5.54-.86,8.31l-17.26-3.2c.43-2,.86-4,1.28-6Zm-54.76,4.05-17.05.42c2.63-9.91,8.6-4.1,16.83-7.24h1.92Q409.34,373.29,408.49,376.7Zm-18.11.64L373.76,379l2.55-6,15.34-1.5h1.28ZM390,378l-2.13,6.17-17.26,3.2c.85-2.41,1.7-4.83,2.56-7.24Zm-2.77,7-1.92,10.65-17.47,4.26,2.34-11.72ZM384,396.73h.86v.21q-1.29,3.94-2.56,7.88c-1.77,2.3-13.9,5.83-17.26,7.25q1.28-5.65,2.56-11.3Zm-2.55,9.58c.4.49-1.49,5.78-2.35,6.82l-17.68,7.46c1.06-2.56,2.13-5.11,3.19-7.67Zm-3,7.89q-.84,8.52-1.7,17L358,433.59q1.49-6,3-11.93Zm1.07-.22,18.32-2.76q-1,6-1.91,11.93l-18.12,7.67h-.21Zm.21-.85c1-2.41,2-4.83,3-7.24l16.62-1.71h1.5v.22q-1.19,2.76-2.35,5.54C397.57,411.14,382.48,412.83,379.72,413.13ZM401.88,404l18.54.43-2.13,6.6-19.18-.42C400,408.37,401,406.17,401.88,404Zm19.18.43,18.32-2.35c-.42,3.13-.85,6.25-1.28,9.38l-19-.21Zm19.17-2.56L458.56,404H459c-.35,2.34-.71,4.69-1.06,7l-19,.43C439.38,408.23,439.81,405,440.23,401.84ZM459.62,404l18.75,2.56c-.21,1.28-.42,2.55-.64,3.83l-19.17.64C458.91,408.66,459.27,406.31,459.62,404Zm18.75,7.46,18.54,1.06c1.17,1.27.31,5.82.21,7.67l-19.39.43C478,417.54,478.16,414.48,478.37,411.43Zm19-.21c-1.33,1-15.6-.61-19-.64.22-1.28.43-2.56.64-3.84l18.54,2.77Zm.21,46,20.88-2.77q.21,11,.43,21.94l-21.31-5.32Zm0-.85.21-14.28,20.46.43.42,11.29ZM518.43,421l19.39,1.49q.31,7.35.64,14.7l-19.6-6.39Q518.64,425.92,518.43,421Zm19.39-9.59,19,2.55q.65,4.69,1.28,9.38v.21l-19.39-1.7C538.39,418.39,538.1,414.91,537.82,411.43Zm.85,11.29,19.6,1.71c.43,2.48.86,5,1.28,7.45-.56,1-17.72,5.12-20.24,5.33q-.31-7.14-.64-14.28Zm20.24,1.92,18.75,5.75c1.15.82,1.78,3.11,2.35,4.48l-19.6-2.56Zm20,5.75,19,1.28,2.55,3.83.22.64-19.82-1.06ZM601.1,437c.85,2.7,1.71,5.39,2.56,8.09v.22l-20.24-1.92-2.13-7.46Zm.85,0,19.61,2.55q1.38,5.22,2.77,10.44l-19.82-4.47Q603.23,441.26,602,437Zm20.46,3c7.69,2.41,19.19,6.07,22.37,13.21l-19.6-3Q623.8,445.1,622.41,440Zm38.35,7.67-19.39-.85q-1.38-6.62-2.77-13.21l18.54,4.05q1.82,4.89,3.62,9.8Zm-4-10.87L638.6,433l-2.34-15.34,17,10.22q1.71,4.38,3.41,8.74ZM634.77,415.9,649.68,417q1.61,4.89,3.2,9.8Zm14.49.22-17.69-1.28q-1.59-2.77-3.2-5.54h17.69q1.59,3.3,3.2,6.6ZM628,408.66c-.85-2.63-1.71-5.26-2.56-7.89l14.28-.42h3l3,8.31Zm14.49-9-17.26.21c-.85-2.7-1.71-5.4-2.56-8.09L636.9,391h3l2.56,8.53Zm-20-8.52-2.34-6.61,15.76-1.92h1.07l2.55,7.46Zm-2.34-7.25q-1.07-5.74-2.14-11.5L635,364.55c1.74,1.92.88,14,1.7,17.47Zm-2.14-12.14h-.21q-.63-7-1.28-14.07l2.56-.21h13.64l2.55,6.18Zm14.28-15.13-16,.21-1.92-7.24,15.56,1.49,2.34,5.33Zm-16.62.21-16.83,5.75L597.05,358l16.41-8.31Zm-17.47,5.75c-2,1.54-12.79,2.61-16,3-.43-3-.85-6-1.28-8.95L596.41,358Zm-16.83,3L566,364.55c-.92-.58-1.29-2.16-1.71-3.19l16-4.69C580.58,359.65,580.93,362.64,581.29,365.62Zm0,.64q.74,4.89,1.49,9.8v.21l-15.34-1.92c-1.48-.84-1.61-6.87-1.71-9Zm1.7,10.86q.75,3,1.49,6l-16.4.21c-.36-2.7-.71-5.4-1.07-8.09Zm-15.77,5.12v.85l-16.4-6h-.43L566,375C566.37,377.41,566.8,379.82,567.22,382.24ZM552.73,392l-17.89,7q-.23-6.49-.43-13l17.26-5.75Q552.19,386.19,552.73,392Zm-17.89,9.37v.22l-17.47,3.19h-.22l-.21-4.9h17.47Zm-17.26,18.75H498l.21-7.67,19-1.27C517.29,414.2,517.44,417.18,517.58,420.16Zm-19.82-20-17.47-6.82c-1.19-1-.16-6.4,0-8.53l17.26,3.63C498.35,389.31,497.82,397.8,497.76,400.14Zm.22-12.58-17.48-3.41c.15-1.06.29-2.13.43-3.19,1.21-1.11,14.32-1.47,17.05-1.49Zm-17.26-13.85L464.1,372c.21-.57.42-1.14.64-1.7l16.19-6Zm-16.2-4.26-15.12,1.71-1.07-.22c.28-3.62.57-7.24.85-10.86,1.23-1.08,13.19.36,16,.42Q464.85,365,464.52,369.45Zm-17,1.49-16.2-2.13c.29-3.62.57-7.24.86-10.86l16.19,1.49Q447.91,365.18,447.48,370.94Zm-16.83-2.34c-6.07-.3-12.33-1.34-16.62-3.83-.76-.31,1.17-6,1.27-7.46l16.2.42Q431.06,363.18,430.65,368.6Zm-16-11.29L413,364.55l-16.62-3.19,1.92-6.4,16.41,2.14Zm-2.14,7.88c-.63,1.28-1.27,2.56-1.91,3.84L394,370.73l1.92-8.73Zm-19.17,5.33-16.62,1.7,2.34-8.31L394,362h1.28ZM376.1,372c-4.17.81-12.75-2.52-17.47-3.2q1.38-3.51,2.77-7L378,363.7l.21.21Zm-.64.85.21.22-2.55,5.75c-5.14,1.26-12.49-1.36-17.9-1.71,1-2.55,2-5.11,3-7.67Zm-3.41,7h.43c-.85,2.49-1.71,5-2.56,7.46l-16.41,8.52,1.71-18.11Zm-3,8.74c.63.52-1.79,9.44-1.92,11.51l-16.83,6.39q1.49-4.9,3-9.8ZM366.51,401c.28.31-1.67,9.56-2.34,10.86-1.22,1.1-15.11,1.06-17.9,1.07C350.82,404.33,358.65,405.72,366.51,401Zm-7.67,12.14h4.9v.22c-1.06,2.55-2.13,5.11-3.19,7.67l-18.75-.43,4-6.82Zm1.28,8.53q-1.49,6-3,11.93l-20.46-7,4.48-5.12Zm-2.34,12.78,18.32-2.56h.64q-1.28,7.35-2.56,14.7c-1.89,1.67-13.48,0-16.83.86h-2.56Q356.29,440.93,357.78,434.44Zm17,13.21,18.11-.85h1.49V447q-1.38,5-2.77,10l-20.24.21ZM375,447q1.19-7.67,2.35-15.34L395.49,424q-.44,11-.85,21.95Zm21.52-23.22,19.39-.43q-.84,7.77-1.7,15.55l-18.75,6.82Q396,434.77,396.55,423.79Zm.22-.64,2.13-11.93,19.17.63q-.94,5.44-1.91,10.87Zm21.94-11.08,19.18.21q-.64,7-1.28,14.06L417,422.93Q417.87,417.5,418.71,412.07Zm20,.21,19-.43c-.36,3.41-.71,6.82-1.07,10.23l-18.54,4.05h-.64Q438.11,419.2,438.74,412.28Zm19.82.21v-.64l18.75-.63c-.14,3.12-.29,6.25-.43,9.37l-19.17,1.49Q458.13,417.29,458.56,412.49Zm19.17,8.95,19.39-.42-.21,9.8-20-.43Q477.32,425.92,477.73,421.44Zm19.61,50.29,21.3,5.32q.33,8.2.64,16.41l-22.16-7.24Q497.23,479,497.34,471.73Zm21.52-40.06,19.81,6.39,1.07,3.41-20.24.43C518.26,440.21,518.79,434.2,518.86,431.67Zm20.88,10.65q.42,6.82.85,13.64l-20.88-2.13c-.14-3.76-.29-7.53-.43-11.29Zm-.22-4.26,20-4.9,1.71,7.88v.22l-20.67.21Zm21.1-4.9,19.81,2.77,2.13,7.25-20.45-1.92C561.61,438.56,561.12,435.86,560.62,433.16ZM582.78,444l2.13,9-21.1-.22q-.73-5.33-1.49-10.65Zm.85.21,20.45,1.92c1,2.34,2,4.69,3,7L585.76,453Zm21.31,2.13,19.81,4.48q1.5,5.43,3,10.86l-20-8.52C606.78,450.92,605.86,448.64,604.94,446.37Zm20.66,4.69,19.82,3,4.05,5.12.42.42-21.3,2.35Q627.09,456.49,625.6,451.06Zm24.72,9.16,3.84,4.26,1.06,1.07c-7.46,0-20.67,1.1-24.93-2.56l-.42-.21Zm1.28,0,21.31-3,5.11,7.24.21.64-21.73.43Zm21.73-3.83-4.47-3.63,22.58,3.84ZM687,454.68l-19.82-3-4.47-3-.21-.43,18.75-3h1.27q2.25,4.57,4.48,9.16Zm-25.36-7q-1.8-4.9-3.62-9.8v-.21l14.92-.43h4.47l4.26,6.6c.07.22.14.43.22.64Zm15.13-11.29-19.17.64-3.63-9.17,17.9-1.49,1.28.22q1.82,4.79,3.62,9.58Zm-23-9.16q-1.61-5-3.2-10l18.12,1.07,4,7.45Zm-3.62-10.87c-1.07-2.34-2.13-4.69-3.2-7H664.6q1.8,4.15,3.62,8.31Zm14.06-7.67H646.49l-3-8.31,17,.42c1.21,2.56,2.41,5.12,3.62,7.67Zm-20.88-9-2.77-8.95L658,385.65c1.15,1.21,2.28,11.86,2.56,14.27Zm-3-9.59q-1.39-3.72-2.77-7.46v-.21l16.83-4.69c1.79.82,3,5.44,3.83,7.25Zm-2.77-8.31h-.22q-.63-8.73-1.27-17.47l12.78-.64h3.83q1.08,6.71,2.14,13.42Zm-1.49-18.11q-1.29-3-2.56-6c5.45.42,15.06,1.86,18.11,5.12H652Zm-3-6.82-2.55-5.54L645.63,355c.78,1.5,1.57,3,2.35,4.48l.42.42Zm-2.77-6.39-2.13-8.74,15.13,1.5,2.13,10.86Zm-.64,0-15.55-1.7-1.92-6.4,13-.64h2.34ZM613.46,349l-16.62,8.1c-.5-2.92-1-5.83-1.49-8.74l15.77-5.75Zm-17.26,8.31-15.55-1.49-1.49-2.13,15.12-5.33C595.82,349.83,595.62,355.07,596.2,357.31Zm-17.26-4.26h-.21c-.43-2.2-.85-4.41-1.28-6.61L591.94,343h.64l1.92,4.48Zm.64,2.34.21.64L564,360.5c-.36-1.42-.71-2.84-1.07-4.26l14.92-2.34Zm-14.7,9.38-16,2.13c-.28-1.57-.57-3.13-.85-4.69l15.13-.85Zm.21.63c.29,3,.57,6,.86,9l-16.2,1.92c-.28-2.84-.57-5.68-.85-8.52ZM534.2,399.28l-17.26-.21-.21-10.23,17-2.55Q534,392.79,534.2,399.28ZM498,378.83l-17.05.85c.21-1.7.43-3.41.64-5.11l16.62-1.28Zm-32.82-9.59q.33-4.37.64-8.74l15.77,2.77Zm-32.6-13.85c-.28.57-.56,1.14-.85,1.71l-15.34-.64v-.22c1.9-.69,5.25-.44,7.46-1.28l8.73.22Zm-33.88-1.06q1.08-2,2.14-4.05l15.55,4.9.21.42C412.24,357.27,404,355.05,398.68,354.33Zm1.92-5.12-16.19-1.7,2.34-5.76,15.56,2.77v.22Zm-16.83-1.7h-8.1l9.8-5.33C386,342.88,384.18,346.06,383.77,347.51Zm.43.85,15.55,1.7.21.22c-.64,1.35-1.28,2.7-1.91,4.05l-15.35,5.32h-.21Zm13.21,6.82-1.92,5.54c-1.47,1.44-12.84,1.87-15.77,2.34C383.32,358.18,392,358.25,397.41,355.18Zm-18.54,7.88-17.05-1.92q1.4-3.09,2.77-6.18l16.84,5.33C380.57,361.21,379.72,362.14,378.87,363.06Zm-17.69-2.56c-1.73,1.7-12.95.93-16.19,1.71l2.77-7,13-.43H364Q362.57,357.63,361.18,360.5Zm-2.13,1.28h1.71c-.92,2.28-1.85,4.55-2.77,6.82l-16.83.43q1.69-3.09,3.41-6.18Zm-10.22,7.67h8.73c-.92,2.49-1.84,5-2.77,7.46l-16,6.61h-.21l2.34-13.85Zm5.54,8.53-1.5,18.11-17.25.64q1.38-6.18,2.77-12.36Zm-6.18,19h4.47v.21l-3,9v.43l-18.33-3v-.21l3.84-5.75Zm.85,10.23.21.21-3.83,5.54-18.33-.21,3.63-8.53Zm-4.26,6.6-3.62,6.82L323,424.21l3.63-10.65Zm-5.12,7.89c.91,2.8-17.38,11.74-21.09,13.42l4.05-9.59Zm17,12.35c.74,4-2.34,9.14-2.77,13.43l-19.82-.64q1.06-9.81,2.14-19.6Zm-3.2,14.07-3.83,7.45-20,2.77,4.26-10.65Zm-5.75,8.73H349q-1.82,6.49-3.62,13H324.54l4.68-10.65Zm-1.7,13.85,20.66.64v.21q-1.91,5-3.83,10l-21.31.64Q343.82,476.41,346.06,470.66Zm21.73.64,20-2.34q-1.38,5.85-2.77,11.72l-21.31.85Zm.21-.85q1.61-6,3.2-11.93v-.43l3.19-.21h17.05q-1.49,5.12-3,10.22Zm24.08-12.57,18.75-9.8c.72.83-1.58,9.08-1.92,11.08l-19.39,8.52h-.21Q390.69,462.78,392.08,457.88Zm.43-1.28,2.55-9.59,18.75-7.24c.25,1-1.4,6.36-2.34,7.24Zm22.37-17.05,19.17-2.13h.64q-.74,6-1.49,11.93L412.32,447C413.17,444.53,414,442,414.88,439.55Zm.21-.85,1.71-15.13L436.61,427c-.57,3.2-1.13,6.39-1.7,9.59ZM437.25,427l19-4.05c-.28,3.13-.56,6.25-.85,9.38l-19.6,4.26C436.26,433.37,436.75,430.18,437.25,427Zm20-4.05,18.32-1.49h1.28c-.28,3-.57,6-.85,8.95l-18.32,1.71h-1.5C456.57,429,456.92,426,457.28,422.93Zm19.6,8.31,20,.43-.21,9.8-20.46-.21Q476.57,436.25,476.88,431.24Zm20.24,55.83,22,7q.31,6.5.64,13l-22.8-1.71Zm22.38-32.6,21.3,2.34q.44,6.39.86,12.79l-21.95,6.81ZM541.44,456q-.32-6.82-.64-13.64l20.67-.21q.75,5.33,1.49,10.65V453ZM563,453.83l1.71,11.08-22.16,4.26q-.43-6.18-.85-12.36Zm1.07-.21,21.09.21q1.17,5.64,2.35,11.29h-22Q564.77,459.38,564,453.62Zm21.94.21,21.31.21q1.38,5.32,2.77,10.66v.63l-21.73-.21Q587.15,459.48,586,453.83Zm22.16.43L632,464.91l-20.88.42Q609.62,459.79,608.13,454.26Zm3.2,11.93,5.54-.22h16.41q1.8,6,3.62,11.94H614.31q-1.48-5.76-3-11.51Zm22.8-.22,21.73.43,3.84,15.13L638,478.12Q636,472,634.13,466Zm22.58.43,20-.43h2.13q2.46,6,4.9,11.94v.21l-23.22,3.41ZM683.13,479h1.07q2.65,6.39,5.33,12.79l-23,3h-1.06q-2.24-6.28-4.48-12.57Zm2.13,0,22.38.64,6,12.15V492l-23.22-.21Q687.82,485.36,685.26,479Zm23.23.85c13,2.9,22.7,3.1,27.49,14.71l.63.63L714.67,492Zm-.21-1.06c-2.58-1.84-4.83-8.12-6.18-11.08L723.83,466H724q2.46,9,4.9,17.9ZM701.88,467l-5.75-9.16,20.46,1.49,6.81,5.54.22.42Zm-8.73-10.87,17.47,1.71C708.57,458.57,694.91,457.11,693.15,456.17ZM688,454.89l-4.68-9.58,19.17,2.13,5.12,9.16Zm-5.11-10.44c-1.56-2.41-3.12-4.83-4.69-7.24l19,.85,4.68,8.52Zm-5.33-8.09q-1.9-5-3.83-10l19-4.47h.64l3.41,15.34Zm-4.26-10.87-3.83-7v-.21l17.9-3.2h1.06l4,5.54.64.64Zm-4.47-8.1c-1.14-2.62-2.27-5.25-3.41-7.88l15.77-1.28h2.34L687.4,414l.42.43Zm14.06-10L665,408.66q-1.69-3.95-3.41-7.89v-.21l17-3.19c2.18.68,3.51,7.6,4.26,9.8Zm-21.52-7.46-2.34-14.49,17.9-5.32h.21l2.13,16.62Zm-2.56-15.13-3.19-7.45,17.47-6.4c1.92.92,3.19,6.53,4,8.53Zm-3.41-7.88q-.95-6.71-1.91-13.42l16.83-1.71c1,2.84,2,5.68,3,8.53Zm-2.55-14.06-2.35-1.92h-.42l15.55-2.56,3.62,2.35c.08.14.15.28.22.42Zm-3.62-2.77-2.77-4.9,16.83,3Zm-3.2-5.75-1.92-10.87,15.13,1.06,1.92,12.36Zm-2.13-11.72L641.59,336v-.21l4.9-.21h10.22l2.35,8.3Zm-.85,0-14.92-1.5-2.56-4,13.85-1.28H641Zm-16.2-1.92.43.42-15.55.64-1.92-4,7.46-.43H625Zm-15.76,1.06-16,5.54-1.71-4.47,15.13-5.11C610,338.37,610.25,340.5,611.12,341.75Zm-17.48.22h-.21c-.42-3.55-.85-7.11-1.28-10.66l14.28,1.07c1.25.63,1.82,3.16,2.34,4.47Zm-1.06-1.07v1.49l-15.13,3.41c-.35-3.62-.71-7.24-1.06-10.86l14.48-3.63h.64C591.87,334.51,592.22,337.71,592.58,340.9ZM576.81,346l-14.91,2.77h-.22c-.35-2-.71-4-1.06-6l14.7-7.46C577.05,337,576.21,343.48,576.81,346Zm-.42.63c1.12,1,1.51,4.86,1.7,6.61L563,355.39q-.63-3-1.28-6Zm-14.28,8.53v.21l-15.13.43c-.28-2-.57-4-.85-6l14.49-.43C561.71,350.39,561.71,353.61,562.11,355.18Zm-.21.85q.74,2.34,1.49,4.69l-15.56.85c-.28-1.7-.56-3.41-.85-5.11Zm-13.85,11.08-15.77,1.7q-.21-2.87-.43-5.75l15.13-.85h.22C547.48,363.84,547.76,365.48,548.05,367.11Zm-.43.64h.64c.28,2.84.57,5.68.85,8.52-5.66-.46-10.67-2.41-15.55-4-1.2.15-1-1.55-1.28-2.77Zm-14.27,6.82.42,10.65v.21l-17,2.77q-.22-4.89-.43-9.8l13.42-4.26Zm-17.05,3-.21-5.33L528,373.93Zm0,23.65V405c-3.79.28-14-2.76-17.26-4.48h-.43V388.84l17,10.44C515.87,399.92,516.09,400.56,516.3,401.2Zm-32.39-37.93,14.7-.42v4.47C493.28,366.39,488.75,364.09,483.91,363.27ZM498.4,369l-.21,3.62-16.62,1.06c.14-3.12.28-6.25.43-9.37C487.8,365.75,493.14,367.71,498.4,369Zm-15.77-7-11.29-7.89,11.51,2.13.21.22C482.92,358.3,482.78,360.15,482.63,362Zm-.63.63-16.2-2.77q.33-3.3.64-6.6C470.78,353.59,479.48,360,482,362.63Zm-15.56-10.44.43.43C466.46,352.32,466.74,352.6,466.44,352.19Zm1.07-.85a16.86,16.86,0,0,0-6.4-1.06l3.63-.43h3Zm-1.71,0v1.28L452,352.19l1.07-2.13Zm-13.21-2.13-14.91.21c.35-1.77.71-3.55,1.06-5.32l14.7-.22Q453,346.55,452.59,349.21Zm-15.55.21-14.92-.21q.75-2.76,1.49-5.54l14.49.43C437.75,345.87,437.39,347.65,437,349.42Zm-.22.64v.22c-1.72,4.7-10.65,4-16.4,3.83l1.49-4.26Zm-17,3.84-14.49-8.52,16,4.47Zm-.85.64c-5.88.67-12.47-3.51-17.9-4.9L403,345Zm-31.54-13.43H387l2.13-3.83,13.21,6.6Zm-13.21,6.18h-1.92l1.5-8.31,14.7-1.7C385.44,342.51,379.72,344.71,374.18,347.29Zm9.38.86-1.71,11.5L365,354.33q1.28-3.09,2.56-6.18C372,349.33,376.63,348.18,383.56,348.15Zm-19.39,6-15.77.22,2.77-6.18h15.77Q365.54,351.12,364.17,354.11Zm-12.36-6.82,2.77-3.41,10.23,3.2Zm-16.41,1.92c1-2.48,2-5,3-7.46l15.55,1.92C350.73,348.42,342.64,348.69,335.4,349.21Zm14.28-1.06h.85l-3,6.18-16-.22C336.53,347.1,341.66,351.29,349.68,348.15Zm-2.56,7-3,7-16.62-1.07,3.41-6.39Zm-3.41,7.67Q342,365.94,340.3,369l-16.83-.64q1.81-3.19,3.62-6.39Zm-6.6,6.82h3L338,383.73l-16.41,2.34,1.71-17Zm-.43,14.91h1.07q-1.39,6.07-2.77,12.15L317.72,398q1.69-5.43,3.41-10.86C323.17,385.13,333.36,385.87,336.68,384.58Zm-3.62,13h1.49c-1.21,1.77-2.41,3.55-3.62,5.33-3.27,1.54-13.36,1.92-17.69,1.91l3.84-5.75Zm-4.69,6.6h1.71l-3.63,8.31-17.89,2.77q2-4.78,4-9.58Zm-2.77,9.38q-1.69,5.43-3.41,10.87L303,421.87C309.37,412,315.34,417.7,325.6,413.56Zm-3.83,11.5v.22l-4,9.8c-1.79,1.74-13.5,1.11-16.83,1.92H299q1.69-7.25,3.41-14.49Zm13.42,2.35-1.92,19.39-19.39.21C317.34,434,324.33,432.54,335.19,427.41Zm-10,20.24h7.88L328.8,458.3,307.28,453v-.22q3-2.44,6-4.9Zm3.19,11.51-4.47,10.22-22.16-4.05,4.9-11.71Zm-5.11,11.08q-2.24,6.17-4.48,12.35l-21.73.22L301.31,466Zm-5.12,13.42v.21q-2.55,6-5.11,11.93l-22.58-1.91,6.39-10.44ZM312,496.44l.21.22-6.61,6.39-23-.43,7.25-7.88Zm-6.18,7.67,22.58-.42c-6.26,8.41-18,14.27-27.06,19.81Q303.55,513.81,305.79,504.11Zm23.65-.42,23.22.85v.21l-4.47,13.64-25.57-7.67Q326,507.21,329.44,503.69Zm1.06-.85,5.76-6h22.15l-5.11,6.6Zm6.39-6.82q2.13-6.51,4.27-13l18.11-.64h3.41l-3.84,13.85Zm26.43-13.43,17.47-1.06h4q-1.5,7.25-3,14.49l-.42.21H359.91Q361.61,489.41,363.32,482.59Zm22.37-1.27,21.09-3.2-2.13,17.68-20.67.43H382.7Q384.2,488.78,385.69,481.32Zm.21-.86,3-11.5L408.49,460l-1.71,17.26Zm23.65-20.66,21.31,1.91q-.75,8.85-1.49,17.69l-21.74-2.13Zm.21-.64q1.19-5.76,2.35-11.51L433,450.42l-1.92,10.44Zm24.08-8.74,20-5.54q-.53,7.77-1.07,15.55l-20.88.64Zm0-.85,1.71-12.15,19-4.26c1.51,1-.32,8.41-.43,10.87ZM456,433l20-1.71c-.21,3.34-.43,6.68-.64,10l-20.45,2.55C455.29,440.19,455.65,436.57,456,433Zm20,9.16H496.7V456.6l-21.1,2.13Q475.83,450.42,476,442.11Zm20.88,64.13,22.8,1.5q.21,7.46.43,14.91l-23.44-2.13Zm22.8-29,21.95-7c.42,3.26.85,6.53,1.27,9.8l-22.58,13.21Q520,485.26,519.71,477.27Zm23-7.25,21.95-4h.21q.75,6.07,1.49,12.15l-22.58,1.49C543.43,476.41,543.08,473.22,542.72,470Zm23-4,19.6-.21h2.14L590,478.12H567.44Zm22.8-.21,22,.43q1.49,5.85,3,11.72l-22.59.21Zm25.14,13q1.17,9.17,2.35,18.32l-23-.21L591.09,479Zm.86,0h22.58L641,493l-23.87,4.05Zm23.65.21,21.3,3.41c1.57,1,4.27,10.07,5.12,12.36l-22.8-1.92Q640,485.89,638.18,479ZM665,495.59q2.67,5.43,5.33,10.87v.21l-24.08.64L642,493.67Zm.86,0,23.22-3H690l5.33,14.49v.21l-23.86-.64Zm24.92-3,23.44.21,6.18,13.42v.22l-24.08.85Q693.58,500,690.8,492.61Zm24.29.21,21.74,3.41c2,1.32,5.77,12.29,7,15.13l-22.37-4.9Q718.3,499.64,715.09,492.82Zm23.23,3.62,21.73,4.26q3.74,5.76,7.46,11.51l.43.43v.21l-23.23-1.28Zm-.64-1.06-7-10.23c13.6,1.85,22.81,2.52,27.7,13.64l.64.64Zm-7.24-11.29c-1.27-.89-4.78-15.3-5.12-17.9l20.24,4.9q2.67,8.52,5.33,17Zm-12.15-24.51,19.6,1.71,6,7.88.85.85C735,468.5,723.45,465.91,718.29,459.58Zm-6.6-2.13L727.45,456c4.42,0,5.43,2.55,8.53,3.84l.21.42C727.9,459.76,719.17,458,711.69,457.45Zm-3.2-.85-5.11-9.16,19.17,1.06,4.26,4.48,2.13,2.13Zm13.64-9-19.39-1.07q-2.46-4.36-4.9-8.73l18.53-2.56h1.28q2.24,6.07,4.48,12.15Zm-24.29-10.44h-.22q-1.7-7.66-3.41-15.34l18.11,1.28c2.37,1.46,3.79,8.41,4.91,11.08ZM694,421l-4.69-6c8,2.53,17.55,1.65,22.38,7.24Zm11.93-3.63-17.47-3.19-4.26-6,17.26.43,4.47,8.52Zm-22.16-10q-1.69-5.11-3.41-10.23l16-1.06h1.5q1.8,6,3.62,11.93Zm-3.62-10.87L678,379.89l11.08-.42h6.18q1.28,8,2.56,16Zm-2.34-17.26q-1.71-4.26-3.41-8.52l8.09-.21h9l3.63,8.1Zm13-9.58-16.61.42q-1.61-4.15-3.2-8.31l16.41,1.28,3.4,6.39Zm-20.24-11.94v-.21l6.4-1.06.21,1.7Zm-8.73-.85-1.92-12.14v-.22l15.34-.21L677,355.6A51,51,0,0,1,661.83,356.88Zm-2.13-13-2.35-8.3,14.07,1.91c1.78.68,2.87,4.47,3.62,6.18Zm-4.48-10.44,11.51,2.35C664.12,336.77,656.58,335,655.22,333.44Zm.43,1.5H641.37l-2.55-4.69C643.93,331,652.79,331.64,655.65,334.94Zm-15.13.21-15.34,1.28-2.13-4.9,14.7-1.49C638.67,331.74,639.6,333.44,640.52,335.15Zm-16,1.28-15.13.42-1.7-4.26v-.21l14.27-.85C623.23,332.42,623.93,335,624.54,336.43ZM622,330.89l-14.7.64c-.5-2.49-1-5-1.49-7.46L620.07,326q.95,2.34,1.91,4.68Zm-15.34.64-14.7-1.07c-.43-1.92-.85-3.83-1.28-5.75l10.87-.64h3.62C605.65,326.55,606.14,329,606.64,331.53ZM591.3,330v.63l-14.91,3.63c-.29-3.41-.57-6.82-.86-10.23l14.28.64C590.31,326.48,590.8,328.26,591.3,330Zm-15.55,4.68-15.13,7.46q-.21-8-.43-16l14.7-2.13C575.18,327.62,575.46,331.17,575.75,334.72Zm-14.92,14.07-12.14.42h-2.56c-.28-1.77-.57-3.55-.85-5.33L560,343C560.26,345,560.55,346.87,560.83,348.79Zm-15.34.42-14.7-1.28c-.14-3.83-.29-7.67-.43-11.5,3.31,1.63,12.32,5.1,14.28,7.67C544.92,345.8,545.21,347.51,545.49,349.21Zm0,.64c.28,2,.57,4,.85,6l-15.13-.22-.42-7Zm.85,6.61c.29,1.63.57,3.26.86,4.9v.21l-15.56.85q-.21-3.09-.43-6.18ZM532.07,372v.85c-5.26.6-10.44-1.1-16-1.28-.07-.56-.15-1.13-.22-1.7l13.85-.43h1.92C531.78,370.31,531.93,371.16,532.07,372Zm-16,26.85L498.61,388q.12-4.15.22-8.31l17,8.95C515.94,392,516,395.45,516.09,398.86ZM498.61,362l-15.34.42q.23-3,.43-6l15.13-1.71C498.76,357.17,498.69,359.58,498.61,362Zm-15.55-6.4A62.81,62.81,0,0,1,467.93,352c.22-.71.43-1.42.64-2.13l14.92.21C483.35,351.91,483.2,353.76,483.06,355.6Zm-15.13-6.39-10.22.21h-4.48q.43-2.76.85-5.54l11.3-.42h3.19C468.36,345.38,468.15,347.29,467.93,349.21Zm-14.49-6H439c.35-2.21.71-4.41,1.06-6.61l2.13-.21H454.3C454,338.7,453.73,341,453.44,343.25Zm-14.06-6.4c-.35,2.13-.71,4.27-1.06,6.4L423.83,343q.63-3,1.28-6l7.88-.43h6.39ZM423.19,343l-14.92-2.77,1.71-3.83,14.06.64h.43Q423.83,340,423.19,343Zm-.64.64H423q-.74,2.46-1.49,4.9V349L406.14,345l1.92-4.05Zm-16.83.85-16-7.67,1.91-3,15.56,6.61C406.71,341.82,406.21,343.17,405.72,344.52Zm-16.62-8.09-13.85,1.7v-.21c4.48-1.79,10.9-1.94,15.55-4.05Zm-13.64.85c-4.76,1.74-11.06,2.29-16.41,3.83q1.18-2.13,2.35-4.26l14.06.22Zm-3.2,1.92h.86l-1.5,7.88c-4.09,1.11-12.93-2-15.55-3.62h-.43v-.21C360.19,341.69,367.58,341.19,372.26,339.2Zm-33.45,1.91v-.21l3-4.69,15.76,5.33C353.37,344.79,344.73,341.3,338.81,341.11Zm-.64-.21L323,343.46c1-2.63,2-5.26,3-7.88l14.91.63Q339.56,338.56,338.17,340.9Zm-1.28.85h.64q-1.38,3.74-2.77,7.46l-15.55.43c1-1.64,2-3.27,3-4.9C326,342.42,332.57,343.57,336.89,341.75Zm-7.45,8.31h4.68c-4,5.62-11,4.8-19,6.18l3.2-5.32C321.12,349.65,326.29,351.25,329.44,350.06Zm.64,4.69-3.2,6c-1.14,1-13.63.82-16.19.85C316.63,353.48,321.21,358.33,330.08,354.75ZM317.93,362h8.31v.21l-3.41,6.18-16.4,2.34q1.8-4.26,3.62-8.52Zm4.48,7.24-1.92,16.83-17.47-3c-.07-.14-.15-.28-.22-.43q1.6-5.54,3.2-11.08Zm-2.56,17.47h.43q-1.61,5.66-3.2,11.29l-17.69-2.13-.21-.42q1.71-6,3.41-11.93Zm-3.2,11.93-4.26,6c-1.18,1.11-14.76,2.11-17.47,2.13l3.84-10.23Zm-6.18,7.25h1.28v.21q-1.92,4.47-3.83,8.95l-19-3.2C295.59,404.57,301.44,409.31,310.47,405.89Zm-3.19,10-5.12,5.76-18.32,1.91,4.26-11.08Zm-6.61,6.61h1.07q-1.82,7.25-3.62,14.49l-19.39-.22,4.68-12.35Zm-2.34,15.76c2.3-2.08,13.81-.55,17.47-1.91h1.49L313,447,293.22,446v-.22Zm13.85,9.59-5.33,4.69-20.67-1.92v-.21l6-3.62Zm-6.39,5.54v.22q-2.46,5.75-4.9,11.5l-22.8-6.82,6.39-6.81Zm-5.33,12.36-4.26,16.41v.42l-24.72-11.5c-.19-2.42,4.66-9.54,6-12.15ZM295.77,483l-6.18,10.65-23.22-2.77,4.47-19.39ZM289,494.53v.21l-7.45,7.88L258.27,502q3.74-5.12,7.46-10.22Zm-7,8.94,23,.43-4.47,19.39c-1.29,1-21.15-2.52-24.5-3Q278.93,511.9,281.92,503.47Zm39,8.31Q318,518.4,315.16,525l-21.31,5.54C300.93,522.72,313.79,519,320.91,511.78Zm1.28-.42,25.36,7.88H348L343.29,535c-1,.66-5.62-1.49-7.25-2.13l-20-7.67Zm26.64,8.09,23.86.22q-1.59,9.69-3.2,19.39l-25.14-3.2Q346.58,527.66,348.83,519.45Zm.42-.85q2.24-7,4.48-14.06l23.65,4.9q-2.24,4.7-4.48,9.38Zm5.33-14.91h-.43l4.48-6c5.44-3.12,16.37,1.51,22.58-.85.64,3-2.58,8.54-3.41,11.72Zm27.91-6.82,21.95-.21v.21q-1.4,6.39-2.77,12.78l-23-.85Q380.57,502.83,382.49,496.87Zm22.8-.21,22.16-.43-2.13,13.85-22.8-.21Q403.9,503.26,405.29,496.66Zm.21-.86,2.13-17.68L429.15,480l.22.42-1.92,14.92Zm24.72-15.55h21.52c-.57,3.05-1.14,6.11-1.7,9.16l-21.74,5.75Zm.21-.85q.65-8.85,1.28-17.69l21.09-.64q-.53,9.17-1.06,18.33Zm23.23-18.33,20.66-1.49h.22q-.32,7.89-.64,15.77l-21.31,3.83Q453.13,470.14,453.66,461.07Zm0-.85q.52-7.77,1.06-15.55l20.46-2.56q-.21,8.42-.43,16.83Zm21.94-.64,20.67-2.34.21,13.63L475,475.14Q475.29,467.36,475.6,459.58Zm21.1,61.58,23.44,2.13.63,15.34L496.48,538Q496.6,529.58,496.7,521.16Zm46-40.27c.94,1,1.42,9.82,1.49,11.93l-23.44,13.85-.63-12.57Zm1.28-.43L565.52,479h1.06l1.92,13-23.44.85Q544.54,486.64,544,480.46ZM567.65,479H590l2.13,17.9-22.8-4.69Q568.51,485.58,567.65,479Zm24.29,18.54,2.34,19.17-23-6.39q-.85-8.62-1.7-17.26Zm1.28.21,23,.21,2.34,20.46-23.22-1.49Zm23.86.21L641,493.67l4.47,13.64-25.78,10.87Q618.37,508.06,617.08,497.93Zm28.13,10.45c1.47,1.41,3.47,16.68,3.83,19.81l-24.71-.43-4.48-8.94Zm1.28-.22,17.47-.64h6.82l4.47,18.11-25.14,2.56Zm25.35-.64,23.87.64q3.07,7,6.17,14.06v.22l-25.56,3Q674.07,516.48,671.84,507.52Zm24.93.86,20.46-1.07h3.83l6.82,14.91H703Zm25.14-.86,22,4.9c2.44,1.47,6.41,11.52,8.1,14.49l-22.8-4.69C727.15,520.92,723.17,510.28,721.91,507.52Zm23.44,4.9,23.23,1.28q3.51,9.38,7,18.75L753,527.13Zm24.29,1.49v-.21l24.5-4.05c2.12.43,8.36,13.62,9.81,16.2l-27.28,6.6Zm.21-1.06c-1.87-.53-7.82-10.05-9-12.15l22.38,2.35,10.44,5.54.21.42Zm-9.58-13L752.6,489.2c9.14,1.82,21.95,1.47,25.56,8.95L782,502ZM752,488.35q-2.78-8.31-5.54-16.62L765,480.68q3.74,5.54,7.46,11.08Zm-5.76-17.69q-3.51-4.57-7-9.16l19.18,3.83q3,7,6,14.07Zm-14.27-14.49c10.77,2.24,18,2,24.93,8.1C748,462.2,737.43,461.59,731.93,456.17Zm-6-5.54-2.34-2.34L745.14,441l4.26,17.26C741.48,456,729.3,457.54,726,450.63Zm-2.77-3q-2.34-6.18-4.69-12.36v-.21L737,433.8h1.28l6.39,6.61Zm14.49-14.49-18.54,1.28c-1.84-.41-4.67-9.17-5.54-11.29L730,422.08h2.77l4.9,10.87ZM713,422.29l-4.68-3.4-.43-.64,17.47-2.77h1.07l5.54,5.75Zm13-7.45-19,2.77q-2.24-4.49-4.48-8.95l19.82-9.38q1.81,7.68,3.62,15.34Zm-23.65-7q-1.81-5.87-3.62-11.72l19-8.1c1.49.71,4.05,8.69,4.9,10.65Zm-3.83-12.58q-1.18-8-2.35-16l17.9-2.34q1.92,5.22,3.83,10.44Zm-2.77-16.61-3.63-8.1,16.2-.85h.64l4.47,6.18C711.52,377.26,698.88,378.47,695.71,378.62Zm-3.84-8.95L688,363.06,702.52,362h1.92l4.26,7ZM704,361.14l-16.2,1.07-3.62-6.82L700,355l4,6Zm-17.9-6.6,9.59-5.54c1.13,1.56,2.27,3.12,3.4,4.69.22.21.43.42.64.64Zm6.6-12.79,14.7,3,3.84,2.34.21.43-15.13.64Zm2.77,6.61c-4.34,4.37-11,5.29-17.9,7.24q-.74-5.64-1.49-11.29l15.13-2.56C693.18,342.3,694.7,346.63,695.49,348.36Zm-19.81-4.69-3-6.18,11.94-.42c3.36-.1,5.21,1.19,6.17,3.41l.64.63Zm-4.9-7.46,10.44.22C679.28,337.25,672.38,337.06,670.78,336.21Zm-2.77-.85c-.79-1.06-1.57-2.13-2.35-3.19L678,335.36Zm-6-7.67c7.18,2.21,12.56.63,16,7C671.89,333.32,665.16,332.23,662,327.69Zm1.49,3-10.87-4,8.31.85C661.83,328.54,662.68,329.61,663.53,330.67Zm.85,1.07,2.35,2.77.21.64-13.42-2.77c-.86-1.85-1.71-3.69-2.56-5.54Zm-11.72.43-14.27-2.77-1.92-4.9,13.42,2.13C651.12,327.5,652.22,330.62,652.66,332.17Zm-14.91-2.77-14.91,1.49L620.7,326l11.94-1.71,2.55.22C636.52,325.17,637.19,328,637.75,329.4Zm-17.26-4-1.92-1.92,11.72.43Zm-1.06,0L606,323.22c-1.14-.73-1.61-3-2.13-4.26C608.53,320.78,616.55,321.63,619.43,325.35Zm-14.49-2.13-14.7.85H590L589,322.79,602.59,319C603.9,319.55,604.41,321.89,604.94,323.22Zm-15.56.64H589l0,0-13.62-.62c-.35-1.14-.71-2.28-1.06-3.41,3.81.82,12.4,1.36,14.68,4Zm-14.7-.64v.21l-14.49,2.34c-.28-2.34-.57-4.68-.85-7l14.06.85C573.83,320.8,574.26,322,574.68,323.22Zm-15.13,3.19q.23,8,.43,16l-14.7.86c-.14-3.84-.29-7.68-.43-11.51Zm-14.7,4.69L544.43,320l14.27-1.28c.21,2.42.43,4.83.64,7.25ZM544.64,343l-14.28-7.24-.42-7.46,14.27,3.41C544.35,335.5,544.5,339.27,544.64,343Zm-14.28,9.8v2.77l-14.91-1.91c-.07-1.85-.14-3.7-.22-5.54l14.71.21Zm.22,3.41.42,5.33v.85L515.66,362l-.21-7.67Zm-14.92,6.39,15.34.43c.21,1.85.43,3.69.64,5.54v.21l-15.77.43-.21-1.92Zm.21,25.36-17-9.16.21-5.33,16.41,4.69Zm-17-33.88L485.4,355.6h-1.7c.14-1.84.28-3.69.43-5.54l14.27-3.41h.43Zm-15.34-4.69-14.92-.21c.22-1.92.43-3.83.64-5.75l14.7.64Zm-14.92-6.6-14.49.43c.29-2.28.57-4.55.86-6.82l14.27.21Q468.9,339.73,468.57,342.82Zm-14.06-7H440.23c.36-1.21.71-2.42,1.07-3.62l14.06.42C455.08,333.66,454.79,334.72,454.51,335.79Zm-14.92,0-14.27.42c.42-1.7.85-3.41,1.28-5.11l14.06,1.07C440.3,333.37,440,334.58,439.59,335.79Zm-14.91.42-14.28-.42,1.5-3.41,13.84-1.28C425.39,332.8,425,334.51,424.68,336.21Zm-13.42-3.62c-.43.93-.86,1.85-1.28,2.77-2.36.26-8.06-2.1-10.23-3.41l11.51.43Zm-1.92,3.62c-.5,1.21-1,2.42-1.49,3.63l-15.56-6.4,1.49-2.13C399.76,332.24,404.05,334.71,409.34,336.21Zm-16.19-4.9c-2.59,3.52-11.12,3.59-15.77,4.9,3.55-8.83,5.81-2.54,13.42-5.32l2.35.21Zm-12.79-.42,1.71-1.49,6.17.85Zm1.07-1.49c-4.18,1.82-10.57,3-16.2,3.41l2.13-5.54,14.07,1.91Zm-2.77,2.13-1.92,4.68L362.25,336C365.72,331.76,373.11,333.83,378.66,331.53Zm-16.41,3.41c-1.36,1.63-7.51-1-9.59-2.35l11.29.85ZM361,336.43l-2.34,4.26c-2.57,1-12.43-4.25-16.2-4.9l2.56-5.12Zm-19.39-1.07-14.49-.42c3.52-3.62,11.08-2.14,16.2-4.27h1.06Q343,333,341.58,335.36Zm-30,1.92h-.21l3.19-5.75,14.28,1.28C325.41,336.3,316.88,335.85,311.54,337.28Zm13.42-1.7c.67.92-2.07,6.06-2.55,7.88L306.85,342v-.22c1.63-.81,2.16-2.87,3.62-3.62Zm-3,8.52c-1.14,1.84-2.27,3.69-3.41,5.54l-15.55.64c1.06-2.56,2.13-5.12,3.19-7.67Zm-8.1,6.39h4.05L314.74,356l-15.35,3.41h-.21l3.41-8.52Zm-1.06,6.82h.64C309.3,363,302,367.22,296,370.94h-.21q1.5-5.32,3-10.65ZM309,362.85c-1.06,2.63-2.13,5.25-3.19,7.88l-13.21,3v-.21C296.72,372.31,306.13,365.8,309,362.85Zm-3.83,8.73-3,11.3-15.55,5.75q1.49-6.7,3-13.42Zm-3.63,12.15q-1.59,6-3.19,11.93l-17.05.21C287.82,386.82,292.61,389.12,301.52,383.73Zm-4,12.57h.64L294.07,407l-17.26,1.28q1.92-5.43,3.83-10.86C282.34,395.2,294.12,397.53,297.48,396.3Zm-6.4,11.51h1.71c-4.73,5.24-14.19,5.89-21.52,8.52l4.9-6.82C278.24,407.63,287.85,409,291.08,407.81Zm-3.83,4.68L283,423.79l-17.9,2.55,5.54-9.16Zm-5.54,12.15h.85v.21q-2.34,6-4.69,11.93l-18.75.43,5.12-9.59C269,425.13,276.54,426.73,281.71,424.64Zm-3.41,12.78,19.39.43-5.54,8.1-20.24-5.54-.43-.22Zm13,8.95c-5.09,5.24-17.17,6-26.21,7L270.2,441Zm-8.1,5.12c.94.29-5.24,5.45-6,6.39l-20,.21C263.22,452.3,274.62,455.05,283.2,451.49ZM267,458.73h9.37v.21q-3,5.76-6,11.51H248.68l6.61-11.51Zm3,12.57v.21l-4.47,19.18-24.08-4.9L248,471.3Zm-4.9,20-7.24,10c-3.12,1.66-20.46-5-25.79-5.54q4.49-4.68,8.95-9.37Zm-34.52,4.26-22.16.85,9-10.86,22.37.85C238.42,488.18,232.44,495.06,230.57,495.59Zm-3.41.85h3l-9.59,9.8-23.23,1.07,10-10ZM216.3,507.31h3.62L211.4,521.8c-3.35,1.57-19.32,2.34-24.08,2.34l9-15.55C198.94,506.21,212.11,508.86,216.3,507.31Zm4.68,0,25.79,5.75h.42q-3.41,9.16-6.82,18.33L212,522.44Zm27.28,6,26,7.45c-8.64,11.28-17.68,7-32.6,10.87h-.21Q244.85,522.43,248.26,513.28Zm26.84,7.88,24.72,3.41v.21l-8.31,6.39-25.14-2.34ZM291.72,532l22.16-6h.86v.21Q312,535.12,309.2,544l-24.51,2.77Q288.22,539.38,291.72,532Zm24.08-6.18,27.27,10.44-4.68,19.6-28.34-11.72Q312.93,535,315.8,525.85Zm28.34,10.65,24.93,3.62q-2.24,7.68-4.48,15.34l-24.93.64Q341.91,546.31,344.14,536.5Zm26,3.84,24.29.85q-1.8,6.91-3.62,13.85l-25.14.42Zm.22-.86q1.59-9.79,3.19-19.6l24.51,5.75q-1.6,7.35-3.2,14.71ZM374,519l4.26-9.38,23,.86q-1.49,7-3,14.06V525Zm28.34-8.52,22.8.42v.21q-1.19,6.93-2.35,13.85H399.32C400.32,520.17,401.31,515.33,402.31,510.51Zm23.65.42,22.16-3.41c.91,1.19-1,13.3-1.07,16.41L423.61,525Q424.79,518,426,510.93Zm.21-.85L428.3,496l21.52-5.54q-.63,8.2-1.28,16.4Zm24.72-20,21.52-6c1,1.18-.38,12.92-.43,15.76l-22.58,6.61Q450.14,498.26,450.89,490.05Zm0-.85c.57-3.06,1.13-6.11,1.7-9.16l20.88-3.84c.37.48.21,6.14-.64,7Zm22.8-5.11,22.16,2.77.21,18.53-23.23-5.54Q473.27,492,473.69,484.09Zm.21-.86c.28-2.41.57-4.83.85-7.24l21.73-4.26-.42,13.85.21.42Zm22.58,55.61,24.29.64q.22,7.24.43,14.49l-24.93,3.62ZM520.56,508,544,493.89c1.52,1.71.75,13.1,1.49,16.19l-24.08,12.14Q521,515.1,520.56,508Zm24.72-14.49,23.22-.64,1.71,17.26-23.87-.21Q545.82,501.67,545.28,493.46Zm24.93,17.47q.63,13,1.28,26l-24.08-3.84q-.54-11.19-1.07-22.37Zm1.06.21,22.8,6.4c1.72,1,3.5,6.67,3.84,9l-25.57,10.44Q571.8,524,571.27,511.14Zm24.29,6.61,22.8,1.49c2,.79,4,6.31,4.9,8.31v.21L599,526.06Q597.28,521.91,595.56,517.75Zm28.13,10.87,4,14.7-25.15-2.56Q601,534,599.4,527.13Zm1.06,0,24.51.42,4.26,18.11-24.72-3.83Zm25.57.42,23.87-2.55h1.49q2.66,8.41,5.32,16.83v.21l-26.42,3.62Zm26.21-2.77,25.78-3,4.26,22.59v.63l-24.29-3Q679.4,534.91,676.53,526.27Zm26.63-3.19h24.93l6.39,19.17v.22l-26.84,4Q705.41,534.8,703.16,523.08Zm26,.21,23.22,4.47q3.52,9.6,7,19.18l-23.86-4.47Zm24.29,4.9L776,533.3q3.84,9.48,7.67,19l-23.43-5.33Q756.85,537.57,753.45,528.19Zm23.43,5.11,26.64-6.6h.85q3.84,10.44,7.67,20.88v.21l-27.48,4.48Zm28.34-6.81,24.08,1.06q5.43,6.72,10.87,13.42l.85.86-27.91,5.54Zm-.42-.86-8.53-16,22.8,2.13,9.59,14.28.21.64Zm4.47-15.76c-11.33-1.84-16.15-.85-23.65-6.61L806.29,505l10.44,5.54Zm-25.78-7.67-9-9.38L795,495.16l9.16,7.89c.21.28.42.57.64.85ZM773.69,492,766,480.89l20,2.77,7.45,9.59,1.07,1.06ZM765.38,480l-6-14.28c12.28,3.06,21.49,4.8,25.57,16.41l.64.64Zm-13.64-20.67h-.42l10.44-.43h9l6.6,10.66.21.64C768.47,468.51,757.22,465,751.74,459.37Zm-1.49-1.07-4-17.26,19.39,1.07q2.46,8.1,4.9,16.19Zm-4.47-18.11-6.61-6.6,20-4,6,11.72ZM759,428.9,738.53,433l-5.11-11.08L752.6,418h.63L759,428.69Zm-25.78-7.67-6-6,15.55-.64c4.5,0,5.93,1.84,9.38,2.56Zm-6.4-6.61q-1.69-7.77-3.41-15.55l16-1.28h2.35q1.69,8,3.41,16Zm14.71-17.47-18.33,1.07-4.26-10.44,16-1.28H737q2.24,5.22,4.48,10.44Zm-22.8-10-4.05-10.44h17.47l4.47,9.16Zm-4.48-11.08L710,369.67l13.64-.64H727q1.9,3.09,3.83,6.18l.64.64Zm-4.9-7-3.83-7h16.4l4.48,6.39Zm-4.47-7.89-3.84-6,16,.21,3.62,5.11.64.64Zm11.5-6.39-15.76-.42L696.77,349l12.57-.85h3.2l3.83,6.39Zm-11.29-13.64,10.87,6C713,348.08,706.36,343,705.08,341.11Zm1.49,2.77c-6.4-1-14-1.86-17.26-6.17,2.4.53,13.92,2.13,14.71,3.62Zm-21.73-8.09h8.73l2.35,2.13Zm-5.75-.85-3-4.27,13.64,1.71,2.56,2.13.42.64ZM675,329.61l-13.43-2.56c-.92-1.7-1.84-3.41-2.77-5.11l12.36-1.28h1.71Zm-16.62-8.31-2.13-6.18L671,320Zm2.13,4.9.21.64-13.63-1.49q-1.29-2.13-2.56-4.26l13.21,1.06C659.22,323,659.45,325,660.55,326.2Zm-14.28-1.07c-4.44-1-8.56-2-13.85-1.91l-2.13-3.2,13.43,1.07Zm-14.91-2.34.42.43-13.85-.43c-.63-1.7-1.27-3.41-1.91-5.11C621,318.14,629.71,318.69,631.36,322.79Zm-14.28-.21-13.42-4.26L602,314.69l13.43,2.77ZM603,318.32l-14.49,3.83c-.43-2.56-.85-5.11-1.28-7.67h14.07C601.88,315.76,602.45,317,603,318.32Zm-15.13,3.83L574.26,319l-1.5-5.54,13.85,1.06C587,317,587.47,319.59,587.89,322.15Zm-14.7-3.83V319l-14.06-1.07c-.29-1.35-.57-2.7-.86-4.05l9.59-.42h4.26C572.48,315.05,572.83,316.68,573.19,318.32ZM561,313.2h-3c-.28-1.49-.57-3-.85-4.47l13.64,1.49,1.06,2.34Zm-2.55,4.69-14.28,1.49c-.21-1-.42-2-.64-3l13-2.35h1.07C557.92,315.33,558.2,316.61,558.49,317.89Zm-28.77,17.69-14.7-.64-.21-8.31v-1.07l14.49,2.56Zm0,.63c.07,3.84.15,7.68.22,11.51l-14.71-.21L515,335.58Zm-14.49,35.16-6.6-1.7,6.39.21Zm0,.64c.15,1.85.29,3.69.43,5.54l-16.41-4.69-.21-3.62C505.54,369.37,509.67,371.47,515.23,372Zm-16.4-26-14.06,3.19h-.64l.42-5.33,14.06-6C499.83,339.24,498.9,344,498.83,346Zm-14.28-2.77q.1-4.28.22-8.53L498.83,329l.21,7.88Zm-.42-8.95-14.07,1.49c.15-2.27.29-4.55.43-6.82l10.65-.43h3.41Zm0,.64c-.07,2.84-.15,5.68-.22,8.52l-14.49-.64q.22-3.09.43-6.18Zm-14.92.42c-1.09,1-11.57.48-14.06.43.21-1,.42-2,.64-3L469.42,329C470,329.67,469.77,334.16,469.21,335.36Zm-13.64-3.62-.21.21-13.85-.42c.36-1.49.71-3,1.07-4.48h13.63C456,328.61,455.79,330.18,455.57,331.74Zm-14.7-.21-14.06-1.07,1.28-3.62,13.85.21C441.58,328.54,441.23,330,440.87,331.53Zm-14.7-1.07-13.85,1.28c.5-1.7,1-3.41,1.49-5.11l13.64.21ZM413.39,326l-13.85-2.13c.49-1,1-2,1.49-3l13.64.22Q414,323.54,413.39,326Zm-.22.64c-.49,1.7-1,3.41-1.49,5.11l-14.06-.64c.5-2.27,1-4.55,1.49-6.82Zm-14.7-1.92c-.5,2.13-1,4.26-1.49,6.39-3.46-1.45-9.76-2-14.06-2.34,3.1-3.5,10-2.31,14.7-4.26h.85Zm-30.68,1.92,2.34-3.2,13.85,3.2.22.42C379.79,329.14,373.64,327.22,367.79,326.63Zm-.64-.43c-.32.5-12.23-1-14.49-1.07l2.56-5.32,14.27,3.41Zm-.85,1.07h.42l-2.13,5.54-14.7-1.28,2.56-5.76Zm-16.83,3.83c-4.11.32-11.31-6.24-16-7.24l3-2.56,15.34,4.26Zm-5.12-1.49-13.85,2.56c.85-2.63,1.71-5.26,2.56-7.89Zm-11.93-5.33q-1.28,3.95-2.56,7.89l-14.49-1.28H315c1-2.28,2-4.55,3-6.82h14.49Zm-28.55-.64v-.21l3.62-2.13L319.85,319h.85l-2.56,3.83C315.43,324.38,307.61,323.71,303.87,323.64Zm7.88.43h5.54c-1,2.27-2,4.54-3,6.82l-14.7.85c1.06-2.49,2.13-5,3.19-7.46Zm-1.92,7.67h3.84c-1.07,1.92-2.13,3.84-3.2,5.75L296,339.2q1.61-3.42,3.2-6.82Zm-.42,6.39L306,342l-14.28,2.55C297.51,336.33,300.74,341.63,309.41,338.13Zm-4.05,4.48c.14,1-1,2.57-1.49,3.62l-1.71,4-15.34.64C292.71,341.58,296.39,346.88,305.36,342.61Zm-3.84,8.31c.45,2.37-2.42,5.86-3,8.52L282.35,359l3.83-7.45Zm-3.4,9.37q-1.61,5.65-3.2,11.29l-17.05-2.77,4.05-9.16ZM294.07,372v.21c-7.1,2.41-11.88,8.08-18.54,10.66l-.43.42h-.21q1.38-6.92,2.77-13.85Zm-5.76,3.84c.73,1-2.06,11-2.55,13.21L270,391.61v-.21l4.9-7.25C279.37,381.39,283.84,378.61,288.31,375.85Zm-3.62,14.06c.47.28-3.1,4.84-4.05,5.54-1.73,1.53-14-.28-16.83.21C268.57,390.85,277.69,392.71,284.69,389.91ZM280,396.73q-2,5.85-4,11.71l-17.69.22,4.26-12.36ZM258.48,409.3l13.43-.22h3.62q-2.67,3.74-5.33,7.46l-18.75-3.19v-.22Zm11.08,7.88v.21q-2.65,4.49-5.32,8.95l-19.82-5.11H244q3.09-3.63,6.17-7.25Zm-5.75,9.8q-2.78,4.9-5.54,9.8c-1.24.91-17.13-3.06-20.45-3.41l5.75-11.5Zm11.93,10.44c-1.4,2.59-18.8,5.26-23.65,6.18l6.18-5.54ZM268.93,441c.62.92-4,10-4.69,12.15-1.7.19-19.39-5.78-21.52-7h-.43Zm-5.76,12.79c-4.3,4.33-19.88,6.71-28.34,6.82l5.76-14.07Zm-9.37,5.11h.64q-3.19,5.55-6.4,11.08c-4,1.84-16.37.26-21.73.22l7.88-8.53Zm-6.61,12.36-6.6,14.28L218,484.72l7.46-13.63Zm-30,13.42L195,484.51v-.21l9.59-8.1,19.6-4.9Zm-.85.86-7.89,9.58c-3.71,2.67-19.39-2.7-25.78-3l11.08-6.82Zm-9.8,11.5-10.45,10.23-22.37,3.83,7.89-18.32Zm-12.15,11.3h.85l-8.73,15.55-22.59,5.33,9.16-17ZM175.81,539.7l10.87-14.49,23-2.13h.85l-9.8,15.76-24.93,1.07Zm35.8-16.62L239.52,532l.21.42-10,8.1c-1.35,1.67-23.57-1.13-27.91-1.71Zm29,9.37,22.58-2.77h1.28l-7.67,15.56-26.85-3.41Zm24.71-2.77L290.87,532l-7.24,14.91-25.57-1.28-.21-.42Q261.57,537.45,265.3,529.68ZM307.06,545h1.71q-2.34,11.51-4.69,23l-28.76-7.45,8.31-12.36C290.12,545.06,300.17,547.75,307.06,545Zm2.77,0,28.56,11.72q-3.19,6.72-6.4,13.43l-26.84-1.92ZM339.45,557l16.62-.43h8.31q-2.34,8.41-4.69,16.83l-26.63-3Zm26-.22v-.42l13-.22h11.94l-3.63,17.69-6.82.21-19.17-.64Q363.1,565.05,365.45,556.74Zm26-.64L416.8,558q-1.4,8.84-2.77,17.69l-26.21-1.5Q389.64,565.17,391.44,556.1Zm.21-.85,3.84-14.06,22.16-1.92h1.92q-1.29,9-2.56,17.9Zm4.05-14.91q1.71-7.25,3.41-14.49h23.44v.21q-1.38,6.18-2.77,12.36Zm27.7-14.49,23.44-1.07-1.71,15.77-24.5-2.13Q422,532.14,423.4,525.85Zm24.29-.86,23-10.44-.42,24.29-24.08,1.71Q447,532.77,447.69,525Zm.43-1.27q.63-8.21,1.28-16.41l21.94-6.61H472q-.53,6.51-1.06,13Zm24.71-23.23,23,5.54.21.43q-.21,6.81-.43,13.63L472,513.7Q472.42,507.1,472.83,500.49Zm23.44,58,24.93-3.63h.21q.23,9.06.43,18.12l-26,.42Zm25.36-19.82q-.23-7.77-.43-15.55l24.08-12.15q.53,10.55,1.06,21.1v1.06Zm.21.64,24.5-5.33q.64,8.2,1.28,16.41L522.27,554q-.22-4.89-.43-9.8Zm25.57-5.33,23.86,4c1.53,1.15,2.43,4.77,3.2,6.61l-25.78,5.54Q548,542,547.41,533.94Zm25.14,3.84,25.57-10.65q1.71,6.5,3.41,13v.64l-26,3.62Zm28.55,3.83c2,1.06,2.49,15.84,3.84,19v.21l-27.28,6q-.95-10.77-1.91-21.52Zm1.71,0L628,544.17q1.49,12.26,3,24.5L606,561Q604.41,551.31,602.81,541.61Zm26.2,2.77L653.94,548l4.26,20.45-26.2.21Q630.5,556.54,629,544.38ZM654.8,548l26.2-3.84,6.18,18.33-27.91,6Zm27.48-3.84,24.29,3.2,7.25,17L688,562.28Q685.17,553.24,682.28,544.17Zm25.78,3.2,25.57-4h1.28q3.51,9.58,7,19.18v.21l-27.06,1.92Q711.48,556,708.06,547.37Zm27.92-4,23.86,4.47,11.29,9.59L743,562.5Q739.48,552.9,736,543.32Zm25.78,4.9,22.58,5.11,9.8,13.21C781.93,561.4,770.07,557.17,761.76,548.22Zm23.43,4.9,27.06-4.69,13.64,10.66-29.83,8.09Zm29-4.69-.42-.21,27.48-5.54c1.79.62,10.8,11.24,11.72,13.21l1.49,1.49-27.7,1.28ZM844,543.74c11.37,6.85,23.61,11.15,31.75,21.1l-20.24-7.46Q849.75,550.57,844,543.74Zm-1.49-1.7L831.43,528.4l19,8.53,10.87,14.49Zm-12.36-15.13q-4.89-7.45-9.8-14.91l21.95,3.62q3.83,10.13,7.67,20.24Zm-20.67-21.3c10.68,1.13,22.66,3.34,29.62,8.52C827.84,511.65,817.11,511.33,809.48,505.61Zm-3.19-1.5-9.59-8.73,20.67,1.28,9.8,11.08Zm-10.65-9.58-8.53-10.87,21.95-3.41c1.69.58,7,13.15,8.1,15.55ZM786.69,483q-3.84-5.86-7.67-11.72l20.24-2.13c2.37.12,8.7,8,9.59,10l.42.43Zm-8.1-12.36-6.82-11.72,19.82-1.7h1.06l7.25,10.44.21.64Zm-7.24-12.57q-2.46-7.87-4.91-15.77l19.18,1.92q3.3,6.18,6.61,12.36ZM766,441.47q-2.78-5.85-5.54-11.72l18.11,3.2,6,10,.42.43ZM778,432.1l-18.11-3.2L754.3,418l18.11,2.56q2.77,5.64,5.54,11.29Zm-30-17.48c10.26,1.29,16.39-.24,22.8,4.9C763.25,418.46,753.14,418.22,747.91,414.62Zm16,0-17.9-.85q-1.71-8-3.41-16l17,2.35,4.26,14.27Zm-4.48-15.12-17-2.35-4.69-10.65,16.62,2.34,5.11,10.44Zm-21.73-13.64-4.9-9.16H750l4.26,11.5Zm-5.54-10L727.67,369H744.5l4.47,6.39c.14.14.29.28.43.43ZM727,368.17,722.77,362l16.19.42,4,5.12.64.63Zm-5.12-7-4.26-5.75,13.42-.64h3l3.83,6.39.43.43ZM704,339.62h-.43l7.88-.64h1.71c1.06,2.56,2.13,5.12,3.19,7.67Q710.19,343.14,704,339.62Zm-8.74-3-.64-.85L708.92,333l3.4,4.9.43.42C705.21,338.41,700.54,339.2,695.28,336.64ZM694,335.15l-3.2-2.34-.21-.43,13.21-1.49,4.26,1.49Zm-4.26-3.41L687,326.41c5.16,0,11.4.09,14.91,1.71l1.92,2.13Zm-3.41-6.18c-.85-1.63-1.7-3.27-2.56-4.9l12.57,1.28c1.3.46,2.5,2.38,3,3.62.21.21.42.43.64.64Zm-6-8.74,11.51-.85h1.7l2.77,5.12C690,321,683.16,320.61,680.36,316.82Zm1.92,3c-6.53,0-12.8-.12-15.55-4.05l12.57,1.06h.21Zm-14.06-1.28c-4.69-1.26-11.64-3.1-14.28-6.61C659.2,313.94,665.16,314.3,668.22,318.53Zm-10.44,2.56v.21l-13.42-.85-2.56-3.63,13-1.91h.85Zm-14.28-.64-13.63-1.07L628,316.61l13.42.43ZM627.31,316l-1.71-5.32,13.22-1.5,2.13,7Zm-.64-.42-11.51-6.18,9.38,1.49C625.62,311.64,626.31,314.14,626.67,315.55Zm1.92,3.19.42.43L616,317l-1.71-7.25C617.76,311.14,627.2,315.69,628.59,318.74Zm-13.43-1.92-13.42-2.77c-.5-1.77-1-3.55-1.49-5.32l13.42.64C614.17,311.85,614.67,314.34,615.16,316.82Zm-15.34-8.94c-.42-1.07-.85-2.14-1.27-3.2l11.71,3.62Zm-.64,0-8.31-.22v-.21l6.4-2.77C598.36,305.18,598.78,306.74,599.18,307.88Zm.22.63q.74,2.67,1.49,5.33H587c-.28-1.42-.57-2.84-.85-4.26C589.51,308.62,594.2,308.46,599.4,308.51Zm-11.93,0-1.5.64v-.85h1.5Zm-16.2.86c-.35-.93-.71-1.85-1.06-2.77l6.18,2.13Zm-.64,0L557,308.09c-.22-1.28-.43-2.56-.64-3.84l13.21,2.13C569.92,307.38,570.28,308.37,570.63,309.37Zm-14.06-.64c.28,1.56.57,3.12.85,4.69l-14.06,1.91q-.21-3.09-.43-6.18Zm-.21-.64-13.85.21-.22-.64,13-3.41c.64.62.8,2.27,1.07,3.2Zm-13.64,7.24-13-2.13c-1.08-.59-1.09-3.32-1.06-4.9l13.63.85Q542.52,312.24,542.72,315.33Zm-13.85,3.41L514.81,323h-.21v-9.37l13.84.21C528.59,315.48,528.73,317.11,528.87,318.74Zm0,.85c.14,2.63.29,5.26.43,7.89l-14.49-2.56-.21-1.28ZM514.81,362H499.47v-7.25l15.13-.42Zm0,.63.21,6.61c-5-.22-11.63.06-15.34-1.7h-.43c.08-1.57.15-3.13.22-4.69ZM499,328.33l-13.85,5.54v-5.33l13.21-4.26h.85ZM485,321.94l-13.64,4.47c.14-1.91.29-3.83.43-5.75l12.78-3.84h.64Zm0,.64c-.14,1.77-.29,3.55-.43,5.32l-13.85.22c.07-.22.14-.43.22-.64Zm-14.28,3.83H457.07q.31-4.05.64-8.09l13.42,2.34C471,322.58,470.84,324.5,470.7,326.41Zm-.21.64v.22c-1.24,2.05-11.1,3.56-14.06,4.47l.42-4.69Zm-14.06-.85-13.85.21c.35-2.06.71-4.12,1.06-6.18l13.21-1.91ZM441.94,326c-1.06.94-11.06.26-13.64.21.43-1.49.85-3,1.28-4.47l11.72-1.28H443C442.65,322.29,442.29,324.14,441.94,326Zm-14.28-.22v.43L414,326c.42-1.64.85-3.27,1.27-4.9l13.64.64C428.51,323.07,428.09,324.42,427.66,325.77Zm-12.57-5.54H401.67c.5-1.2,1-2.41,1.49-3.62l13.21.21V317C415.94,318.1,415.52,319.17,415.09,320.23Zm-14.27,0-13,1.07h-.21c.49-2.49,1-5,1.49-7.46l13.42,2.56Zm-1.07.64h.64v.22l-1.28,2.34-13.64,2.77,1.71-4.26Zm-14.91,5.33-14.28-3.62,1.92-4.9,14.06,4.05Q385.69,324,384.84,326.2Zm-13-8.52-1.92,4.9-13.85-3.41h-.43q1.19-1.92,2.35-3.84l13.85,2.13ZM355,319l-13.64-.43c3.35-3.68,10.27-1.24,15.55-3.2C357.46,315.66,355.49,318.1,355,319Zm-.64.63-2.13,5.33-14.71-4.05,2.56-1.7Zm-15.13-.42c-3.65,1.26-11.09,1.1-15.56-.85h-.42l1.7-.64L339.24,319Zm-3.41,1.92v.21l-2.77,2.13h-14.7l3.19-4.69Zm-27.49-.64v-.22l2.77-2.34,2.77-.21,8.53.21Zm-1.06.21-14.28.43,3.2-6,14.27,2.56Zm-6.61.85h5.12v.22l-3,1.91L289,325.77l3.41-4Zm.43,3h1.06L299,331.31c-.31.48-12.55-1.05-14.92-1.06V330l4.48-3.63Zm-3,7.88h.42l-3.41,6.82-14.91.64q1.59-4.48,3.19-8.95Zm-17.05,8.1,10-.43h3.41l-3.62,4.69-15.34-2.35v-.21Zm9.16,4.9-3.62,4.9c-3.18,1.86-11.78,1.14-16.19,1.06q1.9-4.26,3.83-8.52Zm-6.18,6.18h1.49l-4,7.45-14.71,4.48q1.6-5.65,3.2-11.3Zm-3.19,8.3q-1.71,4.27-3.41,8.53l-14.7,5.11h-.22l3.84-9.16Zm-4.05,9.59q-1.38,6.93-2.77,13.85c-1.31,1.16-13.56.05-16.41,0l4.26-8.73Zm-3,14.92c-1.5,2.34-3,4.69-4.48,7-3.14,1.29-13.16-.48-17.47-.64l5.11-6.82Zm-6.18,8.09v.22l-5.12,2.77-17.26-1.92,5.33-1.92Zm-6,3.63-4.05,12.57h-17.9l3.84-14.49Zm-5.33,13.21c-5.13,5.22-14.14,3.12-23.65,3v-.21l6.61-2.77Zm-7,4.68-4.9,5.76c-3.29,2.35-13-4.33-17.9-5.33v-.21l4.27-1.28Zm-26.42-1.27,5.12.42C225.73,413.46,224.7,413.91,222.9,412.71Zm1.28,1.27-5.11,1.71,1.7-3Zm.85.64,17.47,6.82q-2.76,5.87-5.54,11.72L214.38,424c.61-1.86,2.82-6.62,4.47-7.46Zm32.6,23.23q-3.4,3-6.82,6l-21.94-8.09,7.67-1.71ZM248.9,444c-8,3.54-20.59.21-29.62-.64l7.46-7.46Zm-9.38,2.13.21.42q-2.86,7.14-5.75,14.28l-23.22-5.75v-.22l7.67-10.65Zm-6.18,15.34q-4.05,4.37-8.09,8.74l-20,4.9q2.55-9.7,5.11-19.39Zm-29,13.64-24.07-5.54,7.88-14.28,21.31.21Zm-.63.85v.21l-8.95,7.25c-1.84,2.07-20.47-3.28-25.15-3.63l-.21-.42,10.23-9.16Zm-11.51,8.95.21.42-10.86,6.4-23.23.85,10-12.15Zm-11.72,7.67q-3.84,9.27-7.67,18.53l-22.59,3.2q3.73-10.44,7.46-20.88Zm-8.95,19.6h.64q-4.58,8.52-9.16,17l-22.8,3.62,9.59-17.69Zm-10.23,18.32c.61,1.07-9.72,10.93-10.86,13.43l-23.87,3.41,13-13.43Zm-12.14,14.71c.59.74-1.17,4.9-1.71,6.39q-3.08,8.94-6.17,17.9l-27.49-2.13q5.75-9.37,11.51-18.75Zm-8.52,25.14L126.81,587l-28.13-1.49,14.49-17.26Zm1.06.21,23-2.34h1.92l-11.29,18.11c-3.7,1.67-21.83.69-27.49.64Zm26-2.56,22.16-7.45c.57.81-1.12,4.17-1.71,5.54q-3.51,8.21-7,16.4l-24.93,4.05Zm.42-1.06q3.53-12.88,7-25.78v-.43l23-1.06h2.13q-4.59,9.69-9.17,19.39Zm33-27.27,26.42,2.77H228l-9.38,17L192,559.3Q196.59,549.51,201.17,539.7Zm27.91,2.77,26.85,3.83-10.44,11.08-25.78,2.13Zm27.91,4,26,1.28-8.31,11.94c-3.26,1.43-22.81-1.88-27.91-2.35Zm46.67,22.38-8.53,12.57c-1.36,1.19-5.59.23-7.67.21L267,580.82q3.83-9.8,7.67-19.6ZM296.2,582.1l8.52-13L328.58,571h2.77q-3,8.84-6,17.68c-1,.72-5.82-.81-7.67-1.28l-21.52-5.11Zm36.43-10.87,26.64,3.2-5.76,13.85-27.06.85Zm27.7,3,26.21.86q-2.67,5.53-5.33,11.08l-26.63,2.13Zm27.28.86,26.2,1.49v.21q-1.92,6-3.83,11.93l-27.7-2.55Q384.94,580.6,387.61,575.07Zm27.27,1.49,24.29-4h1.28l-2.13,19.81L411,588.92Zm.21-.85q1.38-8.85,2.77-17.69l25.14.64v.21l-2.34,12.57Zm3-18.54q1.19-8.85,2.35-17.69c2.15-.54,21.9,1,24.08,1.92,1.09,1.3-1.2,13.41-1.28,16.41ZM446,541.4l24.29-1.7q-.54,9-1.07,18.11H444.07Zm25.14-1.7,24.29-.86-.21,18.75-24.93.22Q470.7,548.75,471.13,539.7Zm0-1.07q.31-12.14.64-24.29L495.63,521l-.21,17Zm24.72,35.58,26-.42q.31,9.8.64,19.6l-26.85,1.07Q495.74,584.34,495.85,574.21Zm26.42-19.39,25.56-3.62q.54,10.34,1.07,20.67l-26,1.07ZM548.69,551l25.78-5.54h.21L576.6,567,550,571.66Q549.33,561.33,548.69,551ZM576,568h.85l1.71,24.72v.64l-27.06,1.92q-.65-11.29-1.28-22.59Zm1.92-.21,26.42-6h.64q1,14.37,1.91,28.76l-27.27,2.77Q578.72,580.61,577.88,567.82Zm28.12-6,24.93,7.67q1.61,12.78,3.2,25.56l-26-4.26Zm26,7.88,26.42-.21q1.92,11.61,3.83,23.22c-.58,2.2-3.21.93-5.54,1.28l-21.52,1.06Q633.6,582.42,632,569.74Zm27.48-.43,27.28-6h.64l4.47,25.35-28.34,5.12Zm29-6,25.78,2.13q3.3,10.44,6.61,20.88l-27.91,2.34Q690.69,576,688.46,563.35Zm26.85,2.34v-.21l24.29-1.92h2.77l8.31,18.75-28.77,4.05Zm28.12-2.34,27.49-4.9H772l9.81,17.68-30,6Zm29.83-4.48L795.42,568l10.87,15.77-23.44-7.67Zm23.23,9,30-8.09,12.57,16.4-31.32,8.1ZM828,559.73l26-1.5h1.28q6.27,9,12.57,17.9H840.38Zm28.77-.86c14.6,5.76,26.81,9.88,37.71,19.18l-25.14-1.92Zm26.2,9.8c9.65,4.5,21.57,9.62,33.88,10.66l-7.24-.43-12.57-.64Zm-18.75-15.34,24.72.22L899.4,574C884.27,569.71,874.19,562.72,864.24,553.33Zm24.08-.64-25.14-.21-11.51-15.55,25.78-3.84c2.18.95,9.34,16.34,10.87,19.39Zm-37.07-16.4-8.1-20.46c14.79,1.74,26.63,7,33.88,16.41h.42ZM830.58,508.8h-.43l19.61-1.49h2.77l10.65,12.36C852,515.37,839.29,515.27,830.58,508.8Zm-1.92-.85-10-11.29h22.16L851,505.61c.22.28.43.56.64.85ZM818.22,496q-3.72-7.89-7.46-15.77L832.07,479c1.81.85,7,14.15,8.1,16.83Zm-8.1-16.62-8.31-10.23,11.51-.43h9.38l3.4,3.63,6,6Zm-8.94-11.08-7.68-11.08,13-.43h7.67l7.46,10.66.43.42Zm-8.31-11.93q-3.21-6-6.4-11.94l19.18,1.07,7.46,9.8.21.64Zm-7-12.79L779.44,433h19L805,444l.21.64Zm-6.6-11.29-6.18-11.93,19-2.77h.64q2.77,7.25,5.54,14.49ZM766,415.48h-.43l18.54-4.69h1.06l6.18,5.11.86,1.07C782.2,417.81,772.22,422.08,766,415.48Zm-1.28-.86-4.26-14.48,18.11-3.63h1.28q2.34,6.72,4.69,13.43Zm14.7-18.75-19.17,3.63q-2.46-5.33-4.91-10.66l17.9-4h1.07q2.55,5.44,5.11,10.87Zm-24.5-7.67-4.26-11.5,16.83,1.92,5.54,4.68c.21.29.43.57.64.85Zm-4.26-12.35c-2-1-3.9-4.56-5.12-6.4l14.71,5.12,5.11,2.77ZM740,362.63c10.76,1.64,15,2.41,19.39,10.87C751.34,371.09,744.49,368.69,740,362.63Zm-4.9-7.24,15.56,8.95C742.18,362.45,738.82,362.35,735.12,355.39Zm-4.26-5.75,6-1.07,8.31.64q1.38,6.39,2.77,12.79C741.62,359.51,734.54,354.94,730.86,349.64Zm-6-2.13,5.54-.43,4.9.43Zm-7.89-.64c-1.06-2.56-2.13-5.12-3.19-7.67,5.56,1.5,13.65,3.32,17.25,7h.43ZM710,333l13.85.85c1.07,2.91,2.13,5.82,3.2,8.74C719.73,341.34,713.05,338.76,710,333Zm-3.62-1.92,6.39-.43c5.7,0,6.38.68,9.8,2.14l.22.42A154.2,154.2,0,0,1,706.36,331.1Zm-1.49-.85-3.63-3.41,12.58-1.92h1.7c1,1.49,2,3,3,4.48.07.21.15.42.22.64Zm-4.26-4.05-3.2-4.47L710,320h1.28l2.77,3.41.85.85Zm-3.41-5.11-3-5.12,3.84-.21h9.37l1.71,1.92,1.7,1.7Zm-3.41-5.76c-.78-2.27-1.57-4.54-2.35-6.82l12.58.64q1.49,3,3,6Zm-.64-.21v.21l-13.21.86L678,306.38l12.57,1.92Zm-13.85,1.07-13.21-1.28q-1.17-2-2.35-4.05L677,306.38C678.65,308,678.63,313.76,679.3,316.19Zm-14.06-1.5-13.43-4.26,11.08.64C663.67,312.28,664.45,313.49,665.24,314.69Zm-10.44-.64h.42l-13.63,2.14-1.92-6.82C644.36,309.79,653.07,310.45,654.8,314.05ZM638,307.24l11.08,3C645.68,309.89,639.72,309.38,638,307.24Zm.43,1.49-13,1.49c-.57-2.2-1.13-4.4-1.7-6.61,4.31,1.64,9.55,2.26,13.63,3.84ZM624.75,310l-13.21-1.92c-.49-1.78-1-3.55-1.49-5.33l13,.85C623.62,305.74,624.18,307.88,624.75,310Zm-13.85-2.35v.22l-13.63-4.48-.22-.42,10.87-.22h1.49Q610.16,305.22,610.9,307.66Zm-13.63-3.83c-3.14,2.89-8.57,4-14.49,4.05-.14-.5-.29-1-.43-1.5v-.21L595.78,303Zm-14.71,4.9c.15.5.29,1,.43,1.49l-3.2-1.07v-.21l1.71-.21Zm-12.57-3c-.28-1.71-.56-3.41-.85-5.12l12.57,5.54c.22.64.43,1.28.64,1.92C577.16,308.35,574.14,307.36,570,305.75Zm-.64-.43v.21l-13.21-1.92c-.28-1.49-.56-3-.85-4.47l13.21,1.28C568.79,302.05,569.07,303.69,569.35,305.32ZM555.5,303.4v.21l-13.63,3.2c-.14-1.63-.29-3.27-.43-4.9l13.21-2.77C554.94,300.56,555.22,302,555.5,303.4Zm-13.63,4.69v.21l-13.21-.64c-.14-1.35-.29-2.7-.43-4.05C532,304.6,539.16,305.65,541.87,308.09ZM528.23,303l-.42-3.84,13,2.77c.22,1.63.43,3.27.64,4.9ZM528,308.3l.42,4.48V313H514.38V308.3Zm-13.64,26.64-14.7,2.13v-8.31l13.85-3.2h.64Zm0,.64v11.93L499.68,346v-8.31Zm0,12.57c.07,1.84.14,3.69.22,5.54l-15.13.42.21-7.46ZM495.21,311.5v-.22l4-2.13c.08.57.15,1.14.22,1.71Zm3.83,4.05.21,7.88-14.06,4.26.21-5.33ZM485.4,316l-12.78,3.84H472c.14-1.21.29-2.42.43-3.62l13-2.56ZM472,315.55l-13.21-1.28.21-11.08,13.21,1.92Zm-.21.64c-.14,1.27-.29,2.55-.43,3.83l-13.63-2.34c.28-1,.56-2,.85-3Zm-13.85-2.14-13.21-2.34.85-3c2.27-3.05,9.37-3.39,12.57-5.54Zm0,.64c-.29,1-.57,2-.85,3l-13.43,1.91c.29-2.48.57-5,.86-7.45ZM443,319.81l-13.21,1.28c.29-2.13.57-4.27.86-6.4l13-2.55Q443.33,316,443,319.81Zm-13.85,1.28-13.42-.64,1.28-3.63,13.21-2.13C429.86,316.82,429.51,319,429.15,321.09ZM416.8,316l-13.21-.21c.42-1.35.85-2.7,1.27-4.05l11.51-.43h1.49C417.51,312.85,417.15,314.41,416.8,316ZM403,315.76l-13.43-2.56,1.71-1.7,13.21.21C403.94,313.06,403.44,314.41,403,315.76ZM388.88,313l-8.73-1.07,8.09-.42h2.14Zm-.42.64q-.75,3.72-1.49,7.46l-13.64-4c-.67-1,1-3.86,1.49-5.33Zm-16.2,3.19-12.14-1.7-.21-.43,14.06-3Zm-10-3.19,1.92-1.71h5.54Zm1.07-1.49-1.71,1.06c-1.07,1.12-10.36-1.27-13-1.49l1.07-.43,13.64.64Zm-3.84,1.91v.22l-14.91,1.49,2.34-3.62Zm-15.55,1.71-14.49-6.39-.43-.22,2.77-2.34,13.85,4.9.64.43Zm-.64.43v.21l-2.77,1.92L326.24,317l2.34-7.25Zm-16.62-3c-.36,1.21-.71,2.42-1.07,3.62l-13.85.22,3-4.48c2.4-2.38,9.54-1.36,12.78-2.77C328.28,310.42,327,312.26,326.67,313.2Zm-12.57-1.06-3,4.9-14.49-2.35,3-6.18Zm-17.9,2.13-13.85-1.49h-.43l3.62-4.48h13.64Zm-.64.85-3.2,5.54c-.5.62-12.59-2.34-14.91-2.56l3.83-4.68Zm-4.05,6.39.21.22-3.62,4L273,323.43l3.84-4.69Zm-4.26,4.9c-3.58,4.72-11.23,5.67-17.47,7.67h-.22q1.5-5,3-10Zm-4.69,4.48c-1,3-2,6-3,8.95l-14.49.85C270.81,331.58,274.18,335.63,282.56,330.89Zm-5.75,9.8h.64c-4.1,2.56-11.49,1.43-16.83,2.77C264.35,340.07,271.37,342.68,276.81,340.69Zm-8.31,2.56,4.47-.43h.64l-3.83,8.52-16-1.7C258,343.73,260,344.64,268.5,343.25Zm.85,8.73q-1.59,5.86-3.19,11.72l-16,.43q1.61-6.93,3.2-13.85Zm-4.05,12.36c.92,1.34-2.8,7.1-3.41,9.16l-15.76,2.56q1.91-5.65,3.83-11.29Zm-4.68,10.23h.63l-4.47,8.73-16.19.64,5.32-7Zm-5.12,9.37h.85l-4.47,6c-3.21,2.14-12.53,1.74-17.26,1.7l5.33-7ZM240.8,392l6.6-.43H248c-4.8,3-13.71,4.1-19.6,5.33C231.31,393.48,234.5,392.25,240.8,392Zm1.7,2.13c.71,1-3,11.71-3.4,14.27l-17.69.22,5.11-10.23Zm-5.11,15.13v.21l-6.18,2.56-12.36-.22L221,409.3Zm-17.68,3.41v.21l-1.5,2.77-3.4,1.28,3.19-4.26ZM214,417c-2.59.88-7.63-3-10.86-3.62l11.5-.64h2.56Zm-7.88-1.71-5.75-1.49v-.21l.64-.43Zm11.08,1.92q-1.82,3.19-3.62,6.39l-20.67-3.19v-.22l6.6-5.75C205.71,415.52,211.14,418.85,217.15,417.18Zm-3.41,7.25,21.95,8.94c-6.21,2.71-21.18,1.48-29,.43Zm12.36,11.29-7.89,7.67-20.45-.21,8.1-8.53Zm-8.74,8.52-7,10c-3.8,1.72-16.56.47-21.73.42L196.69,444ZM188,454.47,166,453l9.38-8.31,15.76-.64h4.69Zm-.85.85v.21l-7.67,13.64L156,465.76v-.21l9.16-11.93ZM178.58,470l-10,9.38-23.44-1.28,10-11.72ZM167.5,480.25,157.92,492c-3.35,2-17.82,2.53-22.8,2.56L144.28,479Zm-11.72,13.21h1.07q-3.73,10.23-7.46,20.45c-.85,1.16-18.86,4.25-21.73,4.48q3.41-11.4,6.82-22.8Zm-7.67,21.95h.64l-9.58,17.68L113,529.47v-.21l14.49-10Zm-9.58,18.32-13.21,13.64L97.4,542.68l-.21-.43,14.7-12.14Zm-13.85,14.49-11.94,19-30.89-7.24,14.27-16.62Zm-13,19.81h.43L97.62,585.29l-28.77-1.91,12.36-22.59ZM96.12,586.36l.64.21q-5.54,12.67-11.08,25.36l-25.78,3h-.21q4.37-15.24,8.74-30.47Zm1.92,0L126,587.85l-13.84,19.6-25.36,4.26Zm29.19,1.49h27.28l-10,24.93-30.89-5.33h-.43Zm28.13,0,24.93-4.26c.58.71-2.81,9.58-3.41,11.29L172.19,610l-26.42,2.77Zm26.42-4.26,26.63-1.28-8.52,23.86c-1.13,1.49-5.25.9-7.46,1.28l-19.17,2.35Zm.43-1.07q4.68-11.17,9.37-22.37l26.63.21-8.94,20.89Zm36.86-21.94,25.35-2.35c.41.34.32.32,0,1.07l-8.73,16.62-25.57,5.33Q214.59,570.92,219.07,560.58Zm26.84-2.35,27.7,2.77v.22q-3.83,9.79-7.67,19.6l-29.4-4.69Zm20.67,23.44,27.7,1.28-9.16,14.7-28.55.64Q261.56,590,266.58,581.67Zm28.77,1.49,29,6.82h.43l-8.31,9.59c-4.15,1.85-23.64-1.68-30-1.71Q290.87,590.51,295.35,583.16Zm30.46,7,25.79-.85h1.27l-7.24,10.44c-1.19,1-5.64.43-7.67.43H317.08Zm27.7-.42c7-3.24,17.76.25,25.15-2.56h2.13Q378,594,375.25,600.85l-28.55-.64Zm28.34-2.56,25.57,2.35h2.13q-1.82,8.52-3.62,17l-.43.21-29.19-5.75Q379.09,594.13,381.85,587.21Zm28.77,2.56,27.7,3.41q-1.19,10.44-2.35,20.88v.42l-28.76-7.24C406.21,602,410.22,595.32,410.62,589.77Zm28.76,3.62,27.06,2.13q-.63,10.23-1.28,20.46l-27.91-1.28Zm18.75.43-18.75-1.28,2.13-20.24,25.78,3c1.1,1.28-.6,15.7-.64,19C464.23,594.86,460.55,594.19,458.13,593.82Zm-16.4-22.38,2.34-12.35c1.47-1.3,21.22-.48,24.93-.43q-.54,7.88-1.07,15.77Zm28.33-12.78h25.15q-.22,7.46-.43,14.91l-25.78.86Q469.53,566.54,470.06,558.66Zm25.57,36.65,26.85-1.07q.32,10.77.64,21.52l-27.91.43Zm27.27-21.52,26.21-1.07q.64,11.29,1.28,22.59l-26.85-1.92Q523.23,583.6,522.9,573.79Zm27.49,22.37L552.1,616l-27.92-.43q-.31-10.65-.64-21.31Zm1.07,0,27.06-1.7L581.07,616H553.16Q552.31,606.07,551.46,596.16Zm28.12-1.92,27.27-2.55h.22q1.48,12.24,3,24.5L582.14,616Q580.87,605.11,579.58,594.24Zm28.55-2.34L634.34,596q2.34,10.11,4.69,20.24H611.12Q609.62,604,608.13,591.9Zm27.28,4.47,24.5-1.49h2.77q2.66,10.54,5.33,21.1l-27.92.21Zm28.33-1.7,27.92-4.9c2.13,1.39,6.53,15.13,7.88,18.32l-30.47,7.67Q666.42,605.22,663.74,594.67Zm29.41-5.11,25.57-2.14h2.55q3.84,9.92,7.67,19.82v.21l-28.33.43Zm29.19-2.14v-.21l27.91-4.05c1.94.51,9.55,15.06,10.87,17.69l-30.68,6.39ZM752.17,583l29.62-6c1.53.93,9.36,17.44,10.65,20.25l-30.26,3.4Zm31.32-5.54,23.86,7.67,11.3,12.36,1.91,1.92-27.06-2.13Q788.5,587.32,783.49,577.41Zm24.93,7.46,30.68-7.67c3,1.06,9.84,16,13,19.17l.21.64-30,2.56ZM840.81,577h27.48q5.65,12,11.3,24.08l-26.21-4.26Zm28.76,0,26.63,2.13,15.13,17.26.64.64-31.32,4Q875.12,589,869.57,577Zm28.13,2.13,26,1.92,17,16h0l-20.66-.21h-7Q905.36,588,897.7,579.11Zm43.89,7.25L924.33,580l-17.69-4.05,19.82.85Zm-16-10.44-24.93-1.28L890,553.76l22.79,3.62Zm-13.85-20.24.21.64-22.58-3.63L879.16,533.3,900,538.63Zm-24.29-32.39q5.85,7,11.72,14.06l-20.67-5.11L866,521ZM883.21,519l3,3.19-21.52-2.34L854,507.52l20.66,3.41Zm-9.38-9.38v.22L853,506.46l-10.23-8.95-.85-1.07,22.8-4.26h1.07Q869.77,500.92,873.83,509.65Zm-8.52-18.32L841,495.59,833.56,479l22.16-3.62H857Zm-9.59-16.83-22.58,3.62L824,468.74l20.46.43Zm-12.57-6.61c.14.14.28.29.43.43l-20.46-.43-8.31-11.29,14.06-.43h6.4Q839.2,462,843.15,467.89Zm-9.38-13.42c.22.28.43.57.64.85l-20.24.64-7.46-10.44,19,1.92Q829.73,450.95,833.77,454.47Zm-9.58-8.74c.21.22.42.43.64.64l-18.75-1.7L799.47,433l17.9,3Q820.78,440.84,824.19,445.73Zm-7-10.65L799,432.31q-2.65-7.46-5.32-14.92l20-4.68C815,413.45,816.82,432,817.16,435.08ZM809.06,407l4.9,4.9-20.67,4.9-7-6.17,19.6-6.4A4.73,4.73,0,0,1,809.06,407Zm-3-3.41-20.46,6.18-5.11-13.42,19-3.2Q802.77,398.32,806.08,403.54ZM797.77,391l1.27,1.49-18.75,3.2q-2.55-5.43-5.11-10.87l17.26,1.28Q795.1,388.53,797.77,391Zm-10-6.39-13.21-.64-5.11-4.69Zm-13.42-4.69-13.64-5.75-4.47-7.24C763.11,369.3,770.87,373.87,774.33,379.89ZM767.72,372l-13.21-7C760.29,366.48,764.62,367.89,767.72,372Zm-4.47-5.33-14.49-4.05q-1.49-6.6-3-13.21l13.42,7.25Zm-4.48-11.08-10.65-5.75-.21-.43,7.24-4Q757,350.5,758.77,355.6Zm-5.54-10-5.11,3.2c-.91-.09-.54.25-1.06-.64L746,347.08Zm-6.6,3.2a12.12,12.12,0,0,0-4.9-.86l2.34-.64h1.07Zm-3.41-3.63,1.28,1.28c-5,2.34-12.76.28-15.56-2.77l13.64.43Zm-1.28-1.7-14.27-.64c-1.07-2.91-2.13-5.82-3.2-8.74C732.83,336.89,737.79,336.05,741.94,343.46Zm-4.9-6.61c-5.48-2.1-12.17-2.48-16.19-6l12.36,1.49Zm-4-5.32L719.36,330,716,324.71l13.63.85Q731.29,328.55,733,331.53Zm-4.91-7,.44,0h-.43v0l-12.56-.41-3.2-4.05C717.94,321.11,725,320.84,728.08,324.48Zm-6.59-9.79,3,6.18v.22c-6.7-.41-13.24-1.24-16.19-5.54l12.35-.86Zm-.43-.64-13.42.86-2.77-5.54,11.08-.86h2.13ZM714.24,303q1.39,2.13,2.77,4.26l.43.42v.22l-13,.63c-.92-2.05-1.85-4.11-2.77-6.17Zm-13-.64q1.29,3.09,2.56,6.17l-12.36-.63c-1.28-1.68-2.23-4.79-2.77-7Zm-14.06-1.5c1.83.57,2.53,4.89,3.2,6.61v.21c-5.87-.86-10.78-1.84-15.13-3.83l-.21-.43Zm-13.63,2.77c1.47.29,1.64,1,2.77,1.5l.64.85-13.64,4.47-1.92-2.55c-.21-.22-.43-.43-.64-.64Zm-13.21,3.84c.49.78,1,1.56,1.49,2.34.21.22.42.43.64.64l-12.58-.85-2.13-2.13Zm-11.72,1.92c-5-1.71-11.1-1.77-13.85-5.76C639.11,304.77,646.15,306.15,648.62,309.37ZM635.83,306l-12.14-3-1.92-4.48C626.67,300,633.15,302.09,635.83,306Zm-16.19-7.67h1.49l1.71,4.69-13.22-.86c-.49-.85-1-1.7-1.49-2.55Zm-12.36,1.28,1.71,2.55H595.14Zm-12.57,3.19-12.36,2.77c-.42-1.49-.85-3-1.28-4.47C584.73,302,591.9,300.66,594.71,302.76Zm-14.28-1.7c.36,1.35.71,2.7,1.07,4.05v.21l-12.78-5.54-.86-3.2Zm-13.21-4.69,1.07,3.41-13-1.28c-.28-1.42-.57-2.84-.85-4.26Zm-14.7-2.13h1.28c.28,1.35.57,2.7.85,4.05v.21l-13.21,2.77q-.32-3.09-.64-6.18Zm-12.36.85q.33,3.09.64,6.18l-13.21-2.77-.21-3.62Zm-26.42-.21h13c.14,1.21.28,2.41.43,3.62L514,300c-.07-1.63-.15-3.27-.22-4.9Zm-13.42,1.06,12.78-1.06c.07,1.77.15,3.55.22,5.33L500.11,306Zm-.21,10.66,12.78-5.76c.53.54.61,2.24.64,3.2-2.85,2.89-7.92,4.07-13.42,4.26Zm13.63,1.06-6,.22v-.22l5.32-2.55C513.57,305.58,513.58,306.92,513.74,307.66Zm-13.63,1.28,3.83-.21v.21l-3.83,1.71Zm-.22,2.56a30.44,30.44,0,0,1,13.85-3.2v4.9l-13.85,1.49Zm0,3.83,13.85-1.49c.07,3.13.15,6.25.22,9.38l-14.07.21ZM514,323.86l.21,1.06-14.49,3,.21-3.83Zm-27.28-23L499,296.16h.64V306l-13.21-3.2Zm13,5.76-.21,1.7c-4.08,2.51-7.55,3.21-13.21,4.69l.21-9.59Zm-26.42-6.18,13,.42-.22,1.71-13.21,1.92C473,303.12,473.12,301.77,473.26,300.42Zm12.57,3-.21,9.59-13.21,2.56.42-10.44Zm-13.21-3.19c-.14,1.42-.28,2.84-.43,4.26l-13-1.92c.21-1.07.42-2.13.64-3.2C461,298.43,470.09,300.11,472.62,300.21Zm-26,3.19,11.93-4.26h.64c-.22,1.14-.43,2.27-.64,3.41L446,307.45h-.22C446.06,306.1,446.34,304.75,446.63,303.4Zm-13.43.43,5.54-.22H446v.22c-.29,1.28-.57,2.55-.86,3.83l-13,1.07C432.49,307.09,432.85,305.46,433.2,303.83Zm-1.28,5.75,10.66-1.07h2.34c-1.55,4.78-8.94,4.41-14.06,5.33C431.21,312.42,431.57,311,431.92,309.58Zm-1.7,0h1.06c-.28,1.42-.56,2.84-.85,4.26l-13.21,2.35,1.28-4.91ZM406.57,306l13,1.28c-.43,1.13-.86,2.27-1.28,3.41l-11.08.42h-1.92C405.72,309.37,406.14,307.66,406.57,306Zm-.64-.43c-.43,1.85-.85,3.7-1.28,5.54l-13-.21c.29-3.69.57-7.39.86-11.08Zm-13.85-5.75q-.54,5.54-1.07,11.08l-13,.21c.57-2.27,1.13-4.54,1.7-6.82C381.15,302.6,389.53,300.69,392.08,299.78ZM378.87,304l-1.49,6.61c-.95.85-10.56.69-12.79.63l1.92-3.83Zm-12.78,3.2-2.14,4-13.21-.63,2.13-5.54Zm-19-2.13h5.12v.21l-1.92,5.11-8.1-4.9h-.42Zm2.13,5.32.22.43c-6.38.66-10.83-3.31-16.62-4.48l-.22-.21V306l3.84-.43C343.32,305.54,344.56,308.76,349.25,310.43Zm-14.06-8.09,3.2,2.13.21.42-5.33.22Zm-1.28,0h.64l-2.13,2.77c-2.77.41-6.59.77-8.52-.43h-.43Zm-13.21,3,1.07-.43,2.77.64H320.7Zm2.56,1.06,7.88.22c-3,3.88-10.61,3.38-16,4.9.78-1.49,1.56-3,2.35-4.48Zm-6-.21a8.11,8.11,0,0,1-6-.21Zm-4.69.85-1.7,1.49c-1.86,2.55-4.42-.92-6.18-2.76C308.33,305.75,310,306.54,312.6,307Zm-4.26,2.77-7.45-2.13v-.21l2.55-1.7C305.23,306.3,307.25,308.45,308.34,309.79Zm-8.31-4h2.35V306l-1.92,1.28-4-1.07H296Zm-6.39.85,4.9.85-10.44.21ZM282.77,306l5.33.42-4.47,1.28h-1.28Zm-.42,0c-.21.57-.43,1.13-.64,1.7l-4-1.91Zm-10,1.49,3-1.7c2,.23,2.81,1.16,4.47,1.7l-7.46.21Zm-1.49.85h13.85l-3.62,4.48-13.85-.22Zm-8.09,9.38,3.83-4.48,13.85.22-3.62,4.47H262.75Zm-.86.85h14.28l-3.84,4.69-14.48.21Zm-4.47,5.54h14.49q-1.5,5.12-3,10.23H254.22Q255.83,329.18,257.42,324.07Zm-3.62,10.87h14.7l-4.05,5.32c-1.23,1.09-12.51-.38-15.34-.42Q251.45,337.38,253.8,334.94Zm-5.54,5.54,14.7.85v.21l-4.69,2.13-14.49.64Zm-5.54,4.68,13.63-.85h1.28c-4.16,5.66-11.08,7.24-19.17,8.95ZM238,354.11l13.64-3.62h.85q-1.5,6.81-3,13.64l-16-.22Zm-4.69,10.44,16,.22V365q-1.92,5.53-3.83,11.08l-16.2-.21Zm-4.69,12.15,16.2.21-4.48,6.39c-3.39,1.95-12.55.07-17.25,0Zm-6,7.24,16.62.64-5.12,6.61c-3.17,1.45-12.86.69-17.25.64Zm-6.39,8.52h16.4v.22l-6.39,4.9-16,2.34Zm-6.82,8.31,16.19-2.55-5.11,10.44-17.47-.43Zm-15.56,11.08,7.89-2.77,18.11.22v.21L218.85,411c-3.54,2.35-21.74,1.5-24.93,1.07Zm-7.67,4.27,6-3.63,4.26,1.07-10.23,2.77Zm-10.44,9.16,7.46-7.25,14.28-4h1.06C193.59,420.77,184.5,422.1,175.81,425.28ZM192.22,421l20.67,3.19-6.61,9c-3,1.76-16,1.13-20.67,1.07Zm8.95,13.63h3.62l-8.1,8.53-20,.42v-.21c2.91-1.39,6.41-5.76,8.31-8.31ZM172,443.18l9.8-6.18-6.18,6.6-3.62-.21ZM153.44,443l14.7,2.35,2.13-1.07,4.26.21L165,452.76l-20.46,1.07Zm-9.8,11.72,20.24-1.06-4.47,6-4.48,6-18.53,6.39ZM136,473l17.47-6.18-4.9,6-4.47,5.33-18.12,6Zm-11.51,12.57,18.11-6.18h.64q-4.58,7.46-9.16,14.91c-1.4,1.39-17.73,3.39-20.88,3.62Zm-12.35,13.63L133,495.59h.64q-3.42,11.51-6.82,23l-22.59,1.71Zm-8.31,21.95,21.09-1.71h.64v.22l-13.85,9.59-21.09,4.26ZM78,539.27l11.72-4.69,19.82-4.05c.07.9-3.58,3.22-4.9,4.27l-8.74,7.45-24.29-.42Zm-9,3.41,26,.43q-6.93,8.08-13.85,16.19c-6.23,2.93-18.51.53-25.78,2.34ZM54.79,562.5l24.93-1.92c.43.65-4.42,8.68-5.33,10.22l-6.6,12.58-21.1,8.31Zm-8.31,30.25,20.45-8.1-8.31,30.26-26.84,1.28Zm-33.24,45.6L31.14,617,55.22,616h2.55L39.66,635.79Zm58.81-.21-31.11-2.35q9.16-10,18.32-20L84.83,613Zm1.06,0q6.51-12.57,13-25.15l24.5-4.47h.86L99.32,634.09Zm27.28-4q6.06-12.8,12.14-25.57l31.32,5.11q-7.56,9.06-15.13,18.11ZM129.58,632l15.55-18.11,24.93-2.77h1.28q-6.72,8.83-13.42,17.68C154.71,630.72,134.94,631.69,129.58,632Zm54.33-10.23L159,629l13.64-17.68c2.27-2.16,20.11-1.7,24.5-3.41h1.49Zm38.14-17.9-8.52,15.77-27.92,1.92v-.22q7.47-6.91,14.92-13.85l23.86-8.73Zm3.2-6.39L201,606.39l8.73-24.08L234,577.2h.85v.21Q230,587.43,225.25,597.44Zm1.06,0q4.91-10.23,9.8-20.46l29,4.48.21.21q-4.89,8.31-9.8,16.62Zm50.07,23.65-30.47-1.49,10-20.46,20.88-.42h7.67v.21Zm1.28,0,8.1-22.37,29.4,2.34-8.1,19.18Zm60.73-.43-30.05-.42,8.1-19.18,28.55.21Zm33,9.8-32-9.58q3.3-9.81,6.61-19.61l28.76.43q-1.71,14.17-3.41,28.34Zm30.26-2.13-29,2.35q1.71-14.38,3.41-28.77l29.4,5.76Q403.58,618,401.67,628.33Zm1.06.22,4-20.67,28.77,7.67H436q-1.49,8.94-3,17.9Zm31.32,4.9q1.5-8.85,3-17.69l28.12,1.07q-1,8.52-1.91,17Zm59.66,1.7-29.19-1.28,1.71-17,27.91.21Q493.93,626.1,493.71,635.15Zm.43-19L466.23,616q.63-10.23,1.28-20.46l27.06-.21Q494.35,605.75,494.14,616.19Zm-26.42-21.52q.52-9.69,1.07-19.39l26-.85-.21,20Zm27.06,40.7q.21-9.17.43-18.33l27.91-.43q.32,11,.64,21.95Zm59.23,3-29,.42q-.43-11.07-.86-22.16l27.92.43q.95,10.55,1.91,21.1Zm1.07,0L553.37,617l27.7-.21q1.5,10.54,3,21.09Zm30.25-.43q-1.49-10.54-3-21.09l27.91.21q2.25,9.38,4.48,18.75Zm30.47-2.34L611.33,617l27.91.21,6,17.26Zm60.09-3-29.62,1.91q-3-8.73-6-17.47h28.12q3.74,7.66,7.46,15.34Zm30.89-.64-29.4.64q-3.95-7.89-7.88-15.77l30-7.89q3.63,11.4,7.24,22.8Zm29.62,1.91L707.85,632,701,608.73l28.13-.42q3.62,12.68,7.24,25.35Zm31.75-3.19-29,3.19h-1.7q-3.53-12.78-7-25.56l30-6.4h1.06Q764.86,616,768.15,630ZM804,620l-34.31,10.44h-.21q-3.42-14.37-6.82-28.76v-.21l29.83-3.41c1.75,1.06,10.07,18.61,11.51,21.73Zm1.27-.21q-5.54-10.86-11.08-21.73l27.49,2.34L834.84,619l.43.42Zm31.32-.43-13.63-19,28.34-2.56H853L865.31,620l.21.64Zm30.47,1.5-13-23,26.2,4.27q7.68,10.11,15.35,20.24Zm29.83,1.49q-7.67-10.12-15.34-20.24l30-4.27h1.27l14.92,20.67.64.64Zm62.43-2.77-29.61-.22q-7.89-10.86-15.77-21.73l28.55.64,15.77,20,1.06,1.06Zm1.49,0q-8.09-10.12-16.19-20.24l20,9.58L978,618.53l7.46,5.12Z"/></svg>